# Blender 4.0.2
# www.blender.org
mtllib calle_pueblo.mtl
o Cube
v -31.464779 0.808277 3.862806
v -31.464779 -0.002805 5.187550
v -31.464779 0.402736 4.426330
v 0.000000 0.808277 3.862806
v -1.993699 -0.002805 5.187550
v -1.113648 0.808277 3.862806
v -1.562945 0.402736 4.426330
v -1.291593 0.450723 31.383102
v -2.642840 -0.360359 31.383101
v -2.250624 0.045182 31.383101
v -0.000000 0.450723 31.383102
v -2.642843 -0.360359 6.023716
v -0.000000 0.450723 6.023717
v -2.250627 0.045182 6.023716
v -1.291595 0.450723 6.023717
v 1.476684 1.063622 0.000000
v 0.000000 1.063622 0.000000
v -1.476684 1.063622 0.000000
v 1.481390 1.063622 -3.862806
v 31.464779 1.063622 -3.862806
v -31.464779 0.808277 -3.862806
v -31.464779 -0.002805 -5.187550
v -31.464779 0.402736 -4.426330
v 0.000000 0.808277 -3.862806
v -1.993699 -0.002805 -5.187550
v -1.113648 0.808277 -3.862806
v -1.562945 0.402736 -4.426330
v -1.291593 0.450723 -31.383102
v -2.642840 -0.360359 -31.383101
v -2.250624 0.045182 -31.383101
v -0.000000 0.450723 -31.383102
v -2.642843 -0.360359 -6.023716
v -0.000000 0.450723 -6.023717
v -2.250627 0.045182 -6.023716
v -1.291595 0.450723 -6.023717
v 1.481390 1.063622 3.862806
v 31.464779 1.063622 3.862806
v 31.464779 1.063622 0.000000
v 31.464779 0.808277 3.862806
v 31.464779 -0.002805 5.187550
v 31.464779 0.402736 4.426330
v 1.993699 -0.002805 5.187550
v 1.113648 0.808277 3.862806
v 1.562945 0.402736 4.426330
v 1.291593 0.450723 31.383102
v 2.642840 -0.360359 31.383101
v 2.250624 0.045182 31.383101
v 2.642843 -0.360359 6.023716
v 2.250627 0.045182 6.023716
v 0.000000 1.063622 -3.862806
v 1.291595 0.450723 6.023717
v -1.481390 1.063622 -3.862806
v -31.464779 1.063622 -3.862806
v 0.000000 1.063622 3.862806
v -1.481390 1.063622 3.862806
v 31.464779 0.808277 -3.862806
v 31.464779 -0.002805 -5.187550
v 31.464779 0.402736 -4.426330
v 1.993699 -0.002805 -5.187550
v 1.113648 0.808277 -3.862806
v 1.562945 0.402736 -4.426330
v 1.291593 0.450723 -31.383102
v 2.642840 -0.360359 -31.383101
v 2.250624 0.045182 -31.383101
v 2.642843 -0.360359 -6.023716
v 2.250627 0.045182 -6.023716
v 1.291595 0.450723 -6.023717
v -31.464779 1.063622 3.862806
v -31.464779 1.063622 0.000000
v 1.481390 1.063622 -1.889982
v 0.000000 1.063622 -1.889982
v -1.481390 1.063622 -1.889982
v 31.464779 1.063622 -1.889982
v -31.464779 1.063622 -1.889982
v 1.481390 1.063622 1.889982
v -1.481390 1.063622 1.889982
v 0.000000 1.063622 1.889982
v 31.464779 1.063622 1.889982
v -31.464779 1.063622 1.889982
v 1.481390 1.318859 1.889982
v 1.481390 1.318859 3.862806
v -1.481390 1.318859 1.889982
v -1.481390 1.318859 3.862806
v 31.464779 1.318859 -3.862806
v 1.481390 1.318859 -3.862806
v 31.464779 1.318859 -1.889982
v 31.464779 1.318859 3.862806
v 31.464779 1.318859 1.889982
v -31.464779 1.318859 -3.862806
v -1.481390 1.318859 -3.862806
v -31.464779 1.318859 -1.889982
v -31.464779 1.318859 3.862806
v -31.464779 1.318859 1.889982
v 1.481390 1.318859 -1.889982
v -1.481390 1.318859 -1.889982
v -0.004130 -0.002805 -0.000512
v -31.504717 -0.002805 31.425997
v -0.004130 -0.002805 31.425997
v -31.504717 -0.002805 -0.000512
v -31.504717 -0.002805 -31.427021
v -0.004130 -0.002805 -31.427021
v 31.496456 -0.002805 31.425997
v 31.496456 -0.002805 -0.000512
v 31.496456 -0.002805 -31.427021
v -3.392670 -0.002805 -0.000512
v -3.392670 -0.002805 31.425997
v -3.392670 -0.002805 -31.427021
v 3.553039 -0.002805 -0.000512
v 3.553039 -0.002805 31.425997
v 3.553039 -0.002805 -31.427021
v -0.004130 -0.002805 5.557140
v -31.504717 -0.002805 5.497364
v 31.496456 -0.002805 5.497364
v -4.312431 0.541702 6.589183
v 4.472799 0.541702 6.589183
v -0.004130 -0.002805 -5.537271
v -31.504717 -0.002805 -5.477494
v 31.496456 -0.002805 -5.477494
v -4.312431 0.541702 -6.569313
v 4.472799 0.541702 -6.569313
v -30.584955 0.541702 6.589183
v -30.584955 0.541702 30.506237
v -30.584955 0.541702 -6.569313
v -30.584955 0.541702 -30.507259
v 30.576696 0.541702 6.589183
v 30.576696 0.541702 30.506237
v 30.576696 0.541702 -6.569313
v 30.576696 0.541702 -30.507259
v -3.392670 -0.002805 5.497364
v -4.312431 0.541702 30.506237
v -4.312431 0.541702 -30.507259
v 3.553039 -0.002805 -5.477494
v 4.472799 0.541702 30.506237
v 4.472799 0.541702 -30.507259
v 3.553039 -0.002805 5.497364
v -3.392670 -0.002805 -5.477494
v 31.463329 1.063873 1.840483
v 31.463329 1.368670 1.840483
v 1.481603 1.063873 2.051294
v 1.481603 1.368670 2.051294
v 31.463329 1.063873 2.051294
v 31.463329 1.368670 2.051294
v 1.281603 1.063873 1.840483
v 1.281603 1.368670 1.840483
v 1.481603 1.368670 3.872443
v 1.481603 1.063873 3.872443
v 1.281603 1.368670 3.872443
v 1.281603 1.063873 3.872443
v 31.463329 1.063873 -1.840483
v 31.463329 1.368670 -1.840483
v 1.481603 1.063873 -2.051294
v 1.481603 1.368670 -2.051294
v 31.463329 1.063873 -2.051294
v 31.463329 1.368670 -2.051294
v 1.281603 1.063873 -1.840483
v 1.281603 1.368670 -1.840483
v 1.481603 1.368670 -3.872443
v 1.481603 1.063873 -3.872443
v 1.281603 1.368670 -3.872443
v 1.281603 1.063873 -3.872443
v -31.463329 1.063873 1.840483
v -31.463329 1.368670 1.840483
v -1.481603 1.063873 2.051294
v -1.481603 1.368670 2.051294
v -31.463329 1.063873 2.051294
v -31.463329 1.368670 2.051294
v -1.281603 1.063873 1.840483
v -1.281603 1.368670 1.840483
v -1.481603 1.368670 3.872443
v -1.481603 1.063873 3.872443
v -1.281603 1.368670 3.872443
v -1.281603 1.063873 3.872443
v -31.463329 1.063873 -1.840483
v -31.463329 1.368670 -1.840483
v -1.481603 1.063873 -2.051294
v -1.481603 1.368670 -2.051294
v -31.463329 1.063873 -2.051294
v -31.463329 1.368670 -2.051294
v -1.281603 1.063873 -1.840483
v -1.281603 1.368670 -1.840483
v -1.481603 1.368670 -3.872443
v -1.481603 1.063873 -3.872443
v -1.281603 1.368670 -3.872443
v -1.281603 1.063873 -3.872443
v 1.483884 1.188946 3.689772
v 1.483884 1.368670 3.689772
v 31.463329 1.188946 3.689772
v 31.463329 1.368670 3.689772
v 1.483884 1.188946 3.900582
v 1.483884 1.368670 3.900582
v 31.463329 1.188946 3.900582
v 31.463329 1.368670 3.900582
v 1.483884 1.188946 -3.689772
v 1.483884 1.368670 -3.689772
v 31.463329 1.188946 -3.689772
v 31.463329 1.368670 -3.689772
v 1.483884 1.188946 -3.900582
v 1.483884 1.368670 -3.900582
v 31.463329 1.188946 -3.900582
v 31.463329 1.368670 -3.900582
v -1.483884 1.188946 3.689772
v -1.483884 1.368670 3.689772
v -31.463329 1.188946 3.689772
v -31.463329 1.368670 3.689772
v -1.483884 1.188946 3.900582
v -1.483884 1.368670 3.900582
v -31.463329 1.188946 3.900582
v -31.463329 1.368670 3.900582
v -1.483884 1.188946 -3.689772
v -1.483884 1.368670 -3.689772
v -31.463329 1.188946 -3.689772
v -31.463329 1.368670 -3.689772
v -1.483884 1.188946 -3.900582
v -1.483884 1.368670 -3.900582
v -31.463329 1.188946 -3.900582
v -31.463329 1.368670 -3.900582
vn -0.0000 -0.8490 -0.5283
vn -0.0000 -0.8117 -0.5841
vn -0.0000 -0.8375 -0.5464
vn -0.0000 -0.8826 -0.4702
vn 0.6402 -0.7640 0.0806
vn 0.2329 -0.9710 -0.0549
vn 0.1987 -0.9801 -0.0000
vn 0.5655 -0.8247 -0.0000
vn 0.7541 -0.6491 0.1001
vn 0.7188 -0.6952 -0.0000
vn -0.0000 -0.9966 -0.0819
vn -0.0000 -1.0000 -0.0000
vn 0.4815 -0.8747 -0.0555
vn 0.1402 -0.9807 -0.1363
vn 0.7918 -0.5456 0.2746
vn -0.0000 -0.9866 -0.1632
vn -0.0000 -0.8490 0.5283
vn -0.0000 -0.8375 0.5464
vn -0.0000 -0.8117 0.5841
vn -0.0000 -0.8826 0.4702
vn 0.6402 -0.7640 -0.0806
vn 0.2329 -0.9710 0.0549
vn 0.7541 -0.6491 -0.1001
vn -0.0000 -0.9966 0.0819
vn 0.4815 -0.8747 0.0555
vn 0.1402 -0.9807 0.1363
vn 0.7918 -0.5456 -0.2746
vn -0.0000 -0.9866 0.1632
vn -0.0000 -0.0000 -1.0000
vn -0.6402 -0.7640 0.0806
vn -0.5655 -0.8247 -0.0000
vn -0.1987 -0.9801 -0.0000
vn -0.2329 -0.9710 -0.0549
vn -0.7541 -0.6491 0.1001
vn -0.7188 -0.6952 -0.0000
vn -0.4815 -0.8747 -0.0555
vn -0.1402 -0.9807 -0.1363
vn -0.0000 -0.0000 1.0000
vn -0.7918 -0.5456 0.2746
vn -0.6402 -0.7640 -0.0806
vn -0.2329 -0.9710 0.0549
vn -0.7541 -0.6491 -0.1001
vn -0.4815 -0.8747 0.0555
vn -0.1402 -0.9807 0.1363
vn -0.7918 -0.5456 -0.2746
vn -1.0000 -0.0000 -0.0000
vn 1.0000 -0.0000 -0.0000
vn -0.0000 0.9972 -0.0743
vn -0.0000 1.0000 -0.0000
vn -0.0000 0.9855 -0.1696
vn -0.0000 0.9972 0.0743
vn -0.0000 0.9855 0.1696
vn -0.0000 0.9634 -0.2681
vn -0.0000 0.9634 0.2681
vn -0.5094 0.8605 -0.0000
vn 0.5094 0.8605 -0.0000
vn -0.0000 0.8605 0.5094
vn -0.0000 0.8605 -0.5094
vt 0.003460 0.983078
vt 0.003460 0.971116
vt 0.578205 0.971116
vt 0.569697 0.983078
vt 0.003460 0.997654
vt 0.561540 0.997654
vt 0.868181 0.928529
vt 0.831443 0.929573
vt 0.831173 0.007667
vt 0.867307 0.007651
vt 0.887917 0.928150
vt 0.887148 0.007635
vt 0.785821 0.929279
vt 0.785821 0.007669
vt 0.843285 0.977173
vt 0.823966 0.995313
vt 0.863952 0.954811
vt 0.785821 0.995092
vt 0.915876 0.522511
vt 0.945749 0.522437
vt 0.945749 0.996435
vt 0.915876 0.996435
vt 0.915876 0.499096
vt 0.945749 0.499096
vt 0.003460 0.954309
vt 0.569697 0.954309
vt 0.578205 0.966271
vt 0.003460 0.966271
vt 0.003460 0.939733
vt 0.561540 0.939733
vt 0.703459 0.928529
vt 0.704333 0.007651
vt 0.740467 0.007667
vt 0.740197 0.929573
vt 0.683724 0.928150
vt 0.684492 0.007635
vt 0.785819 0.007669
vt 0.785819 0.929279
vt 0.728355 0.977173
vt 0.747674 0.995314
vt 0.915876 0.475681
vt 0.945749 0.475755
vt 0.915876 0.001756
vt 0.945749 0.001756
vt 0.707688 0.954811
vt 0.785819 0.995092
vt 0.975623 0.499096
vt 0.998224 0.499096
vt 0.998224 0.522511
vt 0.975623 0.522511
vt 0.975623 0.475681
vt 0.998224 0.475681
vt 0.603860 0.038660
vt 0.603860 0.003504
vt 0.595799 0.003504
vt 0.595799 0.050268
vt 0.003455 0.954301
vt 0.569692 0.954301
vt 0.578200 0.966263
vt 0.003455 0.966263
vt 0.003455 0.939725
vt 0.561535 0.939725
vt 0.703462 0.928529
vt 0.704336 0.007651
vt 0.740470 0.007667
vt 0.740200 0.929573
vt 0.683726 0.928150
vt 0.684495 0.007635
vt 0.728358 0.977173
vt 0.747677 0.995313
vt 0.603799 0.003504
vt 0.603799 0.038660
vt 0.595738 0.050268
vt 0.595738 0.003504
vt 0.603861 0.038660
vt 0.603861 0.003504
vt 0.595800 0.003504
vt 0.595800 0.050268
vt 0.707691 0.954811
vt 0.603799 0.038660
vt 0.603799 0.996778
vt 0.595739 0.996778
vt 0.595739 0.050268
vt 0.603799 0.996778
vt 0.595738 0.996778
vt 0.003460 0.983057
vt 0.003460 0.971095
vt 0.578205 0.971095
vt 0.569697 0.983057
vt 0.003460 0.997633
vt 0.561540 0.997633
vt 0.868179 0.928529
vt 0.831440 0.929573
vt 0.831170 0.007667
vt 0.867304 0.007651
vt 0.887914 0.928150
vt 0.887145 0.007635
vt 0.843283 0.977173
vt 0.823963 0.995314
vt 0.603861 0.996778
vt 0.595800 0.996778
vt 0.603799 0.003504
vt 0.595739 0.003504
vt 0.863949 0.954811
vt 0.603859 0.996778
vt 0.595798 0.996778
vt 0.679551 0.988350
vt 0.679551 0.043953
vt 0.671512 0.043953
vt 0.671512 0.988350
vt 0.975623 0.996435
vt 0.975623 0.001756
vt 0.609373 0.996390
vt 0.671512 0.996390
vt 0.609373 0.988350
vt 0.893275 0.475681
vt 0.893275 0.499096
vt 0.893275 0.522511
vt 0.679558 0.988350
vt 0.679558 0.043953
vt 0.671518 0.043953
vt 0.671518 0.988350
vt 0.609373 0.043953
vt 0.671525 0.988350
vt 0.609387 0.988350
vt 0.609387 0.043953
vt 0.671526 0.043953
vt 0.609387 0.043953
vt 0.671526 0.043953
vt 0.671526 0.988350
vt 0.609387 0.988350
vt 0.609380 0.988350
vt 0.609380 0.043953
vt 0.671526 0.996390
vt 0.609387 0.996390
vt 0.587681 0.996778
vt 0.587681 0.050269
vt 0.587743 0.050268
vt 0.587743 0.996778
vt 0.679565 0.043953
vt 0.679565 0.988350
vt 0.587681 0.996778
vt 0.587681 0.050268
vt 0.679565 0.043953
vt 0.679565 0.988350
vt 0.671525 0.996390
vt 0.609387 0.996390
vt 0.587742 0.050268
vt 0.587741 0.996778
vt 0.609380 0.996390
vt 0.671518 0.996390
vt 0.170743 0.757606
vt 0.146122 0.758175
vt 0.143212 0.632282
vt 0.167833 0.631713
vt 0.121594 0.758742
vt 0.118685 0.632849
vt 0.171462 0.788711
vt 0.174354 0.913849
vt 0.149733 0.914418
vt 0.146841 0.789280
vt 0.122313 0.789847
vt 0.125205 0.914985
vt 0.121677 0.773923
vt 0.146472 0.773350
vt 0.171361 0.772775
vt 0.287209 0.770097
vt 0.287577 0.786027
vt 0.286858 0.754923
vt 0.301506 0.614486
vt 0.301506 0.329360
vt 0.562746 0.329360
vt 0.562746 0.614486
vt 0.014453 0.016422
vt 0.275692 0.016422
vt 0.275693 0.303390
vt 0.014453 0.303390
vt 0.005736 0.776603
vt 0.006104 0.792533
vt 0.005385 0.761428
vt 0.014684 0.329360
vt 0.276152 0.329360
vt 0.276152 0.614486
vt 0.014684 0.614486
vt 0.564166 0.016422
vt 0.564166 0.303390
vt 0.302698 0.303390
vt 0.302698 0.016422
vt 0.287618 0.315065
vt 0.004406 0.315065
vt 0.574212 0.315065
vt 0.290772 0.315065
vt 0.291460 0.317685
vt 0.574671 0.317685
vt 0.288078 0.626161
vt 0.004638 0.626161
vt 0.002778 0.313437
vt 0.002778 0.006376
vt 0.575841 0.006376
vt 0.575841 0.313437
vt 0.004406 0.004748
vt 0.287618 0.004747
vt 0.289831 0.624533
vt 0.289831 0.319314
vt 0.003009 0.624533
vt 0.003009 0.319314
vt 0.004638 0.317685
vt 0.288078 0.317685
vt 0.574671 0.626161
vt 0.291460 0.626161
vt 0.576072 0.319314
vt 0.576072 0.624533
vt 0.289019 0.006376
vt 0.289019 0.313437
vt 0.290772 0.004748
vt 0.574212 0.004748
vt 0.289479 0.319314
vt 0.289479 0.624533
vt 0.289371 0.313437
vt 0.289371 0.006376
vt 0.006637 0.999981
vt 0.006637 0.063094
vt 0.011214 0.069303
vt 0.011214 0.999981
vt 0.011253 0.000019
vt 0.017871 0.000019
vt 0.017871 0.930698
vt 0.011253 0.930698
vt 0.000019 0.999981
vt 0.000019 0.063094
vt 0.000019 0.000019
vt 0.006637 0.000019
vt 0.010980 0.000019
vt 0.010980 0.056551
vt 0.022252 0.000019
vt 0.022252 0.009481
vt 0.017909 0.009481
vt 0.017909 0.000019
vt 0.017871 0.987229
vt 0.011253 0.987229
vt 0.026069 0.999983
vt 0.020075 0.999983
vt 0.020075 0.000017
vt 0.026069 0.000017
vt 0.007048 0.000017
vt 0.013043 0.000017
vt 0.013043 0.999983
vt 0.007048 0.999983
vt 0.026103 0.000017
vt 0.032098 0.000017
vt 0.032098 0.007048
vt 0.026103 0.007048
vt 0.000017 0.000017
vt 0.000017 0.999983
s 1
usemtl Material.003
f 133/170/49 126/171/49 125/172/53 115/173/53
f 130/174/49 114/175/53 121/176/53 122/177/49
f 134/181/49 120/182/54 127/183/54 128/184/49
f 131/185/49 124/186/49 123/187/54 119/188/54
usemtl Material.004
f 129/152/48 105/153/49 99/154/49 112/155/50
f 136/156/51 117/157/52 99/154/49 105/153/49
f 135/158/48 113/159/50 103/160/49 108/161/49
f 132/162/51 108/161/49 103/160/49 118/163/52
f 116/164/49 136/156/51 105/153/49 96/165/49
f 111/166/49 96/165/49 105/153/49 129/152/48
f 116/164/49 96/165/49 108/161/49 132/162/51
f 111/166/49 135/158/48 108/161/49 96/165/49
f 98/167/49 109/168/49 135/158/48 111/166/49
f 98/167/49 111/166/49 129/152/48 106/169/49
f 101/178/49 116/164/49 132/162/51 110/179/49
f 101/178/49 107/180/49 136/156/51 116/164/49
f 122/177/55 121/176/55 112/189/55 97/190/55
f 123/187/55 124/186/55 100/191/55 117/192/55
f 125/172/56 126/171/56 102/193/56 113/194/56
f 128/184/56 127/183/56 118/195/56 104/196/56
f 130/174/57 122/177/57 97/197/57 106/198/57
f 124/186/58 131/185/58 107/199/58 100/200/58
f 114/175/56 130/174/56 106/201/56 129/202/56
f 126/171/57 133/170/57 109/203/57 102/204/57
f 134/181/58 128/184/58 104/205/58 110/206/58
f 120/182/55 134/181/55 110/207/55 132/208/55
f 133/170/55 115/173/55 135/209/55 109/210/55
f 115/173/53 125/172/53 113/211/50 135/212/48
f 121/176/53 114/175/53 129/213/48 112/214/50
f 131/185/56 119/188/56 136/215/56 107/216/56
f 127/183/54 120/182/54 132/217/51 118/218/52
f 119/188/54 123/187/54 117/219/52 136/220/51
usemtl Material.005
f 75/19/12 16/20/12 38/21/12 78/22/12
f 77/23/12 17/24/12 16/20/12 75/19/12
f 76/41/12 18/42/12 17/24/12 77/23/12
f 79/43/12 69/44/12 18/42/12 76/41/12
f 71/47/12 50/48/12 19/49/12 70/50/12
f 72/51/12 52/52/12 50/48/12 71/47/12
f 43/53/29 4/54/29 54/55/29 36/56/29
f 4/71/29 6/72/29 55/73/29 54/74/29
f 26/75/38 24/76/38 50/77/38 52/78/38
f 24/102/38 60/80/38 19/83/38 50/103/38
f 16/20/12 70/50/12 73/111/12 38/21/12
f 18/42/12 72/51/12 71/47/12 17/24/12
f 69/44/12 74/112/12 72/51/12 18/42/12
f 17/24/12 71/47/12 70/50/12 16/20/12
f 55/116/12 76/41/12 77/23/12 54/117/12
f 54/117/12 77/23/12 75/19/12 36/118/12
usemtl Material.007
f 14/7/5 15/8/6 8/9/7 10/10/8
f 12/11/9 14/7/5 10/10/8 9/12/10
f 15/8/6 13/13/11 11/14/12 8/9/7
f 7/15/13 6/16/14 15/8/6 14/7/5
f 5/17/15 7/15/15 14/7/5 12/11/9
f 6/16/14 4/18/16 13/13/11 15/8/6
f 34/31/21 30/32/8 28/33/7 35/34/22
f 32/35/23 29/36/10 30/32/8 34/31/21
f 35/34/22 28/33/7 31/37/12 33/38/24
f 27/39/25 34/31/21 35/34/22 26/40/26
f 25/45/27 32/35/23 34/31/21 27/39/27
f 26/40/26 35/34/22 33/38/24 24/46/28
f 49/63/30 47/64/31 45/65/32 51/66/33
f 48/67/34 46/68/35 47/64/31 49/63/30
f 51/66/33 45/65/32 11/14/12 13/13/11
f 44/69/36 49/63/30 51/66/33 43/70/37
f 42/79/39 48/67/34 49/63/30 44/69/39
f 43/70/37 51/66/33 13/13/11 4/18/16
f 66/92/40 67/93/41 62/94/32 64/95/31
f 65/96/42 66/92/40 64/95/31 63/97/35
f 67/93/41 33/38/24 31/37/12 62/94/32
f 61/98/43 60/99/44 67/93/41 66/92/40
f 59/104/45 61/98/45 66/92/40 65/96/42
f 60/99/44 24/46/28 33/38/24 67/93/41
usemtl Ladrillos
f 3/1/1 1/2/2 6/3/2 7/4/3
f 2/5/4 3/1/1 7/4/3 5/6/4
f 23/25/17 27/26/18 26/27/19 21/28/19
f 22/29/20 25/30/20 27/26/18 23/25/17
f 41/57/1 44/58/3 43/59/2 39/60/2
f 40/61/4 42/62/4 44/58/3 41/57/1
f 58/86/17 56/87/19 60/88/19 61/89/18
f 57/90/20 58/86/17 61/89/18 59/91/20
usemtl Material.002
f 72/107/29 74/108/29 91/109/29 95/110/29
f 52/113/46 72/114/46 95/110/46 90/115/46
f 75/119/38 78/120/38 88/121/38 80/122/38
f 91/109/12 89/123/12 90/115/12 95/110/12
f 94/124/12 85/125/12 84/126/12 86/127/12
f 92/128/12 93/129/12 82/130/12 83/131/12
f 81/132/12 80/122/12 88/121/12 87/133/12
f 76/134/46 55/135/46 83/131/46 82/130/46
f 73/140/29 70/141/29 94/124/29 86/127/29
f 79/144/38 76/145/38 82/130/38 93/129/38
f 70/146/47 19/147/47 85/125/47 94/124/47
f 36/150/47 75/151/47 80/122/47 81/132/47
usemtl Material.016
f 60/80/38 56/81/38 20/82/38 19/83/38
f 6/72/29 1/84/29 68/85/29 55/73/29
f 21/100/38 26/75/38 52/78/38 53/101/38
f 39/105/29 43/53/29 36/56/29 37/106/29
f 55/73/29 68/85/29 92/136/29 83/137/29
f 53/101/38 52/78/38 90/138/38 89/139/38
f 19/83/38 20/82/38 84/142/38 85/143/38
f 37/106/29 36/56/29 81/148/29 87/149/29
s 0
usemtl Material.017
f 138/221/49 144/222/49 140/223/49 142/224/49
f 141/225/38 142/226/38 140/227/38 139/228/38
f 137/229/29 143/230/29 144/222/29 138/221/29
f 143/230/46 148/231/46 147/232/46 144/222/46
f 144/222/49 147/232/49 145/233/49 140/234/49
f 146/235/38 145/236/38 147/237/38 148/238/38
f 139/228/47 140/227/47 145/239/47 146/240/47
f 150/221/49 154/224/49 152/223/49 156/222/49
f 153/225/29 151/228/29 152/227/29 154/226/29
f 149/229/38 150/221/38 156/222/38 155/230/38
f 155/230/46 156/222/46 159/232/46 160/231/46
f 156/222/49 152/234/49 157/233/49 159/232/49
f 158/235/29 160/238/29 159/237/29 157/236/29
f 151/228/47 158/240/47 157/239/47 152/227/47
f 162/221/49 166/224/49 164/223/49 168/222/49
f 165/225/38 163/228/38 164/227/38 166/226/38
f 161/229/29 162/221/29 168/222/29 167/230/29
f 167/230/47 168/222/47 171/232/47 172/231/47
f 168/222/49 164/234/49 169/233/49 171/232/49
f 170/235/38 172/238/38 171/237/38 169/236/38
f 163/228/46 170/240/46 169/239/46 164/227/46
f 174/221/49 180/222/49 176/223/49 178/224/49
f 177/225/29 178/226/29 176/227/29 175/228/29
f 173/229/38 179/230/38 180/222/38 174/221/38
f 179/230/47 184/231/47 183/232/47 180/222/47
f 180/222/49 183/232/49 181/233/49 176/234/49
f 182/235/29 181/236/29 183/237/29 184/238/29
f 175/228/46 176/227/46 181/239/46 182/240/46
usemtl Material.020
f 185/241/29 186/242/29 188/243/29 187/244/29
f 191/245/38 192/246/38 190/247/38 189/248/38
f 189/249/46 190/250/46 186/251/46 185/252/46
f 187/253/12 191/245/12 189/248/12 185/254/12
f 192/246/49 188/243/49 186/242/49 190/247/49
f 193/241/38 195/244/38 196/243/38 194/242/38
f 199/245/29 197/248/29 198/247/29 200/246/29
f 197/249/46 193/252/46 194/251/46 198/250/46
f 195/253/12 193/254/12 197/248/12 199/245/12
f 200/246/49 198/247/49 194/242/49 196/243/49
f 201/241/29 203/244/29 204/243/29 202/242/29
f 207/245/38 205/248/38 206/247/38 208/246/38
f 205/249/47 201/252/47 202/251/47 206/250/47
f 203/253/12 201/254/12 205/248/12 207/245/12
f 208/246/49 206/247/49 202/242/49 204/243/49
f 209/241/38 210/242/38 212/243/38 211/244/38
f 215/245/29 216/246/29 214/247/29 213/248/29
f 213/249/47 214/250/47 210/251/47 209/252/47
f 211/253/12 215/245/12 213/248/12 209/254/12
f 216/246/49 212/243/49 210/242/49 214/247/49
