# Blender 4.1.1
# www.blender.org
o BezierCurve
v 0.123629 0.129488 2.099179
v 0.142782 0.140707 2.118332
v 0.161935 0.129488 2.137485
v 0.169869 0.102401 2.145419
v 0.161935 0.075314 2.137485
v 0.142782 0.064095 2.118332
v 0.123629 0.075314 2.099179
v 0.115695 0.102401 2.091245
v 0.210770 0.122112 1.934758
v 0.236783 0.132943 1.942854
v 0.262091 0.121375 1.952088
v 0.271869 0.094184 1.957049
v 0.260388 0.067298 1.954832
v 0.234375 0.056466 1.946736
v 0.209067 0.068034 1.937503
v 0.199289 0.095226 1.932541
v 0.252589 0.101900 1.671201
v 0.279991 0.112245 1.672503
v 0.306561 0.100235 1.675558
v 0.316736 0.072905 1.678576
v 0.304555 0.046264 1.679789
v 0.277153 0.035919 1.678487
v 0.250582 0.047929 1.675432
v 0.240408 0.075260 1.672414
v 0.251757 0.072314 1.327107
v 0.279211 0.082366 1.324912
v 0.305830 0.070080 1.324687
v 0.316022 0.042655 1.326564
v 0.303816 0.016154 1.329444
v 0.276362 0.006102 1.331639
v 0.249743 0.018387 1.331864
v 0.239551 0.045813 1.329987
v 0.213394 0.037112 0.921825
v 0.240669 0.046987 0.917569
v 0.267112 0.034528 0.915311
v 0.277233 0.007032 0.916374
v 0.265104 -0.019393 0.920135
v 0.237829 -0.029268 0.924392
v 0.211386 -0.016809 0.926650
v 0.201264 0.010686 0.925587
v 0.143361 0.000035 0.473816
v 0.170428 0.009799 0.468194
v 0.196650 -0.002779 0.464482
v 0.206666 -0.030331 0.464853
v 0.194609 -0.056718 0.469091
v 0.167541 -0.066481 0.474712
v 0.141320 -0.053903 0.478425
v 0.131304 -0.026351 0.478053
v 0.047659 -0.035195 0.001213
v 0.074528 -0.025504 -0.005401
v 0.100513 -0.038169 -0.010293
v 0.110394 -0.065770 -0.010597
v 0.098381 -0.092140 -0.006136
v 0.071513 -0.101831 0.000477
v 0.045527 -0.089166 0.005369
v 0.035647 -0.061565 0.005674
v -0.067673 -0.064869 -0.477964
v -0.040991 -0.055226 -0.485359
v -0.015264 -0.067956 -0.491326
v -0.005560 -0.095602 -0.492370
v -0.017566 -0.121970 -0.487879
v -0.044247 -0.131614 -0.480484
v -0.069975 -0.118884 -0.474517
v -0.079678 -0.091238 -0.473473
v -0.196573 -0.085289 -0.945717
v -0.170076 -0.075673 -0.953781
v -0.144652 -0.088449 -0.960849
v -0.135194 -0.116133 -0.962781
v -0.147242 -0.142507 -0.958445
v -0.173739 -0.152123 -0.950382
v -0.199163 -0.139347 -0.943314
v -0.208621 -0.111664 -0.941382
v -0.332946 -0.092769 -1.384010
v -0.306646 -0.083162 -1.392703
v -0.281619 -0.095956 -1.401042
v -0.272525 -0.123655 -1.404142
v -0.284692 -0.150035 -1.400186
v -0.310992 -0.159642 -1.391492
v -0.336019 -0.146849 -1.383154
v -0.345113 -0.119149 -1.380054
v -0.470611 -0.083669 -1.774668
v -0.444550 -0.074042 -1.784033
v -0.420116 -0.086786 -1.794040
v -0.411622 -0.114436 -1.798826
v -0.424044 -0.140795 -1.795588
v -0.450105 -0.150422 -1.786222
v -0.474539 -0.137678 -1.776216
v -0.483033 -0.110028 -1.771430
v -0.603139 -0.054510 -2.099144
v -0.577430 -0.044796 -2.109354
v -0.554051 -0.057278 -2.121892
v -0.546697 -0.084645 -2.129412
v -0.559676 -0.110865 -2.127509
v -0.585385 -0.120579 -2.117299
v -0.608764 -0.108097 -2.104761
v -0.616118 -0.080731 -2.097241
v -0.723742 -0.002298 -2.338835
v -0.698633 0.007696 -2.350204
v -0.677274 -0.003847 -2.366639
v -0.672175 -0.030164 -2.378513
v -0.686324 -0.055840 -2.378869
v -0.711433 -0.065834 -2.367499
v -0.732792 -0.054291 -2.351064
v -0.737891 -0.027974 -2.339191
v -0.545028 0.003145 -2.402958
v -0.545063 -0.059863 -2.402943
v -0.737173 0.003145 -2.837591
v -0.737207 -0.059863 -2.837576
v -0.817783 0.003322 -2.282377
v -0.817817 -0.059686 -2.282362
v -1.009928 0.003322 -2.717011
v -1.009962 -0.059686 -2.716995
v -0.591536 -0.059833 -2.382398
v -0.761324 -0.059723 -2.307337
v -0.783646 0.003175 -2.817046
v -0.953434 0.003286 -2.741986
v -0.953468 -0.059723 -2.741971
v -0.783681 -0.059833 -2.817031
v -0.761289 0.003286 -2.307353
v -0.591502 0.003175 -2.382413
v -0.844173 0.003175 -2.953959
v -1.013961 0.003286 -2.878898
v -1.013995 -0.059723 -2.878883
v -0.844208 -0.059833 -2.953944
v -0.817824 -0.072203 -2.282359
v -1.009969 -0.072203 -2.716993
v -0.761331 -0.072239 -2.307334
v -0.953427 0.015803 -2.741989
v -1.009921 0.015839 -2.717014
v -0.545022 0.015662 -2.402961
v -0.737166 0.015662 -2.837595
v -0.783687 -0.072350 -2.817028
v -0.737214 -0.072380 -2.837573
v -0.817776 0.015839 -2.282381
v -0.591495 0.015692 -2.382416
v -0.545070 -0.072380 -2.402940
v -0.591543 -0.072350 -2.382395
v -0.783639 0.015692 -2.817049
v -0.953475 -0.072239 -2.741967
v -0.761283 0.015803 -2.307355
v 0.294863 0.134991 2.100901
v 0.294863 0.073104 2.100901
v 0.131509 0.134991 2.547153
v 0.131509 0.073104 2.547153
v 0.014817 0.134991 1.998387
v 0.014817 0.073104 1.998387
v -0.148538 0.134991 2.444639
v -0.148538 0.073104 2.444639
v 0.247148 0.073104 2.083434
v 0.072821 0.073104 2.019620
v 0.083793 0.134991 2.529686
v -0.090534 0.134991 2.465872
v -0.090534 0.073104 2.465872
v 0.083793 0.073104 2.529686
v 0.072821 0.134991 2.019620
v 0.247148 0.134991 2.083434
v 0.032335 0.134991 2.670259
v -0.141992 0.134991 2.606445
v -0.141992 0.073104 2.606445
v 0.032335 0.073104 2.670259
v 0.014817 0.060810 1.998387
v -0.148538 0.060810 2.444639
v 0.072821 0.060810 2.019620
v -0.090534 0.147286 2.465872
v -0.148538 0.147286 2.444639
v 0.294863 0.147286 2.100901
v 0.131509 0.147286 2.547153
v 0.083793 0.060810 2.529686
v 0.131509 0.060810 2.547153
v 0.014817 0.147286 1.998387
v 0.247148 0.147286 2.083434
v 0.294863 0.060810 2.100901
v 0.247148 0.060810 2.083434
v 0.083793 0.147286 2.529686
v -0.090534 0.060810 2.465872
v 0.072821 0.147286 2.019620
vn -0.5780 0.7420 -0.3395
vn -0.6261 0.7369 -0.2550
vn -0.9482 0.0184 -0.3171
vn -0.8840 0.0120 -0.4673
vn 0.0904 0.9959 0.0053
vn 0.0697 0.9969 -0.0368
vn 0.6708 0.6625 0.3332
vn 0.7076 0.6779 0.1994
vn 0.8798 0.0070 0.4753
vn 0.9465 -0.0083 0.3225
vn 0.6487 -0.6600 0.3790
vn 0.6693 -0.6922 0.2699
vn 0.0380 -0.9971 0.0656
vn 0.0065 -0.9979 0.0639
vn -0.6223 -0.7244 -0.2966
vn -0.6769 -0.7131 -0.1823
vn -0.6676 0.7361 -0.1118
vn -0.9963 0.0325 -0.0798
vn 0.0566 0.9955 -0.0763
vn 0.7394 0.6733 0.0037
vn 0.9963 -0.0287 0.0810
vn 0.6895 -0.7155 0.1125
vn -0.0178 -0.9967 0.0797
vn -0.7226 -0.6912 0.0001
vn -0.6735 0.7386 -0.0312
vn -0.9981 0.0417 0.0448
vn 0.0484 0.9949 -0.0883
vn 0.7372 0.6692 -0.0934
vn 0.9982 -0.0407 -0.0446
vn 0.6856 -0.7274 0.0298
vn -0.0261 -0.9958 0.0873
vn -0.7270 -0.6802 0.0940
vn -0.6712 0.7409 0.0213
vn -0.9916 0.0475 0.1203
vn 0.0444 0.9950 -0.0899
vn 0.7310 0.6661 -0.1481
vn 0.9916 -0.0479 -0.1202
vn 0.6786 -0.7341 -0.0228
vn -0.0298 -0.9957 0.0882
vn -0.7237 -0.6740 0.1479
vn -0.6665 0.7430 0.0611
vn -0.9837 0.0512 0.1724
vn 0.0431 0.9954 -0.0860
vn 0.7251 0.6640 -0.1823
vn 0.9836 -0.0527 -0.1722
vn 0.6713 -0.7386 -0.0623
vn -0.0323 -0.9959 0.0841
vn -0.7192 -0.6706 0.1817
vn -0.6604 0.7448 0.0955
vn -0.9757 0.0536 0.2125
vn 0.0438 0.9960 -0.0777
vn 0.7204 0.6626 -0.2048
vn 0.9756 -0.0562 -0.2123
vn 0.6637 -0.7418 -0.0964
vn -0.0350 -0.9965 0.0758
vn -0.7150 -0.6687 0.2040
vn -0.6529 0.7463 0.1291
vn -0.9675 0.0550 0.2468
vn 0.0465 0.9968 -0.0646
vn 0.7169 0.6616 -0.2200
vn 0.9673 -0.0589 -0.2465
vn 0.6551 -0.7443 -0.1297
vn -0.0385 -0.9973 0.0626
vn -0.7113 -0.6679 0.2188
vn -0.6433 0.7474 0.1659
vn -0.9586 0.0554 0.2794
vn 0.0518 0.9976 -0.0455
vn 0.7147 0.6606 -0.2297
vn 0.9583 -0.0612 -0.2792
vn 0.6445 -0.7463 -0.1663
vn -0.0438 -0.9981 0.0432
vn -0.7083 -0.6681 0.2280
vn -0.6296 0.7477 0.2111
vn -0.9477 0.0544 0.3145
vn 0.0613 0.9980 -0.0173
vn 0.7141 0.6594 -0.2349
vn 0.9472 -0.0632 -0.3143
vn 0.6300 -0.7473 -0.2112
vn -0.0522 -0.9985 0.0143
vn -0.7060 -0.6691 0.2321
vn -0.6082 0.7453 0.2731
vn -0.9326 0.0505 0.3574
vn 0.0784 0.9966 0.0263
vn 0.7161 0.6572 -0.2352
vn 0.9315 -0.0646 -0.3578
vn 0.6074 -0.7460 -0.2730
vn -0.0666 -0.9973 -0.0309
vn -0.7045 -0.6714 0.2300
vn -0.5688 0.7344 0.3704
vn -0.9074 0.0384 0.4184
vn 0.1129 0.9886 0.0993
vn 0.7232 0.6513 -0.2296
vn 0.9047 -0.0638 -0.4213
vn 0.5658 -0.7368 -0.3701
vn -0.0947 -0.9896 -0.1082
vn -0.7048 -0.6752 0.2175
vn -0.5415 0.7225 0.4299
vn -0.8908 0.0248 0.4537
vn 0.1388 0.9798 0.1437
vn 0.7312 0.6429 -0.2279
vn 0.8851 -0.0668 -0.4605
vn 0.5357 -0.7273 -0.4290
vn -0.1106 -0.9811 -0.1589
vn -0.7026 -0.6815 0.2049
vn -0.4043 -0.0000 -0.9146
vn 0.4043 -0.0000 0.9146
vn 0.9146 -0.0006 -0.4043
vn -0.9146 0.0006 0.4043
vn 0.0005 1.0000 -0.0002
vn -0.0005 -1.0000 0.0002
vn 0.3437 -0.0000 -0.9391
vn -0.3438 -0.0000 0.9391
vn -0.9391 -0.0000 -0.3438
vn 0.9391 -0.0000 0.3438
vn 0.3438 -0.0000 -0.9391
vn -0.0000 -1.0000 -0.0000
vn -0.0000 1.0000 -0.0000
vt 0.022902 0.839826
vt 0.063529 0.839862
vt 0.063476 0.846164
vt 0.022881 0.846052
vt 0.022924 0.833599
vt 0.063582 0.833560
vt 0.022946 0.827373
vt 0.063634 0.827258
vt 0.022967 0.821146
vt 0.063687 0.820956
vt 0.022989 0.814920
vt 0.063740 0.814654
vt 0.023011 0.808694
vt 0.063792 0.808352
vt 0.022859 0.852279
vt 0.063423 0.852466
vt 0.063371 0.858768
vt 0.022837 0.858505
vt 0.119946 0.839912
vt 0.119851 0.846319
vt 0.120042 0.833506
vt 0.120138 0.827099
vt 0.120233 0.820692
vt 0.120329 0.814285
vt 0.120425 0.807878
vt 0.119755 0.852726
vt 0.119659 0.859133
vt 0.191838 0.839977
vt 0.191687 0.846517
vt 0.191988 0.833436
vt 0.192138 0.826895
vt 0.192289 0.820355
vt 0.192439 0.813814
vt 0.192590 0.807274
vt 0.191537 0.853058
vt 0.191386 0.859598
vt 0.276547 0.840052
vt 0.276332 0.846750
vt 0.276762 0.833354
vt 0.276977 0.826656
vt 0.277192 0.819958
vt 0.277407 0.813260
vt 0.277622 0.806561
vt 0.276117 0.853449
vt 0.275902 0.860147
vt 0.370718 0.840136
vt 0.370431 0.847009
vt 0.371005 0.833263
vt 0.371292 0.826390
vt 0.371579 0.819516
vt 0.371865 0.812643
vt 0.372152 0.805770
vt 0.370145 0.853883
vt 0.369858 0.860756
vt 0.470731 0.840225
vt 0.470368 0.847285
vt 0.471094 0.833166
vt 0.471457 0.826107
vt 0.471820 0.819048
vt 0.472183 0.811988
vt 0.472546 0.804929
vt 0.470005 0.854344
vt 0.469642 0.861403
vt 0.572859 0.840317
vt 0.572418 0.847566
vt 0.573299 0.833067
vt 0.573740 0.825818
vt 0.574181 0.818569
vt 0.574622 0.811320
vt 0.575062 0.804070
vt 0.571977 0.854815
vt 0.571536 0.862064
vt 0.673337 0.840406
vt 0.672819 0.847842
vt 0.673854 0.832970
vt 0.674371 0.825534
vt 0.674889 0.818098
vt 0.675406 0.810662
vt 0.675923 0.803226
vt 0.672302 0.855278
vt 0.671785 0.862714
vt 0.768412 0.840491
vt 0.767822 0.848104
vt 0.769001 0.832878
vt 0.769591 0.825265
vt 0.770181 0.817652
vt 0.770771 0.810039
vt 0.771361 0.802427
vt 0.767232 0.855717
vt 0.766642 0.863330
vt 0.854397 0.840568
vt 0.853741 0.848341
vt 0.855052 0.832795
vt 0.855707 0.825022
vt 0.856363 0.817249
vt 0.857018 0.809476
vt 0.857673 0.801704
vt 0.853086 0.856113
vt 0.852431 0.863886
vt 0.927785 0.840633
vt 0.927074 0.848543
vt 0.928496 0.832724
vt 0.929208 0.824815
vt 0.929919 0.816905
vt 0.930630 0.808996
vt 0.931341 0.801087
vt 0.926363 0.856452
vt 0.925652 0.864361
vt 0.985561 0.840685
vt 0.984805 0.848702
vt 0.986316 0.832668
vt 0.987071 0.824651
vt 0.987826 0.816635
vt 0.988582 0.808618
vt 0.989337 0.800601
vt 0.984050 0.856718
vt 0.983295 0.864735
vt 0.509504 0.245009
vt 0.428267 0.245009
vt 0.915690 0.488721
vt 0.915690 0.245009
vt 0.996927 0.245009
vt 0.996927 0.488721
vt 0.022081 0.488721
vt 0.022081 0.245009
vt 0.265793 0.245009
vt 0.265793 0.488721
vt 0.753216 0.569958
vt 0.753216 0.651195
vt 0.509504 0.488721
vt 0.753216 0.245009
vt 0.753216 0.488721
vt 0.428267 0.488721
vt 0.347030 0.245009
vt 0.347030 0.488721
vt 0.834453 0.245009
vt 0.834453 0.488721
vt 0.753216 0.163772
vt 0.753216 0.082535
vt 0.509504 0.082535
vt 0.509504 0.001298
vt 0.753216 0.001298
vt 0.509504 0.569958
vt 0.509504 0.732432
vt 0.509504 0.651195
vt 0.753216 0.732432
vt 0.509504 0.163772
vt 0.509504 0.245147
vt 0.428267 0.245147
vt 0.915690 0.488858
vt 0.915690 0.245147
vt 0.996927 0.245147
vt 0.996927 0.488858
vt 0.022081 0.488858
vt 0.022081 0.245147
vt 0.265793 0.245147
vt 0.265793 0.488858
vt 0.753216 0.570095
vt 0.753216 0.651332
vt 0.509504 0.488858
vt 0.753216 0.245147
vt 0.753216 0.488858
vt 0.428267 0.488858
vt 0.347030 0.245147
vt 0.347030 0.488858
vt 0.834453 0.245147
vt 0.834453 0.488858
vt 0.753216 0.163910
vt 0.753216 0.082673
vt 0.509504 0.082673
vt 0.509504 0.001435
vt 0.753216 0.001435
vt 0.509504 0.570095
vt 0.509504 0.732570
vt 0.509504 0.651333
vt 0.753216 0.732570
vt 0.509504 0.163910
s 1
f 1/1/1 9/2/2 16/3/3 8/4/4
f 2/5/5 10/6/6 9/2/2 1/1/1
f 3/7/7 11/8/8 10/6/6 2/5/5
f 4/9/9 12/10/10 11/8/8 3/7/7
f 5/11/11 13/12/12 12/10/10 4/9/9
f 6/13/13 14/14/14 13/12/12 5/11/11
f 7/15/15 15/16/16 14/17/14 6/18/13
f 8/4/4 16/3/3 15/16/16 7/15/15
f 9/2/2 17/19/17 24/20/18 16/3/3
f 10/6/6 18/21/19 17/19/17 9/2/2
f 11/8/8 19/22/20 18/21/19 10/6/6
f 12/10/10 20/23/21 19/22/20 11/8/8
f 13/12/12 21/24/22 20/23/21 12/10/10
f 14/14/14 22/25/23 21/24/22 13/12/12
f 15/16/16 23/26/24 22/27/23 14/17/14
f 16/3/3 24/20/18 23/26/24 15/16/16
f 17/19/17 25/28/25 32/29/26 24/20/18
f 18/21/19 26/30/27 25/28/25 17/19/17
f 19/22/20 27/31/28 26/30/27 18/21/19
f 20/23/21 28/32/29 27/31/28 19/22/20
f 21/24/22 29/33/30 28/32/29 20/23/21
f 22/25/23 30/34/31 29/33/30 21/24/22
f 23/26/24 31/35/32 30/36/31 22/27/23
f 24/20/18 32/29/26 31/35/32 23/26/24
f 25/28/25 33/37/33 40/38/34 32/29/26
f 26/30/27 34/39/35 33/37/33 25/28/25
f 27/31/28 35/40/36 34/39/35 26/30/27
f 28/32/29 36/41/37 35/40/36 27/31/28
f 29/33/30 37/42/38 36/41/37 28/32/29
f 30/34/31 38/43/39 37/42/38 29/33/30
f 31/35/32 39/44/40 38/45/39 30/36/31
f 32/29/26 40/38/34 39/44/40 31/35/32
f 33/37/33 41/46/41 48/47/42 40/38/34
f 34/39/35 42/48/43 41/46/41 33/37/33
f 35/40/36 43/49/44 42/48/43 34/39/35
f 36/41/37 44/50/45 43/49/44 35/40/36
f 37/42/38 45/51/46 44/50/45 36/41/37
f 38/43/39 46/52/47 45/51/46 37/42/38
f 39/44/40 47/53/48 46/54/47 38/45/39
f 40/38/34 48/47/42 47/53/48 39/44/40
f 41/46/41 49/55/49 56/56/50 48/47/42
f 42/48/43 50/57/51 49/55/49 41/46/41
f 43/49/44 51/58/52 50/57/51 42/48/43
f 44/50/45 52/59/53 51/58/52 43/49/44
f 45/51/46 53/60/54 52/59/53 44/50/45
f 46/52/47 54/61/55 53/60/54 45/51/46
f 47/53/48 55/62/56 54/63/55 46/54/47
f 48/47/42 56/56/50 55/62/56 47/53/48
f 49/55/49 57/64/57 64/65/58 56/56/50
f 50/57/51 58/66/59 57/64/57 49/55/49
f 51/58/52 59/67/60 58/66/59 50/57/51
f 52/59/53 60/68/61 59/67/60 51/58/52
f 53/60/54 61/69/62 60/68/61 52/59/53
f 54/61/55 62/70/63 61/69/62 53/60/54
f 55/62/56 63/71/64 62/72/63 54/63/55
f 56/56/50 64/65/58 63/71/64 55/62/56
f 57/64/57 65/73/65 72/74/66 64/65/58
f 58/66/59 66/75/67 65/73/65 57/64/57
f 59/67/60 67/76/68 66/75/67 58/66/59
f 60/68/61 68/77/69 67/76/68 59/67/60
f 61/69/62 69/78/70 68/77/69 60/68/61
f 62/70/63 70/79/71 69/78/70 61/69/62
f 63/71/64 71/80/72 70/81/71 62/72/63
f 64/65/58 72/74/66 71/80/72 63/71/64
f 65/73/65 73/82/73 80/83/74 72/74/66
f 66/75/67 74/84/75 73/82/73 65/73/65
f 67/76/68 75/85/76 74/84/75 66/75/67
f 68/77/69 76/86/77 75/85/76 67/76/68
f 69/78/70 77/87/78 76/86/77 68/77/69
f 70/79/71 78/88/79 77/87/78 69/78/70
f 71/80/72 79/89/80 78/90/79 70/81/71
f 72/74/66 80/83/74 79/89/80 71/80/72
f 73/82/73 81/91/81 88/92/82 80/83/74
f 74/84/75 82/93/83 81/91/81 73/82/73
f 75/85/76 83/94/84 82/93/83 74/84/75
f 76/86/77 84/95/85 83/94/84 75/85/76
f 77/87/78 85/96/86 84/95/85 76/86/77
f 78/88/79 86/97/87 85/96/86 77/87/78
f 79/89/80 87/98/88 86/99/87 78/90/79
f 80/83/74 88/92/82 87/98/88 79/89/80
f 81/91/81 89/100/89 96/101/90 88/92/82
f 82/93/83 90/102/91 89/100/89 81/91/81
f 83/94/84 91/103/92 90/102/91 82/93/83
f 84/95/85 92/104/93 91/103/92 83/94/84
f 85/96/86 93/105/94 92/104/93 84/95/85
f 86/97/87 94/106/95 93/105/94 85/96/86
f 87/98/88 95/107/96 94/108/95 86/99/87
f 88/92/82 96/101/90 95/107/96 87/98/88
f 89/100/89 97/109/97 104/110/98 96/101/90
f 90/102/91 98/111/99 97/109/97 89/100/89
f 91/103/92 99/112/100 98/111/99 90/102/91
f 92/104/93 100/113/101 99/112/100 91/103/92
f 93/105/94 101/114/102 100/113/101 92/104/93
f 94/106/95 102/115/103 101/114/102 93/105/94
f 95/107/96 103/116/104 102/117/103 94/108/95
f 96/101/90 104/110/98 103/116/104 95/107/96
s 0
f 105/118/105 120/119/105 135/119/105 130/118/105
f 117/120/106 116/121/106 111/122/106 112/123/106
f 112/124/107 111/125/107 109/126/107 110/127/107
f 118/128/106 117/129/106 139/129/106 132/128/106
f 106/130/108 105/118/108 107/131/108 108/132/108
f 113/133/105 120/119/105 105/118/105 106/130/105
f 110/127/105 109/126/105 119/134/105 114/135/105
f 114/135/105 119/134/105 120/119/105 113/133/105
f 109/126/107 111/125/107 129/125/107 134/126/107
f 117/120/106 112/123/106 126/123/106 139/120/106
f 108/132/106 107/131/106 115/136/106 118/137/106
f 116/121/107 117/120/107 123/120/107 122/121/107
f 110/127/105 114/135/105 127/135/105 125/127/105
f 108/132/106 118/137/106 132/137/106 133/132/106
f 124/137/106 121/136/106 122/121/106 123/120/106
f 117/129/109 118/128/109 124/128/109 123/129/109
f 115/138/110 116/139/110 122/139/110 121/138/110
f 118/137/108 115/136/108 121/136/108 124/137/108
f 140/140/110 134/141/110 129/142/110 128/139/110
f 137/143/109 136/130/109 133/132/109 132/128/109
f 125/144/109 127/145/109 139/129/109 126/146/109
f 127/145/109 137/143/109 132/128/109 139/129/109
f 130/118/110 135/147/110 138/138/110 131/131/110
f 135/147/110 140/140/110 128/139/110 138/138/110
f 119/134/105 109/126/105 134/126/105 140/134/105
f 106/130/108 108/132/108 133/132/108 136/130/108
f 120/119/105 119/134/105 140/134/105 135/119/105
f 113/133/105 106/130/105 136/130/105 137/133/105
f 114/135/105 113/133/105 137/133/105 127/135/105
f 111/122/106 116/121/106 128/121/106 129/122/106
f 115/136/106 107/131/106 131/131/106 138/136/106
f 107/131/108 105/118/108 130/118/108 131/131/108
f 112/124/107 110/127/107 125/127/107 126/124/107
f 116/139/106 115/138/106 138/138/106 128/139/106
f 141/148/111 156/149/111 171/149/111 166/148/111
f 153/150/112 152/151/112 147/152/112 148/153/112
f 148/154/113 147/155/113 145/156/113 146/157/113
f 154/158/112 153/159/112 175/159/112 168/158/112
f 142/160/114 141/148/114 143/161/114 144/162/114
f 149/163/111 156/149/111 141/148/111 142/160/111
f 146/157/115 145/156/115 155/164/115 150/165/115
f 150/165/115 155/164/115 156/149/115 149/163/115
f 145/156/113 147/155/113 165/155/113 170/156/113
f 153/150/112 148/153/112 162/153/112 175/150/112
f 144/162/112 143/161/112 151/166/112 154/167/112
f 152/151/113 153/150/113 159/150/113 158/151/113
f 146/157/115 150/165/115 163/165/115 161/157/115
f 144/162/112 154/167/112 168/167/112 169/162/112
f 160/167/112 157/166/112 158/151/112 159/150/112
f 153/159/116 154/158/116 160/158/116 159/159/116
f 151/168/117 152/169/117 158/169/117 157/168/117
f 154/167/114 151/166/114 157/166/114 160/167/114
f 176/170/117 170/171/117 165/172/117 164/169/117
f 173/173/116 172/160/116 169/162/116 168/158/116
f 161/174/116 163/175/116 175/159/116 162/176/116
f 163/175/116 173/173/116 168/158/116 175/159/116
f 166/148/117 171/177/117 174/168/117 167/161/117
f 171/177/117 176/170/117 164/169/117 174/168/117
f 155/164/115 145/156/115 170/156/115 176/164/115
f 142/160/114 144/162/114 169/162/114 172/160/114
f 156/149/115 155/164/115 176/164/115 171/149/115
f 149/163/111 142/160/111 172/160/111 173/163/111
f 150/165/115 149/163/115 173/163/115 163/165/115
f 147/152/112 152/151/112 164/151/112 165/152/112
f 151/166/112 143/161/112 167/161/112 174/166/112
f 143/161/114 141/148/114 166/148/114 167/161/114
f 148/154/113 146/157/113 161/157/113 162/154/113
f 152/169/112 151/168/112 174/168/112 164/169/112
