# Blender 4.0.2
# www.blender.org
o Cube.001
v 0.149585 0.002693 -0.015444
v 0.149585 0.192104 -0.015444
v 0.149585 0.002693 0.015443
v 0.149585 0.192104 0.015443
v 0.057465 0.002693 -0.015444
v 0.057465 0.192104 -0.015444
v 0.057465 0.002693 0.015443
v 0.057465 0.192104 0.015443
v 0.150974 0.036904 -0.020591
v 0.150974 0.036904 0.020590
v 0.056661 0.036904 0.020590
v 0.056661 0.036904 -0.020591
v 0.150974 0.159156 -0.020591
v 0.150974 0.159156 0.020590
v 0.056661 0.159156 0.020590
v 0.056661 0.159156 -0.020591
v 0.075160 0.002100 0.020590
v 0.073602 0.193556 0.022304
v 0.075160 0.002100 -0.020591
v 0.073602 0.193556 -0.022305
v 0.075160 0.036904 -0.030887
v 0.075160 0.036904 0.030886
v 0.075160 0.159156 -0.030887
v 0.075160 0.159156 0.030886
v 0.127803 0.002100 0.020590
v 0.129034 0.193556 -0.022305
v 0.127803 0.036904 -0.030887
v 0.127803 0.159156 -0.030887
v 0.129034 0.193556 0.022304
v 0.127803 0.002100 -0.020591
v 0.127803 0.036904 0.030886
v 0.127803 0.159156 0.030886
v 0.115516 0.205167 0.012474
v 0.086280 0.205167 0.012474
v 0.086280 0.205167 -0.012475
v 0.115516 0.205167 -0.012475
v 0.110434 0.242019 0.008138
v 0.091361 0.242019 0.008138
v 0.091361 0.242019 -0.008139
v 0.110434 0.242019 -0.008139
v 0.088182 0.232184 -0.010852
v 0.113613 0.232184 -0.010852
v 0.113613 0.232184 0.010851
v 0.088182 0.232184 0.010851
v 0.150498 0.002303 -0.000001
v 0.150736 0.187055 -0.019710
v 0.150498 0.192375 -0.000001
v 0.150736 0.008306 0.019708
v 0.143732 0.002202 0.019708
v 0.061099 0.192554 0.019920
v 0.056799 0.008306 0.019709
v 0.056936 0.002303 -0.000001
v 0.056936 0.192375 -0.000001
v 0.056799 0.008306 -0.019710
v 0.061491 0.002202 -0.019710
v 0.144089 0.192554 -0.019921
v 0.150736 0.008306 -0.019710
v 0.150974 0.098165 0.020590
v 0.056661 0.098165 0.020590
v 0.056661 0.098165 -0.020591
v 0.143912 0.036904 -0.029600
v 0.055454 0.036904 -0.000001
v 0.061386 0.036904 0.029599
v 0.153056 0.036904 -0.000001
v 0.150974 0.098165 -0.020591
v 0.150736 0.187055 0.019708
v 0.056799 0.187055 0.019709
v 0.056799 0.187055 -0.019710
v 0.143912 0.159156 -0.029600
v 0.055454 0.159156 -0.000001
v 0.061386 0.159156 0.029599
v 0.153056 0.159156 -0.000001
v 0.061491 0.002202 0.019709
v 0.100984 0.193621 0.027236
v 0.101044 0.002100 -0.020591
v 0.061099 0.192554 -0.019921
v 0.061386 0.036904 -0.029600
v 0.101044 0.036904 0.030886
v 0.061386 0.159156 -0.029600
v 0.101044 0.159156 0.030886
v 0.075160 0.098165 0.030886
v 0.075160 0.098165 -0.030887
v 0.075160 0.008230 0.029599
v 0.075160 0.008230 -0.029600
v 0.067469 0.194274 -0.000001
v 0.075160 0.001210 -0.000001
v 0.074961 0.187217 -0.029975
v 0.074961 0.187217 0.029974
v 0.101044 0.002100 0.020590
v 0.100984 0.193621 -0.027237
v 0.101044 0.036904 -0.030887
v 0.101044 0.159156 -0.030887
v 0.144089 0.192554 0.019920
v 0.143732 0.002202 -0.019710
v 0.143912 0.036904 0.029599
v 0.143912 0.159156 0.029599
v 0.127967 0.187217 0.029974
v 0.127803 0.001210 -0.000001
v 0.127803 0.008230 0.029599
v 0.127803 0.098165 0.030886
v 0.127803 0.098165 -0.030887
v 0.127803 0.008230 -0.029600
v 0.135424 0.194274 -0.000001
v 0.127967 0.187217 -0.029975
v 0.100898 0.205167 0.017152
v 0.080798 0.205167 -0.000001
v 0.100898 0.205167 -0.017153
v 0.120997 0.205167 -0.000001
v 0.119952 0.197390 0.016084
v 0.081930 0.197390 0.016084
v 0.081930 0.197390 -0.016085
v 0.119952 0.197390 -0.016085
v 0.100898 0.242359 0.009922
v 0.089271 0.242359 -0.000001
v 0.100898 0.242359 -0.009923
v 0.112524 0.242359 -0.000001
v 0.088726 0.239624 -0.010387
v 0.113851 0.218709 -0.011055
v 0.113069 0.239624 0.010386
v 0.087944 0.218709 0.011054
v 0.087944 0.218709 -0.011055
v 0.113069 0.239624 -0.010387
v 0.113851 0.218709 0.011054
v 0.088726 0.239624 0.010386
v 0.083413 0.232184 -0.000001
v 0.118382 0.232184 -0.000001
v 0.100898 0.232184 0.014920
v 0.100898 0.232184 -0.014921
v 0.152735 0.187082 -0.000001
v 0.061363 0.187116 0.028412
v 0.055640 0.187082 -0.000001
v 0.143908 0.187116 -0.028413
v 0.061439 0.001348 -0.000001
v 0.144672 0.193176 -0.000001
v 0.143867 0.008249 -0.028361
v 0.055640 0.008268 -0.000001
v 0.061413 0.008249 0.028360
v 0.152735 0.008268 -0.000001
v 0.143912 0.098165 -0.029600
v 0.055454 0.098165 -0.000001
v 0.061386 0.098165 0.029599
v 0.153056 0.098165 -0.000001
v 0.101044 0.098165 0.030886
v 0.061386 0.098165 -0.029600
v 0.101044 0.008230 0.029599
v 0.061413 0.008249 -0.028361
v 0.060571 0.193176 -0.000001
v 0.101044 0.001210 -0.000001
v 0.061363 0.187116 -0.028413
v 0.101035 0.187244 0.030360
v 0.143908 0.187116 0.028412
v 0.143822 0.001348 -0.000001
v 0.143867 0.008249 0.028360
v 0.143912 0.098165 0.029599
v 0.101044 0.098165 -0.030887
v 0.101044 0.008230 -0.029600
v 0.100913 0.197377 0.021798
v 0.101035 0.187244 -0.030361
v 0.100898 0.239657 -0.014293
v 0.075177 0.197446 -0.000001
v 0.126747 0.197446 -0.000001
v 0.100913 0.197377 -0.021799
v 0.100898 0.243072 -0.000001
v 0.100898 0.239657 0.014292
v 0.117646 0.239657 -0.000001
v 0.084149 0.239657 -0.000001
v 0.083086 0.218709 -0.000001
v 0.118709 0.218709 -0.000001
v 0.100898 0.218709 0.015199
v 0.100898 0.218709 -0.015200
vn 0.9267 0.0099 -0.3757
vn 0.8670 0.3029 -0.3957
vn 0.9842 0.1770 -0.0000
vn 1.0000 0.0058 -0.0000
vn 0.6142 0.7684 -0.1800
vn 0.6318 0.7751 -0.0000
vn 0.6142 0.7684 0.1800
vn 0.8670 0.3029 0.3957
vn 0.9267 0.0099 0.3757
vn -0.0509 0.0156 0.9986
vn -0.0826 0.3966 0.9143
vn -0.4949 0.3917 0.7756
vn -0.5559 0.0158 0.8311
vn -0.1624 0.8773 0.4516
vn -0.3805 0.8587 0.3433
vn -0.6995 0.7014 0.1365
vn -0.9230 0.2373 0.3031
vn -0.9630 0.0066 0.2694
vn -0.9943 0.1065 -0.0000
vn -1.0000 0.0034 -0.0000
vn -0.7036 0.7106 -0.0000
vn -0.6995 0.7014 -0.1365
vn -0.9230 0.2373 -0.3031
vn -0.9630 0.0066 -0.2694
vn 0.0438 0.0156 -0.9989
vn 0.0734 0.4001 -0.9135
vn 0.4185 0.4075 -0.8116
vn 0.4728 0.0172 -0.8810
vn 0.1474 0.8831 -0.4455
vn 0.2772 0.8946 -0.3506
vn -0.0153 -0.9469 0.3211
vn -0.3195 -0.8793 0.3532
vn -0.0982 -0.9952 -0.0000
vn -0.0051 -1.0000 -0.0000
vn -0.7056 -0.6918 0.1535
vn -0.7090 -0.7052 -0.0000
vn -0.7056 -0.6918 -0.1535
vn -0.3195 -0.8793 -0.3532
vn -0.0153 -0.9469 -0.3211
vn 0.1474 0.8831 0.4455
vn 0.2772 0.8946 0.3506
vn 0.1064 0.9943 -0.0000
vn 0.1901 0.9818 -0.0000
vn 0.0131 -0.9472 -0.3204
vn 0.0331 -0.4813 -0.8759
vn 0.4017 -0.4172 -0.8152
vn 0.2338 -0.9035 -0.3592
vn 0.0395 -0.0222 -0.9990
vn 0.4700 -0.0193 -0.8825
vn 0.9264 -0.0100 -0.3763
vn 0.8689 -0.2893 -0.4016
vn 0.6271 -0.7533 -0.1982
vn -0.9222 -0.2311 0.3099
vn -0.9954 -0.0958 -0.0000
vn -0.9628 -0.0068 0.2702
vn -1.0000 -0.0033 -0.0000
vn -0.9628 -0.0068 -0.2702
vn -0.9222 -0.2311 -0.3099
vn -0.0387 -0.4805 0.8761
vn -0.4754 -0.4062 0.7804
vn -0.0461 -0.0222 0.9987
vn -0.5527 -0.0181 0.8332
vn 0.9871 -0.1604 -0.0000
vn 0.6460 -0.7633 -0.0000
vn 1.0000 -0.0057 -0.0000
vn 0.9264 -0.0100 0.3763
vn 0.8689 -0.2893 0.4016
vn 0.6271 -0.7533 0.1982
vn 0.0398 -0.0000 -0.9992
vn 0.4731 -0.0000 -0.8810
vn 0.9276 -0.0000 -0.3735
vn -0.9636 -0.0000 0.2675
vn -1.0000 -0.0000 -0.0000
vn -0.9636 -0.0000 -0.2675
vn -0.0466 -0.0000 0.9989
vn -0.5567 -0.0000 0.8307
vn 1.0000 -0.0000 -0.0000
vn 0.9276 -0.0000 0.3735
vn 0.0395 -0.0222 0.9990
vn 0.0398 -0.0000 0.9992
vn -0.0000 -0.0000 1.0000
vn -0.0000 -0.0224 0.9997
vn 0.0438 0.0156 0.9989
vn -0.0001 0.0128 0.9999
vn -0.5567 -0.0000 -0.8307
vn -0.5527 -0.0181 -0.8332
vn -0.5559 0.0158 -0.8311
vn -0.0509 0.0156 -0.9986
vn -0.0466 -0.0000 -0.9989
vn -0.0461 -0.0222 -0.9987
vn 0.0131 -0.9472 0.3204
vn 0.0331 -0.4813 0.8759
vn -0.0000 -0.4874 0.8732
vn -0.0000 -0.9491 0.3149
vn -0.4754 -0.4062 -0.7804
vn -0.0387 -0.4805 -0.8761
vn -0.1513 0.9885 -0.0000
vn -0.2166 0.9763 -0.0000
vn -0.1624 0.8773 -0.4516
vn -0.3805 0.8587 -0.3433
vn -0.0000 -1.0000 -0.0000
vn 0.0043 -1.0000 -0.0000
vn -0.0000 -0.9491 -0.3149
vn -0.4949 0.3917 -0.7756
vn -0.0826 0.3966 -0.9143
vn 0.0734 0.4001 0.9135
vn -0.0005 0.3531 0.9356
vn -0.0010 0.7627 0.6467
vn 0.4185 0.4075 0.8116
vn 0.4728 0.0172 0.8810
vn 0.2338 -0.9035 0.3592
vn 0.0684 -0.9977 -0.0000
vn 0.4017 -0.4172 0.8152
vn 0.4700 -0.0193 0.8825
vn 0.4731 -0.0000 0.8810
vn -0.0000 -0.0000 -1.0000
vn -0.0000 -0.0224 -0.9997
vn -0.0001 0.0128 -0.9999
vn -0.0000 -0.4874 -0.8732
vn -0.0012 0.7467 0.6651
vn -0.3683 0.8116 0.4535
vn 0.3571 0.8178 0.4514
vn 0.6035 0.3991 0.6904
vn -0.0003 0.3546 0.9350
vn -0.6054 0.3964 0.6902
vn -0.0005 0.3531 -0.9356
vn -0.0010 0.7627 -0.6467
vn 0.6690 0.0580 -0.7410
vn -0.0000 0.0524 -0.9986
vn -0.0000 0.4685 -0.8835
vn 0.5882 0.4860 -0.6465
vn -0.6690 0.0580 -0.7410
vn -0.5882 0.4860 -0.6465
vn -0.2455 0.9238 -0.2936
vn -0.0000 0.9353 -0.3538
vn 0.2455 0.9238 -0.2936
vn -0.5546 0.8321 -0.0000
vn -0.3683 0.8116 -0.4535
vn -0.9093 0.4161 -0.0000
vn -0.6054 0.3964 -0.6902
vn 0.5353 0.8446 -0.0000
vn 0.3571 0.8178 -0.4514
vn 0.6035 0.3991 -0.6904
vn 0.9071 0.4209 -0.0000
vn -0.0012 0.7467 -0.6651
vn -0.0003 0.3546 -0.9350
vn -0.2455 0.9238 0.2936
vn -0.0000 0.9353 0.3538
vn -0.0000 1.0000 -0.0000
vn -0.3215 0.9469 -0.0000
vn 0.2455 0.9238 0.2936
vn 0.3215 0.9469 -0.0000
vn -0.6690 0.0580 0.7410
vn -0.0000 0.0524 0.9986
vn -0.0000 0.4685 0.8835
vn -0.5882 0.4860 0.6465
vn 0.6690 0.0580 0.7410
vn 0.5882 0.4860 0.6465
vn 0.9981 0.0611 -0.0000
vn 0.8710 0.4913 -0.0000
vn -0.9981 0.0611 -0.0000
vn -0.8710 0.4913 -0.0000
vn -0.9952 0.0975 -0.0000
vn -0.6645 0.0924 -0.7415
vn -0.6645 0.0924 0.7415
vn 0.9952 0.0975 -0.0000
vn 0.6645 0.0924 0.7415
vn 0.6645 0.0924 -0.7415
vn -0.0000 0.0829 0.9966
vn -0.0000 0.0829 -0.9966
vt 0.792728 0.071137
vt 0.707715 0.101403
vt 0.665697 0.054557
vt 0.756616 0.000244
vt 0.688664 0.102094
vt 0.651219 0.070517
vt 0.462618 0.458572
vt 0.448158 0.442596
vt 0.485640 0.411062
vt 0.504690 0.411775
vt 0.553474 0.512990
vt 0.589668 0.442140
vt 0.602414 0.152638
vt 0.511888 0.165373
vt 0.509786 0.127255
vt 0.592921 0.104349
vt 0.479959 0.158296
vt 0.484031 0.120271
vt 0.478077 0.104936
vt 0.496991 0.103795
vt 0.579252 0.068144
vt 0.451704 0.060429
vt 0.538887 0.000244
vt 0.438816 0.076297
vt 0.654323 0.452687
vt 0.641453 0.436805
vt 0.680747 0.408211
vt 0.699660 0.409374
vt 0.741436 0.512973
vt 0.781880 0.445120
vt 0.811572 0.170004
vt 0.718695 0.175547
vt 0.719154 0.129578
vt 0.804956 0.112662
vt 0.686310 0.168094
vt 0.692638 0.122077
vt 0.406575 0.574085
vt 0.409576 0.528679
vt 0.474985 0.528723
vt 0.474980 0.574189
vt 0.423721 0.515155
vt 0.474987 0.513479
vt 0.526249 0.515172
vt 0.540389 0.528699
vt 0.543373 0.574103
vt 0.483363 0.345059
vt 0.489637 0.391083
vt 0.435576 0.424354
vt 0.419480 0.394500
vt 0.638615 0.088744
vt 0.622485 0.118580
vt 0.824728 0.834521
vt 0.862480 0.830985
vt 0.863641 0.879936
vt 0.832082 0.889848
vt 0.956202 0.833704
vt 0.953271 0.888050
vt 0.946732 0.928581
vt 0.854698 0.911183
vt 0.831670 0.915732
vt 0.831133 0.416272
vt 0.854122 0.410870
vt 0.831756 0.473012
vt 0.812061 0.465821
vt 0.945522 0.429759
vt 0.927601 0.499805
vt 0.831764 0.526891
vt 0.927739 0.500294
vt 0.945504 0.570426
vt 0.853987 0.589037
vt 0.812061 0.534048
vt 0.831048 0.583620
vt 0.825318 0.347231
vt 0.862920 0.342962
vt 0.863684 0.383976
vt 0.833189 0.395248
vt 0.955516 0.347315
vt 0.952140 0.393559
vt 0.832423 0.973154
vt 0.812061 0.965140
vt 0.929092 0.999756
vt 0.832402 0.027078
vt 0.929080 0.000244
vt 0.946881 0.071425
vt 0.854811 0.088974
vt 0.812061 0.035146
vt 0.831801 0.084501
vt 0.000244 0.737648
vt 0.203587 0.737648
vt 0.203587 0.791290
vt 0.000244 0.791290
vt 0.406031 0.737648
vt 0.406031 0.791290
vt 0.406031 0.829284
vt 0.203587 0.829284
vt 0.000244 0.829284
vt 0.000244 0.346300
vt 0.203587 0.346300
vt 0.203587 0.414764
vt 0.000244 0.414764
vt 0.406031 0.346300
vt 0.406031 0.414764
vt 0.406031 0.483228
vt 0.203587 0.483228
vt 0.000244 0.483228
vt 0.000244 0.266616
vt 0.203587 0.266616
vt 0.203587 0.312534
vt 0.000244 0.312534
vt 0.406031 0.266616
vt 0.406031 0.312534
vt 0.203587 0.897979
vt 0.000244 0.897979
vt 0.406031 0.897979
vt 0.406031 0.966675
vt 0.203587 0.966675
vt 0.000244 0.966675
vt 0.000244 0.091881
vt 0.203587 0.091881
vt 0.203587 0.180702
vt 0.000244 0.180702
vt 0.406031 0.091881
vt 0.406031 0.180702
vt 0.203587 0.516994
vt 0.000244 0.516994
vt 0.406031 0.516994
vt 0.406031 0.562913
vt 0.203587 0.562913
vt 0.000244 0.562913
vt 0.825275 0.165383
vt 0.862570 0.168818
vt 0.860446 0.257809
vt 0.822996 0.257902
vt 0.956499 0.166346
vt 0.957677 0.257880
vt 0.863443 0.615869
vt 0.833098 0.604605
vt 0.952023 0.606678
vt 0.955243 0.652958
vt 0.862454 0.656611
vt 0.825358 0.652317
vt 0.431386 0.087586
vt 0.419090 0.109129
vt 0.634036 0.425507
vt 0.621765 0.403950
vt 0.682691 0.354853
vt 0.686719 0.392883
vt 0.406520 0.748927
vt 0.406520 0.660047
vt 0.474959 0.660070
vt 0.474937 0.748886
vt 0.543401 0.660079
vt 0.543362 0.748955
vt 0.712482 0.385929
vt 0.795591 0.408931
vt 0.714628 0.347814
vt 0.805140 0.360652
vt 0.608626 0.343294
vt 0.515756 0.337644
vt 0.512225 0.249494
vt 0.608738 0.246253
vt 0.488078 0.249823
vt 0.516161 0.383613
vt 0.601944 0.400629
vt 0.423618 0.821398
vt 0.409478 0.801841
vt 0.474926 0.802008
vt 0.474921 0.824368
vt 0.540378 0.801870
vt 0.526228 0.821422
vt 0.863780 0.120132
vt 0.832313 0.110343
vt 0.953495 0.111979
vt 0.000244 0.000244
vt 0.203587 0.000244
vt 0.203587 0.038238
vt 0.000244 0.038238
vt 0.406031 0.000244
vt 0.406031 0.038238
vt 0.203587 0.648826
vt 0.000244 0.648826
vt 0.406031 0.648826
vt 0.860124 0.742129
vt 0.822583 0.742074
vt 0.957200 0.741322
vt 0.465422 0.249914
vt 0.451541 0.180679
vt 0.453698 0.319549
vt 0.571548 0.611427
vt 0.608294 0.551056
vt 0.633063 0.576661
vt 0.600041 0.625927
vt 0.544727 0.676598
vt 0.579835 0.681657
vt 0.715062 0.263692
vt 0.811572 0.267045
vt 0.690915 0.263336
vt 0.588246 0.863239
vt 0.609439 0.893563
vt 0.591535 0.902644
vt 0.575018 0.877849
vt 0.621388 0.928575
vt 0.601785 0.930619
vt 0.590936 0.930488
vt 0.580745 0.908118
vt 0.568715 0.886681
vt 0.609227 0.376745
vt 0.654299 0.332437
vt 0.406520 0.136320
vt 0.543890 0.739038
vt 0.577298 0.731785
vt 0.746755 0.902645
vt 0.747593 0.965085
vt 0.714184 0.957833
vt 0.711648 0.907704
vt 0.406520 0.363254
vt 0.656616 0.193570
vt 0.609489 0.149810
vt 0.633257 0.739526
vt 0.683188 0.777104
vt 0.658420 0.802708
vt 0.619422 0.771078
vt 0.658225 0.513479
vt 0.672061 0.545031
vt 0.668260 0.263218
vt 0.719934 0.837474
vt 0.691442 0.851975
vt 0.700546 0.704441
vt 0.710738 0.682071
vt 0.738518 0.696162
vt 0.711072 0.727503
vt 0.722768 0.660633
vt 0.747593 0.655504
vt 0.552964 0.922210
vt 0.543890 0.881551
vt 0.580411 0.953550
vt 0.670095 0.702527
vt 0.682044 0.667515
vt 0.699947 0.676597
vt 0.689697 0.704572
vt 0.703237 0.637192
vt 0.716465 0.651802
vt 0.731658 0.614211
vt 0.745956 0.635503
vt 0.559824 0.840258
vt 0.545527 0.861550
vt 0.623145 0.965085
vt 0.597517 0.964044
vt 0.668338 0.739037
vt 0.693965 0.737997
vt 0.667882 0.959400
vt 0.662526 0.918979
vt 0.628956 0.692931
vt 0.623601 0.733353
vt 0.700651 0.581472
vt 0.671193 0.609660
vt 0.620290 0.835708
vt 0.590832 0.807519
vt 0.644761 0.648604
vt 0.646722 0.874652
s 1
f 13/1/1 46/2/2 129/3/3 72/4/4
f 46/2/2 2/5/5 47/6/6 129/3/3
f 129/7/3 47/8/6 4/9/7 66/10/8
f 72/11/4 129/7/3 66/10/8 14/12/9
f 24/13/10 88/14/11 130/15/12 71/16/13
f 88/14/11 18/17/14 50/18/15 130/15/12
f 130/15/12 50/18/15 8/19/16 67/20/17
f 71/16/13 130/15/12 67/20/17 15/21/18
f 15/21/18 67/20/17 131/22/19 70/23/20
f 67/20/17 8/19/16 53/24/21 131/22/19
f 131/25/19 53/26/21 6/27/22 68/28/23
f 70/29/20 131/25/19 68/28/23 16/30/24
f 28/31/25 104/32/26 132/33/27 69/34/28
f 104/32/26 26/35/29 56/36/30 132/33/27
f 132/33/27 56/36/30 2/5/5 46/2/2
f 69/34/28 132/33/27 46/2/2 13/1/1
f 17/37/31 73/38/32 133/39/33 86/40/34
f 73/38/32 7/41/35 52/42/36 133/39/33
f 133/39/33 52/42/36 5/43/37 55/44/38
f 86/40/34 133/39/33 55/44/38 19/45/39
f 29/46/40 93/47/41 134/48/42 103/49/43
f 93/47/41 4/9/7 47/8/6 134/48/42
f 134/50/42 47/6/6 2/5/5 56/36/30
f 103/51/43 134/50/42 56/36/30 26/35/29
f 30/52/44 102/53/45 135/54/46 94/55/47
f 102/53/45 27/56/48 61/57/49 135/54/46
f 135/54/46 61/57/49 9/58/50 57/59/51
f 94/55/47 135/54/46 57/59/51 1/60/52
f 7/61/35 51/62/53 136/63/54 52/64/36
f 51/62/53 11/65/55 62/66/56 136/63/54
f 136/67/54 62/68/56 12/69/57 54/70/58
f 52/71/36 136/67/54 54/70/58 5/72/37
f 17/73/31 83/74/59 137/75/60 73/76/32
f 83/74/59 22/77/61 63/78/62 137/75/60
f 137/75/60 63/78/62 11/65/55 51/62/53
f 73/76/32 137/75/60 51/62/53 7/61/35
f 1/60/52 57/59/51 138/79/63 45/80/64
f 57/59/51 9/58/50 64/81/65 138/79/63
f 138/82/63 64/83/65 10/84/66 48/85/67
f 45/86/64 138/82/63 48/85/67 3/87/68
f 27/88/48 101/89/69 139/90/70 61/91/49
f 101/89/69 28/92/25 69/93/28 139/90/70
f 139/90/70 69/93/28 13/94/1 65/95/71
f 61/91/49 139/90/70 65/95/71 9/96/50
f 11/97/55 59/98/72 140/99/73 62/100/56
f 59/98/72 15/101/18 70/102/20 140/99/73
f 140/99/73 70/102/20 16/103/24 60/104/74
f 62/100/56 140/99/73 60/104/74 12/105/57
f 22/106/61 81/107/75 141/108/76 63/109/62
f 81/107/75 24/110/10 71/111/13 141/108/76
f 141/108/76 71/111/13 15/101/18 59/98/72
f 63/109/62 141/108/76 59/98/72 11/97/55
f 9/96/50 65/95/71 142/112/77 64/113/65
f 65/95/71 13/94/1 72/114/4 142/112/77
f 142/112/77 72/114/4 14/115/9 58/116/78
f 64/113/65 142/112/77 58/116/78 10/117/66
f 31/118/79 100/119/80 143/120/81 78/121/82
f 100/119/80 32/122/83 80/123/84 143/120/81
f 143/120/81 80/123/84 24/110/10 81/107/75
f 78/121/82 143/120/81 81/107/75 22/106/61
f 12/105/57 60/104/74 144/124/85 77/125/86
f 60/104/74 16/103/24 79/126/87 144/124/85
f 144/124/85 79/126/87 23/127/88 82/128/89
f 77/125/86 144/124/85 82/128/89 21/129/90
f 25/130/91 99/131/92 145/132/93 89/133/94
f 99/131/92 31/134/79 78/135/82 145/132/93
f 145/132/93 78/135/82 22/77/61 83/74/59
f 89/133/94 145/132/93 83/74/59 17/73/31
f 5/72/37 54/70/58 146/136/95 55/137/38
f 54/70/58 12/69/57 77/138/86 146/136/95
f 146/136/95 77/138/86 21/139/90 84/140/96
f 55/137/38 146/136/95 84/140/96 19/141/39
f 8/19/16 50/18/15 147/142/97 53/24/21
f 50/18/15 18/17/14 85/143/98 147/142/97
f 147/144/97 85/145/98 20/146/99 76/147/100
f 53/26/21 147/144/97 76/147/100 6/27/22
f 25/148/91 89/149/94 148/150/101 98/151/102
f 89/149/94 17/37/31 86/40/34 148/150/101
f 148/150/101 86/40/34 19/45/39 75/152/103
f 98/151/102 148/150/101 75/152/103 30/153/44
f 16/30/24 68/28/23 149/154/104 79/155/87
f 68/28/23 6/27/22 76/147/100 149/154/104
f 149/154/104 76/147/100 20/146/99 87/156/105
f 79/155/87 149/154/104 87/156/105 23/157/88
f 32/158/83 97/159/106 150/160/107 80/161/84
f 97/159/106 29/46/40 74/162/108 150/160/107
f 150/160/107 74/162/108 18/17/14 88/14/11
f 80/161/84 150/160/107 88/14/11 24/13/10
f 14/12/9 66/10/8 151/163/109 96/164/110
f 66/10/8 4/9/7 93/47/41 151/163/109
f 151/163/109 93/47/41 29/46/40 97/159/106
f 96/164/110 151/163/109 97/159/106 32/158/83
f 3/165/68 49/166/111 152/167/112 45/168/64
f 49/166/111 25/148/91 98/151/102 152/167/112
f 152/167/112 98/151/102 30/153/44 94/169/47
f 45/168/64 152/167/112 94/169/47 1/170/52
f 3/87/68 48/85/67 153/171/113 49/172/111
f 48/85/67 10/84/66 95/173/114 153/171/113
f 153/171/113 95/173/114 31/134/79 99/131/92
f 49/172/111 153/171/113 99/131/92 25/130/91
f 10/174/66 58/175/78 154/176/115 95/177/114
f 58/175/78 14/178/9 96/179/110 154/176/115
f 154/176/115 96/179/110 32/122/83 100/119/80
f 95/177/114 154/176/115 100/119/80 31/118/79
f 21/129/90 82/128/89 155/180/116 91/181/117
f 82/128/89 23/127/88 92/182/118 155/180/116
f 155/180/116 92/182/118 28/92/25 101/89/69
f 91/181/117 155/180/116 101/89/69 27/88/48
f 19/141/39 84/140/96 156/183/119 75/184/103
f 84/140/96 21/139/90 91/185/117 156/183/119
f 156/183/119 91/185/117 27/56/48 102/53/45
f 75/184/103 156/183/119 102/53/45 30/52/44
f 18/17/14 74/162/108 157/186/120 110/187/121
f 74/162/108 29/46/40 109/188/122 157/186/120
f 157/189/120 109/190/122 33/191/123 105/192/124
f 110/193/121 157/189/120 105/192/124 34/194/125
f 23/157/88 87/156/105 158/195/126 92/196/118
f 87/156/105 20/146/99 90/197/127 158/195/126
f 158/195/126 90/197/127 26/35/29 104/32/26
f 92/196/118 158/195/126 104/32/26 28/31/25
f 42/198/128 128/199/129 159/200/130 122/201/131
f 128/199/129 41/202/132 117/203/133 159/200/130
f 159/200/130 117/203/133 39/204/134 115/205/135
f 122/201/131 159/200/130 115/205/135 40/206/136
f 20/146/99 85/145/98 160/207/137 111/208/138
f 85/143/98 18/17/14 110/187/121 160/209/137
f 160/210/137 110/193/121 34/194/125 106/211/139
f 111/212/138 160/213/137 106/214/139 35/215/140
f 29/46/40 103/49/43 161/216/141 109/188/122
f 103/51/43 26/35/29 112/217/142 161/218/141
f 161/219/141 112/220/142 36/221/143 108/222/144
f 109/190/122 161/223/141 108/224/144 33/191/123
f 26/35/29 90/197/127 162/225/145 112/217/142
f 90/197/127 20/146/99 111/208/138 162/225/145
f 162/226/145 111/212/138 35/215/140 107/227/146
f 112/220/142 162/226/145 107/227/146 36/221/143
f 38/228/147 113/229/148 163/230/149 114/231/150
f 113/229/148 37/232/151 116/233/152 163/230/149
f 163/234/149 116/235/152 40/206/136 115/205/135
f 114/236/150 163/234/149 115/205/135 39/204/134
f 44/237/153 127/238/154 164/239/155 124/240/156
f 127/238/154 43/241/157 119/242/158 164/239/155
f 164/239/155 119/242/158 37/232/151 113/229/148
f 124/240/156 164/239/155 113/229/148 38/228/147
f 43/241/157 126/243/159 165/244/160 119/242/158
f 126/245/159 42/198/128 122/201/131 165/246/160
f 165/246/160 122/201/131 40/206/136 116/235/152
f 119/242/158 165/244/160 116/233/152 37/232/151
f 41/202/132 125/247/161 166/248/162 117/203/133
f 125/249/161 44/237/153 124/240/156 166/250/162
f 166/250/162 124/240/156 38/228/147 114/231/150
f 117/203/133 166/248/162 114/236/150 39/204/134
f 35/215/140 106/214/139 167/251/163 121/252/164
f 106/211/139 34/194/125 120/253/165 167/254/163
f 167/254/163 120/253/165 44/237/153 125/249/161
f 121/252/164 167/251/163 125/247/161 41/202/132
f 33/191/123 108/224/144 168/255/166 123/256/167
f 108/222/144 36/221/143 118/257/168 168/258/166
f 168/258/166 118/257/168 42/198/128 126/245/159
f 123/256/167 168/255/166 126/243/159 43/241/157
f 34/194/125 105/192/124 169/259/169 120/253/165
f 105/192/124 33/191/123 123/256/167 169/259/169
f 169/259/169 123/256/167 43/241/157 127/238/154
f 120/253/165 169/259/169 127/238/154 44/237/153
f 36/221/143 107/227/146 170/260/170 118/257/168
f 107/227/146 35/215/140 121/252/164 170/260/170
f 170/260/170 121/252/164 41/202/132 128/199/129
f 118/257/168 170/260/170 128/199/129 42/198/128
