# Blender 4.1.1
# www.blender.org
o Cube.001
v 1.467350 -0.067555 -1.467350
v 1.467350 -0.067555 1.467350
v -1.467350 -0.067555 -1.467350
v -1.467350 -0.067555 1.467350
v 0.784792 1.467350 -0.784792
v 1.467350 0.784792 -1.467350
v 1.045996 1.415394 -1.045996
v 1.267434 1.267434 -1.267434
v 1.415394 1.045996 -1.415394
v 0.784792 1.467350 0.784792
v 1.467350 0.784792 1.467350
v 1.045996 1.415394 1.045996
v 1.267434 1.267434 1.267434
v 1.415394 1.045996 1.415394
v -0.784792 1.467350 -0.784792
v -1.467350 0.784792 -1.467350
v -1.045996 1.415394 -1.045996
v -1.267434 1.267434 -1.267434
v -1.415394 1.045996 -1.415394
v -0.784792 1.467350 0.784792
v -1.467350 0.784792 1.467350
v -1.045996 1.415394 1.045996
v -1.267434 1.267434 1.267434
v -1.415394 1.045996 1.415394
v 0.435057 3.184196 0.435057
v -0.435057 3.184196 0.435057
v 0.435057 3.184196 -0.435057
v -0.435057 3.184196 -0.435057
v 1.018559 4.581593 1.018559
v -1.018559 4.581593 1.018559
v 1.018559 4.581593 -1.018559
v -1.018559 4.581593 -1.018559
v 1.468354 4.941245 1.468354
v -1.468354 4.941245 1.468354
v 1.468354 4.941245 -1.468354
v -1.468354 4.941245 -1.468354
v 1.468354 5.312706 1.468354
v -1.468354 5.312706 1.468354
v 1.468354 5.312706 -1.468354
v -1.468354 5.312706 -1.468354
v -0.933515 5.308123 0.937426
v -0.933515 6.818006 0.937426
v -0.933515 5.308123 0.376589
v -0.933515 6.818006 0.376589
v -0.372678 5.308123 0.937426
v -0.372678 6.818006 0.937426
v -0.372678 5.308123 0.376589
v -0.372678 6.818006 0.376589
v 0.319343 5.308123 0.937426
v 0.319343 6.837598 0.937426
v 0.319343 5.308123 -0.392948
v 0.319343 5.308123 -0.953786
v 0.880180 5.308123 -0.392948
v 0.880180 5.308123 -0.953786
v 0.319343 6.855701 -0.392948
v 0.319343 6.855701 -0.953786
v 0.880180 6.855701 -0.953786
v 0.880180 6.855701 -0.392948
v -0.962388 5.308123 -0.392948
v -0.962388 6.818335 -0.392948
v -0.962388 5.308123 -0.953786
v -0.962388 6.818335 -0.953786
v -0.401551 5.308123 -0.392948
v -0.401551 6.818335 -0.392948
v -0.401551 5.308123 -0.953786
v -0.401551 6.818335 -0.953786
v -1.734884 7.177759 -1.657099
v -1.734884 7.177759 1.578625
v 1.691468 7.177759 -1.657099
v 1.691468 7.177759 1.578625
v -1.734884 6.759276 -1.657099
v -1.734884 6.759276 1.578625
v 1.691468 6.759276 -1.657099
v 1.691468 6.759276 1.578625
v -1.650488 7.177759 -1.627874
v -1.650488 7.177759 1.549399
v 1.607072 7.177759 1.549399
v 1.607072 7.177759 -1.627874
v -0.627944 7.647105 -1.273782
v -1.650488 7.522215 -1.627874
v -1.019255 7.637598 -1.409287
v -1.350992 7.610526 -1.524163
v -1.572651 7.570008 -1.600921
v -1.650488 7.522215 1.549399
v -0.627944 7.647105 1.195308
v -1.572651 7.570008 1.522446
v -1.350992 7.610526 1.445689
v -1.019254 7.637598 1.330813
v 0.584529 7.647105 -1.273782
v 1.607072 7.522215 -1.627874
v 0.975839 7.637598 -1.409287
v 1.307576 7.610525 -1.524163
v 1.529236 7.570008 -1.600920
v 1.607072 7.522215 1.549399
v 0.584529 7.647105 1.195308
v 1.529235 7.570008 1.522446
v 1.307576 7.610525 1.445689
v 0.975839 7.637598 1.330813
v -0.627944 7.906885 1.195308
v -0.627944 7.906885 -1.273782
v 0.584529 7.906885 -1.273782
v 0.584529 7.906885 1.195308
v -0.767429 8.105245 1.479356
v -0.767429 8.105245 -1.557830
v 0.724014 8.105245 -1.557830
v 0.724014 8.105245 1.479356
v -1.222981 8.278600 1.600335
v -1.222981 8.278600 -1.655146
v 1.190330 8.278600 -1.655146
v 1.190330 8.278600 1.600335
v -1.222981 8.543633 1.600335
v -1.222981 8.543633 -1.655146
v 1.190330 8.543633 -1.655146
v 1.190330 8.543633 1.600335
v -0.562959 8.818295 1.062972
v -0.562959 8.818295 -1.141447
v 0.519544 8.818295 -1.141447
v 0.519544 8.818295 1.062972
v -0.205638 9.080184 0.335320
v -0.205638 9.080184 -0.413794
v 0.162223 9.080184 -0.413794
v 0.162223 9.080184 0.335320
v -0.085647 9.277548 0.090971
v -0.085647 9.277548 -0.169445
v 0.042232 9.277548 -0.169445
v 0.042232 9.277548 0.090971
v 0.319343 5.308123 0.376589
v 0.880180 5.308123 0.376589
v 0.319343 5.308123 0.937427
v 0.880180 5.308123 0.937426
v 0.319343 6.855701 0.376589
v 0.880180 6.855701 0.376589
v 0.880180 6.855701 0.937426
v 0.319343 6.855701 0.937427
vn -0.0000 -0.0000 1.0000
vn -1.0000 -0.0000 -0.0000
vn -0.9799 0.1996 -0.0000
vn 1.0000 -0.0000 -0.0000
vn -0.0000 0.9808 0.1951
vn -0.0000 0.8315 0.5556
vn -0.0000 0.5556 0.8315
vn -0.0000 0.1951 0.9808
vn 0.1951 0.9808 -0.0000
vn 0.5556 0.8315 -0.0000
vn 0.8315 0.5556 -0.0000
vn 0.9808 0.1951 -0.0000
vn -0.1951 0.9808 -0.0000
vn -0.5556 0.8315 -0.0000
vn -0.8315 0.5556 -0.0000
vn -0.9808 0.1951 -0.0000
vn -0.0000 0.9808 -0.1951
vn -0.0000 0.8315 -0.5556
vn -0.0000 0.5556 -0.8315
vn -0.0000 0.1951 -0.9808
vn -0.0000 -0.0000 -1.0000
vn -0.9228 -0.3853 -0.0000
vn -0.0000 0.1996 -0.9799
vn 0.9799 0.1996 -0.0000
vn -0.0000 0.1996 0.9799
vn -0.0000 -0.7810 0.6245
vn -0.0000 -0.3853 0.9228
vn -0.0000 -0.3853 -0.9228
vn 0.9228 -0.3853 -0.0000
vn -0.0000 -0.7810 -0.6245
vn 0.6245 -0.7810 -0.0000
vn -0.6245 -0.7810 -0.0000
vn -0.0000 1.0000 -0.0000
vn -0.5232 0.8522 -0.0000
vn -0.1798 0.9837 -0.0000
vn -0.0813 0.9967 -0.0000
vn -0.0243 0.9997 -0.0000
vn -0.0000 0.4912 -0.8710
vn -0.0000 0.8844 -0.4668
vn -0.0000 0.9733 -0.2294
vn -0.0000 0.9975 -0.0700
vn -0.0000 0.4912 0.8710
vn -0.0000 0.8844 0.4668
vn -0.0000 0.9733 0.2294
vn -0.0000 0.9975 0.0700
vn 0.5232 0.8522 -0.0000
vn 0.1798 0.9837 -0.0000
vn 0.0813 0.9967 -0.0000
vn 0.0243 0.9997 -0.0000
vn 0.3485 -0.9373 -0.0000
vn -0.8180 -0.5752 -0.0000
vn 0.8180 -0.5752 -0.0000
vn -0.3557 -0.9346 -0.0000
vn -0.0000 0.8904 0.4551
vn 0.5911 0.8066 -0.0000
vn -0.3842 0.9232 -0.0000
vn 0.3789 0.9254 -0.0000
vn -0.0000 0.8819 -0.4715
vn -0.0000 0.7779 0.6283
vn -0.0000 0.9409 -0.3386
vn -0.0000 0.9409 0.3386
vn -0.5911 0.8066 -0.0000
vn -0.8545 0.5195 -0.0000
vn 0.8545 0.5195 -0.0000
vn -0.0000 0.7779 -0.6283
vn -0.0000 -0.4895 -0.8720
vn -0.0000 -0.8199 -0.5725
vn -0.0000 -0.8199 0.5725
vn -0.0000 -0.5723 0.8201
vt 0.017253 0.014293
vt 0.054048 0.014293
vt 0.054048 0.140980
vt 0.017253 0.140980
vt 0.054048 0.267667
vt 0.017253 0.267667
vt 0.673085 0.614982
vt 0.785154 0.624786
vt 0.764264 0.801433
vt 0.651763 0.817351
vt 0.017253 0.394353
vt 0.054048 0.394353
vt 0.054048 0.521040
vt 0.017253 0.521040
vt 0.319996 0.192524
vt 0.239863 0.174657
vt 0.234357 0.159511
vt 0.336363 0.181901
vt 0.228794 0.145405
vt 0.350907 0.170476
vt 0.222791 0.131427
vt 0.361694 0.157773
vt 0.215980 0.116542
vt 0.367352 0.143407
vt 0.239648 0.306529
vt 0.320722 0.290530
vt 0.337315 0.302140
vt 0.232784 0.321465
vt 0.351885 0.314664
vt 0.226397 0.335641
vt 0.362598 0.328561
vt 0.219985 0.350015
vt 0.367352 0.342088
vt 0.213912 0.364533
vt 0.195929 0.240165
vt 0.179933 0.239508
vt 0.164672 0.239127
vt 0.148993 0.238986
vt 0.132782 0.239518
vt 0.795462 0.992840
vt 0.621640 0.998871
vt 0.546480 0.607443
vt 0.538286 0.818349
vt 0.384150 0.625735
vt 0.440739 0.802866
vt 0.891187 0.639696
vt 0.858877 0.774523
vt 0.464303 0.490150
vt 0.564853 0.536094
vt 0.572864 0.582260
vt 0.438477 0.511895
vt 0.990928 0.890518
vt 0.474293 0.963886
vt 0.352127 0.890798
vt 0.443043 0.286937
vt 0.395867 0.396523
vt 0.376319 0.397715
vt 0.427858 0.273267
vt 0.463113 0.308347
vt 0.427378 0.398379
vt 0.562172 0.268803
vt 0.572864 0.232068
vt 0.563780 0.210976
vt 0.425061 0.524944
vt 0.563401 0.599759
vt 0.574831 0.517714
vt 0.574831 0.284544
vt 0.808000 0.284544
vt 0.808000 0.517714
vt 0.817428 0.461194
vt 0.997468 0.461194
vt 0.997468 0.528069
vt 0.817428 0.528069
vt 0.997468 0.594944
vt 0.817428 0.594944
vt 0.817428 0.327444
vt 0.997468 0.327444
vt 0.997468 0.394319
vt 0.817428 0.394319
vt 0.996129 0.319298
vt 0.815075 0.319298
vt 0.815075 0.254304
vt 0.996129 0.254304
vt 0.815075 0.189310
vt 0.996129 0.189310
vt 0.815075 0.124317
vt 0.996129 0.124317
vt 0.815075 0.059323
vt 0.996129 0.059323
vt 0.817452 0.394319
vt 0.998248 0.394319
vt 0.998248 0.461194
vt 0.817452 0.461194
vt 0.998248 0.528069
vt 0.817452 0.528069
vt 0.998248 0.594944
vt 0.817452 0.594944
vt 0.817452 0.327444
vt 0.998248 0.327444
vt 0.489610 0.028396
vt 0.328327 0.028396
vt 0.328327 0.007537
vt 0.489610 0.007537
vt 0.660395 0.007537
vt 0.821678 0.007537
vt 0.821678 0.028396
vt 0.660395 0.028396
vt 0.992463 0.007537
vt 0.992463 0.028396
vt 0.799648 0.265016
vt 0.589434 0.265016
vt 0.591333 0.259533
vt 0.797750 0.259533
vt 0.589434 0.042418
vt 0.591332 0.047901
vt 0.589434 0.042417
vt 0.799648 0.042417
vt 0.797750 0.047900
vt 0.591332 0.047899
vt 0.090921 0.138491
vt 0.090921 0.264172
vt 0.077631 0.264172
vt 0.077631 0.138491
vt 0.090921 0.386755
vt 0.090921 0.512435
vt 0.077631 0.512435
vt 0.077631 0.386755
vt 0.090921 0.015909
vt 0.077631 0.015909
vt 0.083077 0.547160
vt 0.131567 0.547160
vt 0.131567 0.552261
vt 0.083077 0.552261
vt 0.331655 0.548037
vt 0.176971 0.561867
vt 0.178871 0.557050
vt 0.328889 0.543747
vt 0.181242 0.545886
vt 0.324523 0.532916
vt 0.184185 0.529219
vt 0.318694 0.516934
vt 0.187539 0.509299
vt 0.311914 0.497786
vt 0.331655 0.387122
vt 0.328957 0.391450
vt 0.324510 0.402232
vt 0.318647 0.418213
vt 0.311843 0.437302
vt 0.148031 0.402124
vt 0.151565 0.405604
vt 0.157835 0.415799
vt 0.166614 0.431157
vt 0.176800 0.449314
vt 0.172978 0.372190
vt 0.173895 0.376878
vt 0.176825 0.389068
vt 0.181178 0.406506
vt 0.186395 0.426983
vt 0.059266 0.547160
vt 0.059266 0.552261
vt 0.155378 0.547160
vt 0.155378 0.552261
vt 0.010776 0.547160
vt 0.010776 0.552261
vt 0.507835 0.083932
vt 0.429583 0.123506
vt 0.426014 0.111510
vt 0.503177 0.066293
vt 0.137145 0.557024
vt 0.077499 0.557024
vt 0.064844 0.557024
vt 0.005198 0.557024
vt 0.412815 0.166779
vt 0.405900 0.168085
vt 0.418895 0.106901
vt 0.419553 0.159958
vt 0.455463 0.211959
vt 0.445286 0.216818
vt 0.003118 0.564617
vt 0.323969 0.564617
vt 0.234788 0.636060
vt 0.090869 0.636060
vt 0.507835 0.223606
vt 0.506938 0.230692
vt 0.442412 0.222524
vt 0.498388 0.058204
vt 0.234788 0.929138
vt 0.187282 0.832397
vt 0.187282 0.732802
vt 0.003118 0.997435
vt 0.090869 0.929139
vt 0.323969 0.997435
vt 0.138375 0.732802
vt 0.171329 0.765288
vt 0.154327 0.765288
vt 0.138375 0.832397
vt 0.154327 0.799910
vt 0.171329 0.799910
vt 0.816891 0.059323
vt 0.996235 0.059323
vt 0.996235 0.124317
vt 0.816891 0.124317
vt 0.996235 0.189310
vt 0.816891 0.189310
vt 0.996235 0.254304
vt 0.816891 0.254304
vt 0.996235 0.319298
vt 0.816891 0.319298
vt 0.056527 0.559065
vt 0.085816 0.559065
vt 0.158117 0.559065
vt 0.128827 0.559065
vt 0.494186 0.215329
s 0
f 2/1/1 11/2/1 21/3/1 4/4/1
f 4/4/2 21/3/2 16/5/2 3/6/2
f 15/7/3 20/8/3 26/9/3 28/10/3
f 1/11/4 6/12/4 11/13/4 2/14/4
f 10/15/5 20/16/5 22/17/5 12/18/5
f 12/18/6 22/17/6 23/19/6 13/20/6
f 13/20/7 23/19/7 24/21/7 14/22/7
f 14/22/8 24/21/8 21/23/8 11/24/8
f 5/25/9 10/26/9 12/27/9 7/28/9
f 7/28/10 12/27/10 13/29/10 8/30/10
f 8/30/11 13/29/11 14/31/11 9/32/11
f 9/32/12 14/31/12 11/33/12 6/34/12
f 20/16/13 15/35/13 17/36/13 22/17/13
f 22/17/14 17/36/14 18/37/14 23/19/14
f 23/19/15 18/37/15 19/38/15 24/21/15
f 24/21/16 19/38/16 16/39/16 21/23/16
f 15/35/17 5/25/17 7/28/17 17/36/17
f 17/36/18 7/28/18 8/30/18 18/37/18
f 18/37/19 8/30/19 9/32/19 19/38/19
f 19/38/20 9/32/20 6/34/20 16/39/20
f 3/6/21 16/5/21 6/12/21 1/11/21
f 28/10/22 26/9/22 30/40/22 32/41/22
f 5/42/23 15/7/23 28/10/23 27/43/23
f 10/44/24 5/42/24 27/43/24 25/45/24
f 20/8/25 10/46/25 25/47/25 26/9/25
f 30/48/26 29/49/26 33/50/26 34/51/26
f 26/9/27 25/47/27 29/52/27 30/40/27
f 27/43/28 28/10/28 32/41/28 31/53/28
f 25/45/29 27/43/29 31/53/29 29/54/29
f 35/55/21 36/56/21 40/57/21 39/58/21
f 31/59/30 32/60/30 36/56/30 35/55/30
f 29/61/31 31/59/31 35/55/31 33/62/31
f 32/60/32 30/48/32 34/51/32 36/56/32
f 33/62/4 35/55/4 39/58/4 37/63/4
f 36/56/2 34/51/2 38/64/2 40/57/2
f 34/51/1 33/50/1 37/65/1 38/64/1
f 37/66/33 39/67/33 40/68/33 38/69/33
f 41/70/2 42/71/2 44/72/2 43/73/2
f 43/73/21 44/72/21 48/74/21 47/75/21
f 47/76/4 48/77/4 46/78/4 45/79/4
f 45/79/1 46/78/1 42/71/1 41/70/1
f 51/80/2 55/81/2 56/82/2 52/83/2
f 52/83/21 56/82/21 57/84/21 54/85/21
f 54/85/4 57/84/4 58/86/4 53/87/4
f 53/87/1 58/86/1 55/88/1 51/89/1
f 59/90/2 60/91/2 62/92/2 61/93/2
f 61/93/21 62/92/21 66/94/21 65/95/21
f 65/95/4 66/94/4 64/96/4 63/97/4
f 63/98/1 64/99/1 60/91/1 59/90/1
f 69/100/4 70/101/4 74/102/4 73/103/4
f 71/104/2 72/105/2 68/106/2 67/107/2
f 69/100/21 73/103/21 71/104/21 67/107/21
f 74/108/1 70/109/1 68/106/1 72/105/1
f 67/110/33 68/111/33 76/112/33 75/113/33
f 68/111/33 70/114/33 77/115/33 76/112/33
f 70/116/33 69/117/33 78/118/33 77/119/33
f 69/117/33 67/110/33 75/113/33 78/118/33
f 78/120/21 75/121/21 80/122/21 90/123/21
f 76/124/1 77/125/1 94/126/1 84/127/1
f 77/128/4 78/120/4 90/123/4 94/129/4
f 79/130/2 85/131/2 99/132/2 100/133/2
f 80/134/34 84/135/34 86/136/34 83/137/34
f 83/137/35 86/136/35 87/138/35 82/139/35
f 82/139/36 87/138/36 88/140/36 81/141/36
f 81/141/37 88/140/37 85/142/37 79/143/37
f 90/144/38 80/134/38 83/137/38 93/145/38
f 93/145/39 83/137/39 82/139/39 92/146/39
f 92/146/40 82/139/40 81/141/40 91/147/40
f 91/147/41 81/141/41 79/143/41 89/148/41
f 84/135/42 94/149/42 96/150/42 86/136/42
f 86/136/43 96/150/43 97/151/43 87/138/43
f 87/138/44 97/151/44 98/152/44 88/140/44
f 88/140/45 98/152/45 95/153/45 85/142/45
f 94/154/46 90/144/46 93/145/46 96/155/46
f 96/155/47 93/145/47 92/146/47 97/156/47
f 97/156/48 92/146/48 91/147/48 98/157/48
f 98/157/49 91/147/49 89/148/49 95/158/49
f 75/121/2 76/124/2 84/127/2 80/122/2
f 89/159/21 79/130/21 100/133/21 101/160/21
f 85/131/1 95/161/1 102/162/1 99/132/1
f 95/163/4 89/159/4 101/160/4 102/164/4
f 106/165/50 105/166/50 109/167/50 110/168/50
f 100/133/51 99/132/51 103/169/51 104/170/51
f 102/164/52 101/160/52 105/171/52 106/172/52
f 109/167/21 108/173/21 112/174/21 113/175/21
f 104/176/53 103/177/53 107/178/53 108/173/53
f 111/179/54 114/180/54 118/181/54 115/182/54
f 107/178/1 110/183/1 114/184/1 111/185/1
f 108/173/2 107/178/2 111/185/2 112/174/2
f 110/168/4 109/167/4 113/175/4 114/186/4
f 118/181/55 117/187/55 121/188/55 122/189/55
f 112/190/56 111/179/56 115/182/56 116/191/56
f 114/180/57 113/192/57 117/187/57 118/181/57
f 113/192/58 112/190/58 116/191/58 117/187/58
f 119/193/59 122/189/59 126/194/59 123/195/59
f 117/187/60 116/191/60 120/196/60 121/188/60
f 115/182/61 118/181/61 122/189/61 119/193/61
f 116/191/62 115/182/62 119/193/62 120/196/62
f 124/197/33 123/195/33 126/194/33 125/198/33
f 120/196/63 119/193/63 123/195/63 124/197/63
f 122/189/64 121/188/64 125/198/64 126/194/64
f 121/188/65 120/196/65 124/197/65 125/198/65
f 127/199/21 131/200/21 132/201/21 128/202/21
f 128/202/4 132/201/4 133/203/4 130/204/4
f 130/204/1 133/203/1 134/205/1 129/206/1
f 129/206/2 134/205/2 131/207/2 127/208/2
f 109/167/66 105/166/66 104/176/66 108/173/66
f 105/209/67 101/160/67 100/133/67 104/210/67
f 102/162/68 106/211/68 103/212/68 99/132/68
f 103/177/69 106/213/69 110/183/69 107/178/69
l 49 50
