# Blender 4.0.2
# www.blender.org
o contenedor_azul
v 0.250009 0.384768 0.889670
v 1.266056 0.384768 0.889670
v 0.250009 2.556296 1.397693
v 1.266056 2.556296 1.397693
v 0.250009 1.960394 0.889670
v 1.266056 1.960394 0.889670
v 0.250009 2.409770 0.940560
v 1.266056 2.409770 0.940560
v 0.250009 2.556296 1.222633
v 0.250009 2.543051 1.156048
v 1.266056 2.543051 1.156048
v 1.266056 2.556296 1.222633
v 0.250009 2.501409 1.055514
v 0.250009 2.454459 0.985249
v 1.266056 2.454459 0.985249
v 1.266056 2.501409 1.055514
v 0.250009 2.324028 0.905044
v 0.250009 2.246735 0.889670
v 1.266056 2.246735 0.889670
v 1.266056 2.324028 0.905044
v 0.250009 0.384768 1.905717
v 1.266056 0.384768 1.905717
v 0.250009 1.960394 1.905717
v 1.266056 1.960394 1.905717
v 0.250009 2.409770 1.854827
v 1.266056 2.409770 1.854827
v 0.250009 2.556296 1.572754
v 0.250009 2.543051 1.639339
v 1.266056 2.543051 1.639339
v 1.266056 2.556296 1.572754
v 0.250009 2.501409 1.739872
v 0.250009 2.454459 1.810137
v 1.266056 2.454459 1.810137
v 1.266056 2.501409 1.739872
v 0.250009 2.324028 1.890343
v 0.250009 2.246735 1.905717
v 1.266056 2.246735 1.905717
v 1.266056 2.324028 1.890343
v 1.266056 1.978803 0.912980
v 1.266056 1.978803 1.397693
v 1.266056 2.547363 1.230665
v 1.266056 2.534726 1.167135
v 1.266056 2.547363 1.397693
v 1.266056 2.494995 1.071215
v 1.266056 2.450199 1.004174
v 1.266056 2.407560 0.961535
v 1.266056 2.325752 0.927649
v 1.266056 2.252006 0.912980
v 1.266056 1.978803 1.882407
v 1.266056 2.547363 1.564722
v 1.266056 2.534726 1.628251
v 1.266056 2.494995 1.724172
v 1.266056 2.450199 1.791213
v 1.266056 2.407560 1.833852
v 1.266056 2.325752 1.867738
v 1.266056 2.252006 1.882407
v 1.242434 1.978803 0.912980
v 1.242434 1.978803 1.397693
v 1.242434 2.547363 1.230665
v 1.242434 2.534726 1.167135
v 1.242434 2.547363 1.397693
v 1.242434 2.494995 1.071215
v 1.242434 2.450199 1.004174
v 1.242434 2.407560 0.961535
v 1.242434 2.325752 0.927649
v 1.242434 2.252006 0.912980
v 1.242434 1.978803 1.882407
v 1.242434 2.547363 1.564722
v 1.242434 2.534726 1.628251
v 1.242434 2.494995 1.724172
v 1.242434 2.450199 1.791213
v 1.242434 2.407560 1.833852
v 1.242434 2.325752 1.867738
v 1.242434 2.252006 1.882407
v 1.242434 2.009042 0.951268
v 1.242434 2.009042 1.397693
v 1.242434 2.532690 1.243859
v 1.242434 2.521051 1.185348
v 1.242434 2.532690 1.397693
v 1.242434 2.484458 1.097004
v 1.242434 2.443201 1.035258
v 1.242434 2.403930 0.995987
v 1.242434 2.328585 0.964778
v 1.242434 2.260664 0.951268
v 1.242434 2.009042 1.844119
v 1.242434 2.532690 1.551528
v 1.242434 2.521051 1.610039
v 1.242434 2.484458 1.698383
v 1.242434 2.443201 1.760128
v 1.242434 2.403930 1.799399
v 1.242434 2.328585 1.830609
v 1.242434 2.260664 1.844119
v 1.224630 2.009042 0.951268
v 1.224630 2.009042 1.397693
v 1.224630 2.532690 1.243859
v 1.224630 2.521051 1.185348
v 1.224630 2.532690 1.397693
v 1.224630 2.484458 1.097004
v 1.224630 2.443201 1.035258
v 1.224630 2.403930 0.995987
v 1.224630 2.328585 0.964778
v 1.224630 2.260664 0.951268
v 1.224630 2.009042 1.844119
v 1.224630 2.532690 1.551528
v 1.224630 2.521051 1.610039
v 1.224630 2.484458 1.698383
v 1.224630 2.443201 1.760128
v 1.224630 2.403930 1.799399
v 1.224630 2.328585 1.830609
v 1.224630 2.260664 1.844119
v 1.266056 0.411954 0.907201
v 1.266056 0.411954 1.888186
v 1.266056 1.933208 0.907201
v 1.266056 1.933208 1.888186
v 1.280489 0.411954 0.907201
v 1.280489 0.411954 1.888186
v 1.350918 1.933208 0.907201
v 1.350918 1.933208 1.888186
v 1.224630 2.521051 1.397693
v 1.224630 2.484458 1.397693
v 1.224630 2.443201 1.397693
v 1.224630 2.403930 1.397693
v 1.224630 2.328585 1.397693
v 1.224630 2.260664 1.397693
vn -0.0000 -0.0000 -1.0000
vn -0.0000 1.0000 -0.0000
vn 1.0000 -0.0000 -0.0000
vn -0.0000 0.9808 -0.1951
vn -0.0000 0.7071 -0.7071
vn -0.0000 0.8315 -0.5556
vn -0.0000 0.9239 -0.3827
vn -0.0000 0.1951 -0.9808
vn -0.0000 0.3827 -0.9239
vn -0.0000 -0.0000 1.0000
vn -0.0000 -0.9808 -0.1951
vn -1.0000 -0.0000 -0.0000
vn -0.0000 0.9808 0.1951
vn -0.0000 0.7071 0.7071
vn -0.0000 0.8315 0.5556
vn -0.0000 0.9239 0.3827
vn -0.0000 0.1951 0.9808
vn -0.0000 0.3827 0.9239
vn -0.0000 -0.8315 0.5556
vn -0.0000 -1.0000 -0.0000
vn -0.0000 -0.9239 0.3827
vn -0.0000 -0.8315 -0.5556
vn -0.0000 -0.7071 0.7071
vn -0.0000 -0.9239 -0.3827
vn -0.0000 -0.1951 0.9808
vn -0.0000 -0.7071 -0.7071
vn -0.0000 -0.3827 0.9239
vn -0.0000 -0.1951 -0.9808
vn -0.0000 -0.9808 0.1951
vn -0.0000 -0.3827 -0.9239
vn 0.9989 -0.0462 -0.0000
vt 0.000147 0.999853
vt 0.000147 0.688932
vt 0.200646 0.688932
vt 0.200646 0.999853
vt 0.200646 0.534545
vt 0.000147 0.534545
vt 0.000147 0.500000
vt 0.200646 0.500000
vt 0.813496 0.034107
vt 0.842679 0.037592
vt 0.843749 0.044424
vt 0.815903 0.040438
vt 0.725924 0.193584
vt 0.725998 0.305292
vt 0.721506 0.310115
vt 0.721506 0.057667
vt 0.726456 0.062754
vt 0.000147 0.632427
vt 0.200646 0.632427
vt 0.200646 0.547942
vt 0.000147 0.547942
vt 0.000147 0.586091
vt 0.200646 0.586091
vt 0.200646 0.598562
vt 0.000147 0.598562
vt 0.000147 0.569415
vt 0.200646 0.569415
vt 0.000147 0.616876
vt 0.200646 0.616876
vt 0.000147 0.000147
vt 0.200646 0.000147
vt 0.200646 0.311068
vt 0.000147 0.311068
vt 0.330024 0.310115
vt 0.336779 0.305759
vt 0.714751 0.305759
vt 0.200646 0.465455
vt 0.000147 0.465455
vt 0.903365 0.245078
vt 0.896235 0.267291
vt 0.888797 0.263980
vt 0.895532 0.243515
vt 0.862761 0.361030
vt 0.888496 0.366149
vt 0.917044 0.377974
vt 0.931924 0.392854
vt 0.947556 0.416250
vt 0.961422 0.449723
vt 0.965831 0.471893
vt 0.965831 0.530180
vt 0.965831 0.588468
vt 0.961422 0.610638
vt 0.947556 0.644111
vt 0.931924 0.667506
vt 0.917044 0.682386
vt 0.888496 0.694211
vt 0.862761 0.699330
vt 0.767422 0.699330
vt 0.242807 0.699330
vt 0.242807 0.361030
vt 0.767422 0.361030
vt 0.200646 0.367573
vt 0.000147 0.367573
vt 0.000147 0.452058
vt 0.200646 0.452058
vt 0.000147 0.413909
vt 0.000147 0.401438
vt 0.200646 0.401438
vt 0.200646 0.413909
vt 0.200646 0.430585
vt 0.000147 0.430585
vt 0.200646 0.383124
vt 0.000147 0.383124
vt 0.906271 0.248157
vt 0.898573 0.271567
vt 0.883202 0.069433
vt 0.902663 0.103304
vt 0.900067 0.107542
vt 0.881824 0.075272
vt 0.909412 0.127511
vt 0.908990 0.188002
vt 0.906003 0.187925
vt 0.906323 0.130484
vt 0.837263 0.332013
vt 0.810107 0.333669
vt 0.812573 0.328047
vt 0.838594 0.325673
vt 0.877709 0.303660
vt 0.876678 0.297925
vt 0.861786 0.048337
vt 0.861818 0.054997
vt 0.791295 0.037353
vt 0.794133 0.042339
vt 0.855911 0.322809
vt 0.856286 0.316427
vt 0.790162 0.329801
vt 0.793058 0.325103
vt 0.885118 0.257544
vt 0.891007 0.238759
vt 0.875336 0.080243
vt 0.856945 0.061330
vt 0.897880 0.187723
vt 0.892339 0.110623
vt 0.851930 0.310347
vt 0.870585 0.292865
vt 0.841095 0.051564
vt 0.815748 0.047307
vt 0.795385 0.049380
vt 0.836277 0.318930
vt 0.794066 0.319617
vt 0.812582 0.321726
vt 0.732735 0.067005
vt 0.898122 0.131792
vt 0.731950 0.193608
vt 0.731635 0.300716
vt 0.893020 0.187611
vt 0.885468 0.237720
vt 0.886960 0.187471
vt 0.872990 0.089202
vt 0.856632 0.071457
vt 0.888249 0.116990
vt 0.852065 0.300511
vt 0.868735 0.284038
vt 0.842085 0.061747
vt 0.818975 0.057351
vt 0.799551 0.057754
vt 0.837662 0.309362
vt 0.740885 0.074801
vt 0.737598 0.193662
vt 0.798318 0.311398
vt 0.815850 0.312819
vt 0.893344 0.136364
vt 0.739005 0.293467
vt 0.882812 0.119099
vt 0.868347 0.092574
vt 0.848782 0.296379
vt 0.864342 0.280594
vt 0.853029 0.075721
vt 0.840028 0.066527
vt 0.879875 0.255259
vt 0.818617 0.062207
vt 0.800256 0.062953
vt 0.835760 0.304827
vt 0.745348 0.077849
vt 0.742150 0.193679
vt 0.798891 0.307272
vt 0.815591 0.308317
vt 0.887544 0.137220
vt 0.743042 0.290226
vt 0.760293 0.945942
vt 0.760293 0.950656
vt 0.697986 0.950656
vt 0.674288 0.945942
vt 0.244344 0.968147
vt 0.244344 0.774567
vt 0.247193 0.774567
vt 0.247193 0.968147
vt 0.330024 0.057667
vt 0.714751 0.062022
vt 0.336779 0.062022
vt 0.547706 0.774567
vt 0.547706 0.968147
vt 0.546932 0.984875
vt 0.247061 0.970992
vt 0.564452 0.774567
vt 0.564453 0.968147
vt 0.247061 0.771722
vt 0.546932 0.757839
vt 0.760293 0.738566
vt 0.760293 0.840478
vt 0.579480 0.840478
vt 0.579480 0.738566
vt 0.760293 0.867988
vt 0.584952 0.867988
vt 0.760293 0.898505
vt 0.597593 0.898505
vt 0.760293 0.914410
vt 0.613498 0.914410
vt 0.760293 0.931120
vt 0.638507 0.931120
vt 0.941105 0.840478
vt 0.935633 0.867988
vt 0.922993 0.898505
vt 0.907087 0.914410
vt 0.882079 0.931120
vt 0.846298 0.945942
vt 0.822599 0.950656
vt 0.941105 0.738566
s 0
f 1/1/1 5/2/1 6/3/1 2/4/1
f 12/5/2 9/6/2 3/7/2 4/8/2
f 20/9/3 8/10/3 46/11/3 47/12/3
f 40/13/3 49/14/3 24/15/3 6/16/3 39/17/3
f 5/2/1 18/18/1 19/19/1 6/3/1
f 9/6/4 12/5/4 11/20/4 10/21/4
f 14/22/5 15/23/5 8/24/5 7/25/5
f 15/23/6 14/22/6 13/26/6 16/27/6
f 10/21/7 11/20/7 16/27/7 13/26/7
f 19/19/8 18/18/8 17/28/8 20/29/8
f 20/29/9 17/28/9 7/25/9 8/24/9
f 21/30/10 22/31/10 24/32/10 23/33/10
f 24/15/3 22/34/3 112/35/3 114/36/3
f 30/37/2 4/8/2 3/7/2 27/38/2
f 50/39/11 51/40/11 69/41/11 68/42/11
f 36/43/12 35/44/12 25/45/12 32/46/12 31/47/12 28/48/12 27/49/12 3/50/12 9/51/12 10/52/12 13/53/12 14/54/12 7/55/12 17/56/12 18/57/12 5/58/12 1/59/12 21/60/12 23/61/12
f 23/33/10 24/32/10 37/62/10 36/63/10
f 27/38/13 28/64/13 29/65/13 30/37/13
f 32/66/14 25/67/14 26/68/14 33/69/14
f 33/69/15 34/70/15 31/71/15 32/66/15
f 28/64/16 31/71/16 34/70/16 29/65/16
f 37/62/17 38/72/17 35/73/17 36/63/17
f 38/72/18 26/68/18 25/67/18 35/73/18
f 30/74/3 29/75/3 51/40/3 50/39/3
f 16/76/3 11/77/3 42/78/3 44/79/3
f 12/80/3 4/81/3 43/82/3 41/83/3
f 26/84/3 38/85/3 55/86/3 54/87/3
f 29/75/3 34/88/3 52/89/3 51/40/3
f 4/81/3 30/74/3 50/39/3 43/82/3
f 8/10/3 15/90/3 45/91/3 46/11/3
f 15/90/3 16/76/3 44/79/3 45/91/3
f 6/16/3 19/92/3 48/93/3 39/17/3
f 19/92/3 20/9/3 47/12/3 48/93/3
f 33/94/3 26/84/3 54/87/3 53/95/3
f 34/88/3 33/94/3 53/95/3 52/89/3
f 37/96/3 24/15/3 49/14/3 56/97/3
f 38/85/3 37/96/3 56/97/3 55/86/3
f 11/77/3 12/80/3 41/83/3 42/78/3
f 68/42/3 69/41/3 87/98/3 86/99/3
f 45/91/19 44/79/19 62/100/19 63/101/19
f 43/82/20 50/39/20 68/42/20 61/102/20
f 44/79/21 42/78/21 60/103/21 62/100/21
f 52/89/22 53/95/22 71/104/22 70/105/22
f 46/11/23 45/91/23 63/101/23 64/106/23
f 51/40/24 52/89/24 70/105/24 69/41/24
f 48/93/25 47/12/25 65/107/25 66/108/25
f 53/95/26 54/87/26 72/109/26 71/104/26
f 47/12/27 46/11/27 64/106/27 65/107/27
f 55/86/28 56/97/28 74/110/28 73/111/28
f 39/17/10 48/93/10 66/108/10 57/112/10
f 42/78/29 41/83/29 59/113/29 60/103/29
f 54/87/30 55/86/30 73/111/30 72/109/30
f 40/13/2 39/17/2 57/112/2 58/114/2
f 49/14/2 40/13/2 58/114/2 67/115/2
f 41/83/20 43/82/20 61/102/20 59/113/20
f 56/97/1 49/14/1 67/115/1 74/110/1
f 79/116/20 86/99/20 104/117/20 97/118/20
f 63/101/3 62/100/3 80/119/3 81/120/3
f 61/102/3 68/42/3 86/99/3 79/116/3
f 62/100/3 60/103/3 78/121/3 80/119/3
f 70/105/3 71/104/3 89/122/3 88/123/3
f 64/106/3 63/101/3 81/120/3 82/124/3
f 69/41/3 70/105/3 88/123/3 87/98/3
f 66/108/3 65/107/3 83/125/3 84/126/3
f 71/104/3 72/109/3 90/127/3 89/122/3
f 65/107/3 64/106/3 82/124/3 83/125/3
f 58/114/3 57/112/3 75/128/3 76/129/3
f 73/111/3 74/110/3 92/130/3 91/131/3
f 57/112/3 66/108/3 84/126/3 75/128/3
f 60/103/3 59/113/3 77/132/3 78/121/3
f 72/109/3 73/111/3 91/131/3 90/127/3
f 67/115/3 58/114/3 76/129/3 85/133/3
f 59/113/3 61/102/3 79/116/3 77/132/3
f 74/110/3 67/115/3 85/133/3 92/130/3
f 80/119/21 78/121/21 96/134/21 98/135/21
f 88/123/22 89/122/22 107/136/22 106/137/22
f 82/124/23 81/120/23 99/138/23 100/139/23
f 87/98/24 88/123/24 106/137/24 105/140/24
f 84/126/25 83/125/25 101/141/25 102/142/25
f 89/122/26 90/127/26 108/143/26 107/136/26
f 83/125/27 82/124/27 100/139/27 101/141/27
f 76/129/2 75/128/2 93/144/2 94/145/2
f 91/131/28 92/130/28 110/146/28 109/147/28
f 75/128/10 84/126/10 102/142/10 93/144/10
f 78/121/29 77/132/29 95/148/29 96/134/29
f 90/127/30 91/131/30 109/147/30 108/143/30
f 85/133/2 76/129/2 94/145/2 103/149/2
f 77/132/20 79/116/20 97/118/20 95/148/20
f 92/130/1 85/133/1 103/149/1 110/146/1
f 86/99/11 87/98/11 105/140/11 104/117/11
f 81/120/19 80/119/19 98/135/19 99/138/19
f 119/150/3 97/151/3 104/152/3 105/153/3
f 112/154/20 111/155/20 115/156/20 116/157/20
f 2/158/3 6/16/3 113/159/3 111/160/3
f 22/34/3 2/158/3 111/160/3 112/35/3
f 6/16/3 24/15/3 114/36/3 113/159/3
f 115/156/31 117/161/31 118/162/31 116/157/31
f 114/163/10 112/164/10 116/157/10 118/162/10
f 113/165/2 114/166/2 118/162/2 117/161/2
f 111/167/1 113/168/1 117/161/1 115/156/1
f 94/169/3 124/170/3 110/171/3 103/172/3
f 124/170/3 123/173/3 109/174/3 110/171/3
f 123/173/3 122/175/3 108/176/3 109/174/3
f 122/175/3 121/177/3 107/178/3 108/176/3
f 121/177/3 120/179/3 106/180/3 107/178/3
f 120/179/3 119/150/3 105/153/3 106/180/3
f 102/181/3 101/182/3 123/173/3 124/170/3
f 101/182/3 100/183/3 122/175/3 123/173/3
f 100/183/3 99/184/3 121/177/3 122/175/3
f 99/184/3 98/185/3 120/179/3 121/177/3
f 98/185/3 96/186/3 119/150/3 120/179/3
f 96/186/3 95/187/3 97/151/3 119/150/3
f 93/188/3 102/181/3 124/170/3 94/169/3
