# Blender 4.0.2
# www.blender.org
o Cube.009
v -0.461578 1.006699 -2.012093
v -0.461578 0.968933 -2.011911
v -0.470468 0.996366 -1.489177
v -0.470468 0.984305 -1.489119
v -0.487700 1.006699 -2.012093
v -0.487700 0.968933 -2.011911
v -0.478810 0.996366 -1.489177
v -0.478810 0.984305 -1.489119
v -0.491670 0.960766 -1.496225
v -0.491670 0.978570 -1.496252
v -0.491670 0.961988 -2.031176
v -0.491670 0.979792 -2.031204
v -0.208894 0.960766 -1.496225
v -0.208894 0.978570 -1.496252
v -0.208894 0.961988 -2.031176
v -0.208894 0.979792 -2.031204
v -0.488789 0.978582 -1.501703
v -0.488789 0.979779 -2.025753
v -0.211776 0.979779 -2.025753
v -0.211776 0.978582 -1.501703
v -0.488789 0.971291 -1.501692
v -0.488789 0.972488 -2.025741
v -0.211776 0.972488 -2.025741
v -0.211776 0.971291 -1.501692
v -0.421493 0.962214 -1.826637
v -0.421493 1.026718 -1.826737
v -0.421493 0.962475 -1.940793
v -0.421493 1.026979 -1.940892
v -0.305117 0.962214 -1.826637
v -0.305117 1.026718 -1.826737
v -0.305117 0.962475 -1.940793
v -0.305117 1.026979 -1.940892
v -0.429980 0.957717 -1.917572
v -0.434244 0.955277 -1.883704
v -0.429980 0.957563 -1.849843
v -0.429980 0.975312 -1.818332
v -0.434244 0.994438 -1.814179
v -0.429980 1.013582 -1.818391
v -0.429980 1.031476 -1.849958
v -0.434244 1.033916 -1.883826
v -0.429980 1.031630 -1.917686
v -0.429980 1.013881 -1.949198
v -0.434244 0.994755 -1.953350
v -0.429980 0.975611 -1.949139
v -0.328782 0.957789 -1.949111
v -0.363305 0.955436 -1.953289
v -0.397828 0.957789 -1.949111
v -0.397828 1.031702 -1.949225
v -0.363305 1.034075 -1.953411
v -0.328782 1.031702 -1.949226
v -0.296630 1.013881 -1.949198
v -0.292366 0.994755 -1.953350
v -0.296630 0.975611 -1.949139
v -0.296630 0.957563 -1.849843
v -0.292366 0.955277 -1.883704
v -0.296630 0.957717 -1.917572
v -0.296630 1.031630 -1.917686
v -0.292366 1.033916 -1.883826
v -0.296630 1.031476 -1.849958
v -0.296630 1.013582 -1.818391
v -0.292366 0.994438 -1.814179
v -0.296630 0.975312 -1.818332
v -0.397828 0.957491 -1.818304
v -0.363305 0.955118 -1.814119
v -0.328782 0.957491 -1.818304
v -0.328782 1.031404 -1.818419
v -0.363305 1.033757 -1.814240
v -0.397828 1.031404 -1.818419
v -0.448142 0.974121 -1.847642
v -0.454291 0.994510 -1.845735
v -0.448142 1.014907 -1.847705
v -0.454291 0.973108 -1.883732
v -0.461003 0.994596 -1.883765
v -0.454291 1.016085 -1.883798
v -0.448142 0.974285 -1.919824
v -0.454291 0.994683 -1.921795
v -0.448142 1.015072 -1.919888
v -0.400098 0.974393 -1.966951
v -0.402075 0.994800 -1.973015
v -0.400098 1.015180 -1.967015
v -0.363305 0.973311 -1.972982
v -0.363305 0.994815 -1.979599
v -0.363305 1.016289 -1.973048
v -0.326512 0.974393 -1.966951
v -0.324536 0.994800 -1.973015
v -0.326512 1.015180 -1.967015
v -0.278469 0.974285 -1.919824
v -0.272320 0.994683 -1.921795
v -0.278469 1.015072 -1.919888
v -0.272320 0.973108 -1.883732
v -0.265607 0.994596 -1.883765
v -0.272320 1.016085 -1.883798
v -0.278469 0.974121 -1.847642
v -0.272320 0.994510 -1.845735
v -0.278469 1.014907 -1.847705
v -0.326512 0.974013 -1.800515
v -0.324536 0.994393 -1.794515
v -0.326512 1.014800 -1.800578
v -0.363305 0.972904 -1.794482
v -0.363305 0.994378 -1.787931
v -0.363305 1.015882 -1.794548
v -0.400098 0.974013 -1.800515
v -0.402075 0.994393 -1.794515
v -0.400098 1.014800 -1.800578
v -0.400098 0.947656 -1.919783
v -0.363305 0.944252 -1.921716
v -0.326512 0.947656 -1.919783
v -0.402075 0.944165 -1.883687
v -0.363305 0.940445 -1.883681
v -0.324536 0.944165 -1.883687
v -0.400098 0.947491 -1.847601
v -0.363305 0.944078 -1.845657
v -0.326512 0.947491 -1.847601
v -0.326512 1.041702 -1.919929
v -0.363305 1.045114 -1.921873
v -0.400098 1.041702 -1.919929
v -0.324536 1.045028 -1.883843
v -0.363305 1.048748 -1.883849
v -0.402075 1.045028 -1.883843
v -0.326512 1.041537 -1.847747
v -0.363305 1.044941 -1.845813
v -0.400098 1.041537 -1.847747
v -0.421493 0.961687 -1.595972
v -0.421493 1.026191 -1.596072
v -0.421493 0.961948 -1.710128
v -0.421493 1.026452 -1.710228
v -0.305117 0.961687 -1.595972
v -0.305117 1.026191 -1.596072
v -0.305117 0.961948 -1.710128
v -0.305117 1.026452 -1.710228
v -0.429980 0.957191 -1.686907
v -0.434244 0.954750 -1.653039
v -0.429980 0.957036 -1.619179
v -0.429980 0.974785 -1.587667
v -0.434244 0.993911 -1.583515
v -0.429980 1.013055 -1.587726
v -0.429980 1.030949 -1.619293
v -0.434244 1.033389 -1.653161
v -0.429980 1.031103 -1.687021
v -0.429980 1.013354 -1.718533
v -0.434244 0.994229 -1.722686
v -0.429980 0.975084 -1.718474
v -0.328782 0.957263 -1.718446
v -0.363305 0.954909 -1.722625
v -0.397828 0.957263 -1.718446
v -0.397828 1.031175 -1.718561
v -0.363305 1.033548 -1.722746
v -0.328782 1.031175 -1.718561
v -0.296630 1.013354 -1.718533
v -0.292366 0.994229 -1.722686
v -0.296630 0.975084 -1.718474
v -0.296630 0.957036 -1.619179
v -0.292366 0.954750 -1.653039
v -0.296630 0.957191 -1.686907
v -0.296630 1.031103 -1.687021
v -0.292366 1.033389 -1.653161
v -0.296630 1.030949 -1.619293
v -0.296630 1.013055 -1.587726
v -0.292366 0.993911 -1.583515
v -0.296630 0.974785 -1.587667
v -0.397828 0.956964 -1.587639
v -0.363305 0.954591 -1.583454
v -0.328782 0.956964 -1.587639
v -0.328782 1.030877 -1.587754
v -0.363305 1.033230 -1.583575
v -0.397828 1.030877 -1.587754
v -0.448142 0.973594 -1.616977
v -0.454291 0.993983 -1.615070
v -0.448142 1.014381 -1.617041
v -0.454291 0.972581 -1.653067
v -0.461003 0.994070 -1.653100
v -0.454291 1.015559 -1.653133
v -0.448142 0.973759 -1.689160
v -0.454291 0.994157 -1.691130
v -0.448142 1.014546 -1.689223
v -0.400098 0.973866 -1.736287
v -0.402075 0.994273 -1.742350
v -0.400098 1.014653 -1.736350
v -0.363305 0.972785 -1.742317
v -0.363305 0.994289 -1.748934
v -0.363305 1.015762 -1.742383
v -0.326512 0.973866 -1.736287
v -0.324536 0.994273 -1.742350
v -0.326512 1.014653 -1.736350
v -0.278469 0.973759 -1.689160
v -0.272320 0.994157 -1.691130
v -0.278469 1.014546 -1.689223
v -0.272320 0.972581 -1.653067
v -0.265607 0.994070 -1.653100
v -0.272320 1.015559 -1.653133
v -0.278469 0.973594 -1.616977
v -0.272320 0.993983 -1.615070
v -0.278469 1.014381 -1.617041
v -0.326512 0.973486 -1.569850
v -0.324536 0.993866 -1.563850
v -0.326512 1.014273 -1.569914
v -0.363305 0.972377 -1.563817
v -0.363305 0.993851 -1.557266
v -0.363305 1.015355 -1.563883
v -0.400098 0.973486 -1.569850
v -0.402075 0.993866 -1.563850
v -0.400098 1.014273 -1.569914
v -0.400098 0.947129 -1.689118
v -0.363305 0.943725 -1.691052
v -0.326512 0.947129 -1.689118
v -0.402075 0.943639 -1.653022
v -0.363305 0.939918 -1.653016
v -0.324536 0.943639 -1.653022
v -0.400098 0.946964 -1.616936
v -0.363305 0.943552 -1.614992
v -0.326512 0.946964 -1.616936
v -0.326512 1.041175 -1.689264
v -0.363305 1.044588 -1.691208
v -0.400098 1.041175 -1.689264
v -0.324536 1.044501 -1.653178
v -0.363305 1.048221 -1.653184
v -0.402075 1.044501 -1.653178
v -0.326512 1.041010 -1.617082
v -0.363305 1.044414 -1.615148
v -0.400098 1.041010 -1.617082
v -0.461911 0.990168 -2.012278
v -0.461911 0.952404 -2.011868
v -0.470801 0.986700 -1.489338
v -0.470801 0.974641 -1.489208
v -0.488033 0.990168 -2.012278
v -0.488033 0.952404 -2.011868
v -0.479143 0.986700 -1.489338
v -0.479143 0.974641 -1.489208
vn 0.9999 0.0001 0.0170
vn -0.0000 0.0048 1.0000
vn -0.9999 0.0001 0.0170
vn -0.0000 -0.0048 -1.0000
vn -0.0000 0.9998 0.0198
vn -0.0000 -0.9996 0.0294
vn -1.0000 -0.0000 -0.0000
vn -0.0000 -0.0015 -1.0000
vn 1.0000 -0.0000 -0.0000
vn -0.0000 0.0015 1.0000
vn -0.0000 -1.0000 -0.0023
vn -0.0000 1.0000 0.0023
vn -0.7994 -0.5151 0.3091
vn -0.9328 0.0004 0.3604
vn -0.8452 -0.5344 -0.0011
vn -0.7986 0.5153 0.3108
vn -0.8452 0.5344 0.0011
vn -0.9328 -0.0004 -0.3604
vn -0.7986 -0.5153 -0.3108
vn -0.7994 0.5151 -0.3091
vn -0.4401 -0.7785 0.4474
vn -0.6108 -0.4921 0.6203
vn -0.4966 -0.8360 0.2334
vn -0.7015 0.0008 0.7127
vn -0.6096 0.4926 0.6211
vn -0.4391 0.7778 0.4496
vn -0.4959 0.8355 0.2367
vn -0.5130 0.8584 0.0018
vn -0.4966 0.8360 -0.2334
vn -0.4401 0.7785 -0.4474
vn -0.6108 0.4921 -0.6203
vn -0.7015 -0.0008 -0.7127
vn -0.6096 -0.4926 -0.6211
vn -0.4959 -0.8355 -0.2367
vn -0.4391 -0.7778 -0.4496
vn -0.5130 -0.8584 -0.0018
vn -0.3009 -0.5111 -0.8051
vn -0.3501 -0.0010 -0.9367
vn -0.0000 -0.0011 -1.0000
vn -0.0000 -0.5289 -0.8487
vn -0.3017 0.5105 -0.8052
vn -0.0000 0.5284 -0.8490
vn 0.3501 -0.0010 -0.9367
vn 0.3009 -0.5111 -0.8051
vn 0.3017 0.5105 -0.8052
vn -0.2292 -0.8326 -0.5042
vn -0.2299 0.8337 -0.5022
vn -0.0000 0.8552 -0.5183
vn 0.2299 0.8337 -0.5022
vn 0.4401 0.7785 -0.4474
vn 0.6108 0.4921 -0.6203
vn 0.7015 -0.0008 -0.7127
vn 0.6096 -0.4926 -0.6211
vn 0.2292 -0.8326 -0.5042
vn 0.4391 -0.7778 -0.4496
vn -0.0000 -0.8540 -0.5203
vn 0.7986 -0.5153 -0.3108
vn 0.9328 -0.0004 -0.3604
vn 0.8452 -0.5344 -0.0011
vn 0.7994 0.5151 -0.3091
vn 0.8452 0.5344 0.0011
vn 0.9328 0.0004 0.3604
vn 0.7994 -0.5151 0.3091
vn 0.7986 0.5153 0.3108
vn 0.4959 -0.8355 -0.2367
vn 0.4966 0.8360 -0.2334
vn 0.5130 0.8584 0.0018
vn 0.4959 0.8355 0.2367
vn 0.4391 0.7778 0.4496
vn 0.6096 0.4926 0.6211
vn 0.7015 0.0008 0.7127
vn 0.6108 -0.4921 0.6203
vn 0.4966 -0.8360 0.2334
vn 0.4401 -0.7785 0.4474
vn 0.5130 -0.8584 -0.0018
vn 0.3017 -0.5105 0.8052
vn 0.3501 0.0010 0.9367
vn -0.0000 0.0011 1.0000
vn -0.0000 -0.5284 0.8490
vn 0.3009 0.5111 0.8051
vn -0.0000 0.5289 0.8487
vn -0.3501 0.0010 0.9367
vn -0.3017 -0.5105 0.8052
vn -0.3009 0.5111 0.8051
vn 0.2299 -0.8337 0.5022
vn 0.2292 0.8326 0.5042
vn -0.0000 0.8540 0.5203
vn -0.2292 0.8326 0.5042
vn -0.2299 -0.8337 0.5022
vn -0.0000 -0.8552 0.5183
vn -0.2097 -0.9537 -0.2158
vn -0.0000 -0.9753 -0.2210
vn -0.0000 -1.0000 -0.0022
vn -0.2153 -0.9765 -0.0022
vn 0.2097 -0.9537 -0.2158
vn 0.2153 -0.9765 -0.0022
vn -0.0000 -0.9762 0.2171
vn -0.2100 -0.9545 0.2119
vn 0.2100 -0.9545 0.2119
vn 0.2100 0.9545 -0.2119
vn -0.0000 0.9762 -0.2171
vn -0.0000 1.0000 0.0022
vn 0.2153 0.9765 0.0022
vn -0.2100 0.9545 -0.2119
vn -0.2153 0.9765 0.0022
vn -0.0000 0.9753 0.2210
vn 0.2097 0.9537 0.2158
vn -0.2097 0.9537 0.2158
vn 0.9999 0.0002 0.0170
vn -0.0000 0.0109 0.9999
vn -0.9999 0.0002 0.0170
vn -0.0000 -0.0109 -0.9999
vn -0.0000 1.0000 0.0066
vn -0.0000 -0.9991 0.0425
vt 0.720309 0.450265
vt 0.720309 0.586797
vt 0.856840 0.586797
vt 0.856840 0.450265
vt 0.720309 0.723328
vt 0.856840 0.723328
vt 0.720309 0.859859
vt 0.856840 0.859859
vt 0.720309 0.996391
vt 0.856840 0.996391
vt 0.583777 0.723328
vt 0.583777 0.859859
vt 0.993371 0.859859
vt 0.993371 0.723328
vt 0.985861 0.013349
vt 0.985952 0.035426
vt 0.008185 0.039463
vt 0.008094 0.017386
vt 0.519148 0.118186
vt 0.541725 0.118186
vt 0.541725 0.636632
vt 0.519149 0.636632
vt 0.985861 0.013348
vt 0.985952 0.035426
vt 0.008185 0.039463
vt 0.008094 0.017386
vt 0.519149 0.118186
vt 0.541725 0.118186
vt 0.195686 0.444739
vt 0.002847 0.444739
vt 0.002847 0.072834
vt 0.195686 0.072834
vt 0.976011 0.040633
vt 0.018170 0.044589
vt 0.976048 0.049675
vt 0.018207 0.053631
vt 0.018170 0.044588
vt 0.551914 0.123468
vt 0.551913 0.631350
vt 0.551913 0.123469
vt 0.551913 0.631349
vt 0.397868 0.448383
vt 0.204134 0.448383
vt 0.204134 0.074752
vt 0.397868 0.074752
vt 0.018207 0.053630
vt 0.561160 0.123468
vt 0.561160 0.631350
vt 0.561160 0.123469
vt 0.561160 0.631349
vt 0.379806 0.925439
vt 0.401096 0.958097
vt 0.306484 0.998350
vt 0.298015 0.956812
vt 0.203664 0.998350
vt 0.210470 0.959964
vt 0.306484 0.998350
vt 0.203664 0.998350
vt 0.210470 0.959964
vt 0.379806 0.925439
vt 0.401096 0.958097
vt 0.410730 0.851080
vt 0.440015 0.870446
vt 0.361190 0.879202
vt 0.469562 0.889985
vt 0.113998 0.962478
vt 0.133537 0.932932
vt 0.152903 0.903647
vt 0.209499 0.910130
vt 0.287220 0.903865
vt 0.410730 0.851080
vt 0.440015 0.870446
vt 0.469561 0.889985
vt 0.113998 0.962478
vt 0.133537 0.932932
vt 0.209499 0.910130
vt 0.152903 0.903647
vt 0.287220 0.903866
vt 0.078544 0.872723
vt 0.045886 0.894013
vt 0.005633 0.799400
vt 0.047171 0.790931
vt 0.505433 0.800319
vt 0.467047 0.793513
vt 0.463895 0.705968
vt 0.505433 0.697499
vt 0.005633 0.696581
vt 0.044019 0.703386
vt 0.432522 0.624177
vt 0.465180 0.602887
vt 0.124780 0.854106
vt 0.417213 0.794484
vt 0.410949 0.716763
vt 0.386286 0.642793
vt 0.358163 0.593253
vt 0.377529 0.563968
vt 0.397068 0.534421
vt 0.041505 0.606915
vt 0.071051 0.626453
vt 0.093853 0.702415
vt 0.100336 0.645820
vt 0.100117 0.780137
vt 0.131260 0.571461
vt 0.109970 0.538803
vt 0.204583 0.498550
vt 0.213051 0.540088
vt 0.307402 0.498550
vt 0.300596 0.536936
vt 0.307402 0.498550
vt 0.300596 0.536936
vt 0.109970 0.538803
vt 0.149877 0.617697
vt 0.301567 0.586770
vt 0.223846 0.593034
vt 0.100336 0.645820
vt 0.071051 0.626453
vt 0.397068 0.534421
vt 0.377529 0.563968
vt 0.301567 0.586770
vt 0.358163 0.593253
vt 0.432522 0.624177
vt 0.505433 0.697499
vt 0.005633 0.696581
vt 0.044019 0.703386
vt 0.047171 0.790931
vt 0.005633 0.799400
vt 0.467047 0.793513
vt 0.078544 0.872723
vt 0.386286 0.642793
vt 0.093853 0.702416
vt 0.100117 0.780137
vt 0.124780 0.854106
vt 0.417213 0.794484
vt 0.192224 0.844185
vt 0.171962 0.765489
vt 0.255533 0.748450
vt 0.272572 0.832021
vt 0.159798 0.685141
vt 0.238494 0.664878
vt 0.339104 0.731411
vt 0.351269 0.811759
vt 0.318842 0.652714
vt 0.255533 0.748450
vt 0.272572 0.832021
vt 0.192224 0.844185
vt 0.720309 0.996391
vt 0.856840 0.996391
s 0
f 1/1/1 3/2/1 4/3/1 2/4/1
f 3/2/2 7/5/2 8/6/2 4/3/2
f 7/5/3 5/7/3 6/8/3 8/6/3
f 5/7/4 1/9/4 2/10/4 6/8/4
f 3/11/5 1/12/5 5/7/5 7/5/5
f 8/6/6 6/8/6 2/13/6 4/14/6
f 9/15/7 10/16/7 12/17/7 11/18/7
f 11/19/8 12/20/8 16/21/8 15/22/8
f 15/23/9 16/24/9 14/25/9 13/26/9
f 13/27/10 14/28/10 10/21/10 9/22/10
f 11/29/11 15/30/11 13/31/11 9/32/11
f 14/25/12 16/24/12 19/33/12 20/34/12
f 20/34/7 19/33/7 23/35/7 24/36/7
f 12/17/12 10/16/12 17/33/12 18/37/12
f 10/21/12 14/28/12 20/38/12 17/39/12
f 16/21/12 12/20/12 18/40/12 19/41/12
f 23/42/12 22/43/12 21/44/12 24/45/12
f 18/37/9 17/33/9 21/35/9 22/46/9
f 17/39/8 20/38/8 24/47/8 21/48/8
f 19/41/10 18/40/10 22/49/10 23/50/10
s 1
f 69/51/13 70/52/14 73/53/7 72/54/15
f 70/55/14 71/56/16 74/54/17 73/57/7
f 72/54/15 73/53/7 76/58/18 75/59/19
f 73/57/7 74/54/17 77/60/20 76/61/18
f 25/62/21 36/63/22 69/51/13 35/64/23
f 36/63/22 37/65/24 70/52/14 69/51/13
f 37/66/24 38/67/25 71/56/16 70/55/14
f 38/67/25 26/68/26 39/69/27 71/56/16
f 71/56/16 39/69/27 40/70/28 74/54/17
f 74/54/17 40/70/28 41/64/29 77/60/20
f 77/60/20 41/64/29 28/71/30 42/72/31
f 76/61/18 77/60/20 42/72/31 43/73/32
f 75/59/19 76/58/18 43/74/32 44/75/33
f 33/76/34 75/59/19 44/75/33 27/77/35
f 34/78/36 72/54/15 75/59/19 33/76/34
f 35/64/23 69/51/13 72/54/15 34/78/36
f 78/79/37 79/80/38 82/81/39 81/82/40
f 79/83/38 80/84/41 83/85/42 82/86/39
f 81/82/40 82/81/39 85/87/43 84/88/44
f 82/86/39 83/85/42 86/89/45 85/90/43
f 27/77/35 44/75/33 78/79/37 47/91/46
f 44/75/33 43/74/32 79/80/38 78/79/37
f 43/73/32 42/72/31 80/84/41 79/83/38
f 42/72/31 28/71/30 48/92/47 80/84/41
f 80/84/41 48/92/47 49/93/48 83/85/42
f 83/85/42 49/93/48 50/94/49 86/89/45
f 86/89/45 50/94/49 32/95/50 51/96/51
f 85/90/43 86/89/45 51/96/51 52/97/52
f 84/88/44 85/87/43 52/98/52 53/99/53
f 45/100/54 84/88/44 53/99/53 31/101/55
f 46/102/56 81/82/40 84/88/44 45/100/54
f 47/91/46 78/79/37 81/82/40 46/102/56
f 87/103/57 88/104/58 91/105/9 90/106/59
f 88/107/58 89/108/60 92/106/61 91/105/9
f 90/106/59 91/105/9 94/109/62 93/110/63
f 91/105/9 92/106/61 95/103/64 94/111/62
f 31/101/55 53/99/53 87/103/57 56/112/65
f 53/99/53 52/98/52 88/104/58 87/103/57
f 52/97/52 51/96/51 89/108/60 88/107/58
f 51/96/51 32/95/50 57/113/66 89/108/60
f 89/108/60 57/113/66 58/114/67 92/106/61
f 92/106/61 58/114/67 59/112/68 95/103/64
f 95/103/64 59/112/68 30/115/69 60/116/70
f 94/111/62 95/103/64 60/116/70 61/98/71
f 93/110/63 94/109/62 61/117/71 62/118/72
f 54/119/73 93/110/63 62/118/72 29/120/74
f 55/114/75 90/106/59 93/110/63 54/119/73
f 56/112/65 87/103/57 90/106/59 55/114/75
f 96/121/76 97/90/77 100/122/78 99/85/79
f 97/123/77 98/124/80 101/125/81 100/126/78
f 99/85/79 100/122/78 103/83/82 102/127/83
f 100/126/78 101/125/81 104/128/84 103/80/82
f 29/120/74 62/118/72 96/121/76 65/129/85
f 62/118/72 61/117/71 97/90/77 96/121/76
f 61/98/71 60/116/70 98/124/80 97/123/77
f 60/116/70 30/115/69 66/130/86 98/124/80
f 98/124/80 66/130/86 67/131/87 101/125/81
f 101/125/81 67/131/87 68/132/88 104/128/84
f 104/128/84 68/132/88 26/68/26 38/67/25
f 103/80/82 104/128/84 38/67/25 37/66/24
f 102/127/83 103/83/82 37/65/24 36/63/22
f 63/133/89 102/127/83 36/63/22 25/62/21
f 64/93/90 99/85/79 102/127/83 63/133/89
f 65/129/85 96/121/76 99/85/79 64/93/90
f 105/134/91 106/135/92 109/136/93 108/137/94
f 106/135/92 107/138/95 110/139/96 109/136/93
f 108/137/94 109/136/93 112/140/97 111/141/98
f 109/136/93 110/139/96 113/142/99 112/140/97
f 27/77/35 47/91/46 105/134/91 33/76/34
f 47/91/46 46/102/56 106/135/92 105/134/91
f 46/102/56 45/100/54 107/138/95 106/135/92
f 45/100/54 31/101/55 56/112/65 107/138/95
f 107/138/95 56/112/65 55/114/75 110/139/96
f 110/139/96 55/114/75 54/119/73 113/142/99
f 113/142/99 54/119/73 29/120/74 65/129/85
f 112/140/97 113/142/99 65/129/85 64/93/90
f 111/141/98 112/140/97 64/93/90 63/133/89
f 35/64/23 111/141/98 63/133/89 25/62/21
f 34/78/36 108/137/94 111/141/98 35/64/23
f 33/76/34 105/134/91 108/137/94 34/78/36
f 114/142/100 115/140/101 118/143/102 117/139/103
f 115/140/101 116/141/104 119/144/105 118/143/102
f 117/139/103 118/143/102 121/135/106 120/138/107
f 118/143/102 119/144/105 122/145/108 121/135/106
f 32/95/50 50/94/49 114/142/100 57/113/66
f 50/94/49 49/93/48 115/140/101 114/142/100
f 49/93/48 48/92/47 116/141/104 115/140/101
f 48/92/47 28/71/30 41/64/29 116/141/104
f 116/141/104 41/64/29 40/70/28 119/144/105
f 119/144/105 40/70/28 39/69/27 122/145/108
f 122/145/108 39/69/27 26/68/26 68/132/88
f 121/135/106 122/145/108 68/132/88 67/131/87
f 120/138/107 121/135/106 67/131/87 66/130/86
f 59/112/68 120/138/107 66/130/86 30/115/69
f 58/114/67 117/139/103 120/138/107 59/112/68
f 57/113/66 114/142/100 117/139/103 58/114/67
f 167/51/13 168/52/14 171/53/7 170/54/15
f 168/55/14 169/56/16 172/54/17 171/57/7
f 170/54/15 171/53/7 174/58/18 173/59/19
f 171/57/7 172/54/17 175/60/20 174/61/18
f 123/62/21 134/63/22 167/51/13 133/64/23
f 134/63/22 135/65/24 168/52/14 167/51/13
f 135/66/24 136/67/25 169/56/16 168/55/14
f 136/67/25 124/68/26 137/69/27 169/56/16
f 169/56/16 137/69/27 138/70/28 172/54/17
f 172/54/17 138/70/28 139/64/29 175/60/20
f 175/60/20 139/64/29 126/71/30 140/72/31
f 174/61/18 175/60/20 140/72/31 141/73/32
f 173/59/19 174/58/18 141/74/32 142/75/33
f 131/76/34 173/59/19 142/75/33 125/77/35
f 132/78/36 170/54/15 173/59/19 131/76/34
f 133/64/23 167/51/13 170/54/15 132/78/36
f 176/79/37 177/80/38 180/81/39 179/82/40
f 177/83/38 178/84/41 181/85/42 180/86/39
f 179/82/40 180/81/39 183/87/43 182/88/44
f 180/86/39 181/85/42 184/89/45 183/90/43
f 125/77/35 142/75/33 176/79/37 145/91/46
f 142/75/33 141/74/32 177/80/38 176/79/37
f 141/73/32 140/72/31 178/84/41 177/83/38
f 140/72/31 126/71/30 146/92/47 178/84/41
f 178/84/41 146/92/47 147/93/48 181/85/42
f 181/85/42 147/93/48 148/94/49 184/89/45
f 184/89/45 148/94/49 130/95/50 149/96/51
f 183/90/43 184/89/45 149/96/51 150/97/52
f 182/88/44 183/87/43 150/98/52 151/99/53
f 143/100/54 182/88/44 151/99/53 129/101/55
f 144/102/56 179/82/40 182/88/44 143/100/54
f 145/91/46 176/79/37 179/82/40 144/102/56
f 185/103/57 186/104/58 189/105/9 188/106/59
f 186/107/58 187/108/60 190/106/61 189/105/9
f 188/106/59 189/105/9 192/109/62 191/110/63
f 189/105/9 190/106/61 193/103/64 192/111/62
f 129/101/55 151/99/53 185/103/57 154/112/65
f 151/99/53 150/98/52 186/104/58 185/103/57
f 150/97/52 149/96/51 187/108/60 186/107/58
f 149/96/51 130/95/50 155/113/66 187/108/60
f 187/108/60 155/113/66 156/114/67 190/106/61
f 190/106/61 156/114/67 157/112/68 193/103/64
f 193/103/64 157/112/68 128/115/69 158/116/70
f 192/111/62 193/103/64 158/116/70 159/98/71
f 191/110/63 192/109/62 159/117/71 160/118/72
f 152/119/73 191/110/63 160/118/72 127/120/74
f 153/114/75 188/106/59 191/110/63 152/119/73
f 154/112/65 185/103/57 188/106/59 153/114/75
f 194/121/76 195/90/77 198/122/78 197/85/79
f 195/123/77 196/124/80 199/125/81 198/126/78
f 197/85/79 198/122/78 201/83/82 200/127/83
f 198/126/78 199/125/81 202/128/84 201/80/82
f 127/120/74 160/118/72 194/121/76 163/129/85
f 160/118/72 159/117/71 195/90/77 194/121/76
f 159/98/71 158/116/70 196/124/80 195/123/77
f 158/116/70 128/115/69 164/130/86 196/124/80
f 196/124/80 164/130/86 165/131/87 199/125/81
f 199/125/81 165/131/87 166/132/88 202/128/84
f 202/128/84 166/132/88 124/68/26 136/67/25
f 201/80/82 202/128/84 136/67/25 135/66/24
f 200/127/83 201/83/82 135/65/24 134/63/22
f 161/133/89 200/127/83 134/63/22 123/62/21
f 162/93/90 197/85/79 200/127/83 161/133/89
f 163/129/85 194/121/76 197/85/79 162/93/90
f 203/134/91 204/135/92 207/136/93 206/137/94
f 204/135/92 205/138/95 208/139/96 207/136/93
f 206/137/94 207/136/93 210/140/97 209/141/98
f 207/136/93 208/139/96 211/142/99 210/140/97
f 125/77/35 145/91/46 203/134/91 131/76/34
f 145/91/46 144/102/56 204/135/92 203/134/91
f 144/102/56 143/100/54 205/138/95 204/135/92
f 143/100/54 129/101/55 154/112/65 205/138/95
f 205/138/95 154/112/65 153/114/75 208/139/96
f 208/139/96 153/114/75 152/119/73 211/142/99
f 211/142/99 152/119/73 127/120/74 163/129/85
f 210/140/97 211/142/99 163/129/85 162/93/90
f 209/141/98 210/140/97 162/93/90 161/133/89
f 133/64/23 209/141/98 161/133/89 123/62/21
f 132/78/36 206/137/94 209/141/98 133/64/23
f 131/76/34 203/134/91 206/137/94 132/78/36
f 212/142/100 213/140/101 216/143/102 215/139/103
f 213/140/101 214/141/104 217/144/105 216/143/102
f 215/139/103 216/143/102 219/135/106 218/138/107
f 216/143/102 217/144/105 220/145/108 219/135/106
f 130/95/50 148/94/49 212/142/100 155/113/66
f 148/94/49 147/93/48 213/140/101 212/142/100
f 147/93/48 146/92/47 214/141/104 213/140/101
f 146/92/47 126/71/30 139/64/29 214/141/104
f 214/141/104 139/64/29 138/70/28 217/144/105
f 217/144/105 138/70/28 137/69/27 220/145/108
f 220/145/108 137/69/27 124/68/26 166/132/88
f 219/135/106 220/145/108 166/132/88 165/131/87
f 218/138/107 219/135/106 165/131/87 164/130/86
f 157/112/68 218/138/107 164/130/86 128/115/69
f 156/114/67 215/139/103 218/138/107 157/112/68
f 155/113/66 212/142/100 215/139/103 156/114/67
s 0
f 221/1/109 223/2/109 224/3/109 222/4/109
f 223/2/110 227/5/110 228/6/110 224/3/110
f 227/5/111 225/7/111 226/8/111 228/6/111
f 225/7/112 221/146/112 222/147/112 226/8/112
f 223/11/113 221/12/113 225/7/113 227/5/113
f 228/6/114 226/8/114 222/13/114 224/14/114
