# Blender 4.0.2
# www.blender.org
o Bake
v -2.000000 1.749970 2.500000
v 2.000000 1.749970 2.500000
v 2.000000 1.749970 -2.500000
v -2.000000 1.749970 -2.500000
v -2.000000 -0.250580 2.500000
v 2.000000 -0.250580 2.500000
v 2.000000 -0.250580 -2.500000
v -2.000000 -0.250580 -2.500000
v -2.100000 1.700520 2.600000
v 2.100000 1.700520 2.600000
v 2.100000 1.700520 -2.600000
v -2.100000 1.700520 -2.600000
v 0.000000 2.750520 -2.600000
v 0.000000 2.750520 2.600000
v 2.100000 1.800520 -2.600000
v 0.000000 2.850520 -2.600000
v 0.000000 2.850520 2.600000
v 2.100000 1.800520 2.600000
v -2.100000 1.800520 -2.600000
v -2.100000 1.800520 2.600000
v 0.000000 2.750520 -2.500000
v 0.000000 2.750520 2.500000
v -0.500000 -0.250580 2.500000
v 0.500000 -0.250580 2.500000
v -0.500000 1.749420 2.500000
v 0.500000 1.749420 2.500000
v -0.500000 1.549420 2.500000
v -0.400000 -0.250580 2.500000
v 0.400000 -0.250580 2.500000
v 0.500000 1.549420 2.500000
v -0.400000 1.449420 2.500000
v 0.400000 1.449420 2.500000
v -0.400000 -0.250580 2.450000
v 0.400000 -0.250580 2.450000
v 0.400000 1.449420 2.450000
v -0.400000 1.449420 2.450000
v 0.000000 -0.250580 2.450000
v 0.000000 1.449420 2.450000
v 2.000000 -0.250580 1.878750
v 2.000000 -0.250580 0.928750
v 2.000000 1.749420 1.878750
v 2.000000 1.749420 0.928750
v 2.000000 1.009420 1.878750
v 2.000000 1.009420 0.928750
v 2.000000 1.409420 0.928750
v 2.000000 1.409420 1.878750
v 2.000000 1.058420 1.829750
v 2.000000 1.360420 1.829750
v 2.000000 1.058420 0.977750
v 2.000000 1.360420 0.977750
v 1.950000 1.058420 1.829750
v 1.950000 1.058420 0.977750
v 1.950000 1.360420 0.977750
v 1.950000 1.360420 1.829750
v 2.000000 -0.250580 0.193117
v 2.000000 -0.250580 -0.756867
v 2.000000 1.749420 0.193117
v 2.000000 1.749420 -0.756867
v 2.000000 1.019420 -0.756872
v 2.000000 1.019420 0.193122
v 2.000000 1.419420 -0.756872
v 2.000000 1.419420 0.193122
v 2.000000 1.068420 0.144122
v 2.000000 1.370420 0.144122
v 2.000000 1.068420 -0.707872
v 2.000000 1.370420 -0.707872
v 1.950000 1.068420 0.144122
v 1.950000 1.068420 -0.707872
v 1.950000 1.370420 -0.707872
v 1.950000 1.370420 0.144122
v 2.000000 -0.250580 -1.179678
v 2.000000 -0.250580 -2.129689
v 2.000000 1.749420 -1.179678
v 2.000000 1.749420 -2.129689
v 2.000000 1.019420 -1.179678
v 2.000000 1.419420 -1.179678
v 2.000000 1.019420 -2.129689
v 2.000000 1.419420 -2.129689
v 2.000000 1.068420 -1.228682
v 2.000000 1.370420 -1.228682
v 2.000000 1.068420 -2.080685
v 2.000000 1.370420 -2.080685
v 1.950000 1.068420 -1.228682
v 1.950000 1.068420 -2.080685
v 1.950000 1.370420 -2.080685
v 1.950000 1.370420 -1.228682
v 0.448750 -0.250580 -2.500000
v -0.501250 -0.250580 -2.500000
v 0.448750 1.019420 -2.500000
v 0.448750 1.419420 -2.500000
v -2.000000 1.749420 0.501250
v -0.501250 1.419420 -2.500000
v -0.501250 1.019420 -2.500000
v -2.000000 1.749420 -0.448750
v -2.000000 -0.250580 0.501250
v -2.000000 -0.250580 -0.448750
v 0.399750 1.068420 -2.500000
v 0.399750 1.370420 -2.500000
v -0.452250 1.068420 -2.500000
v -0.452250 1.370420 -2.500000
v 0.399750 1.068420 -2.450000
v -0.452250 1.068420 -2.450000
v -0.452250 1.370420 -2.450000
v 0.399750 1.370420 -2.450000
v -2.000000 1.749420 2.001883
v -2.000000 1.419420 0.501250
v -2.000000 1.749420 1.051867
v -2.000000 -0.250580 2.001883
v -2.000000 1.019420 0.501250
v -2.000000 1.019420 -0.448750
v -2.000000 -0.250580 1.051867
v -2.000000 1.419420 -0.448750
v -2.000000 1.068420 -0.399750
v -2.000000 1.370420 -0.399750
v -2.000000 1.068420 0.452250
v -2.000000 1.370420 0.452250
v -1.950000 1.068420 -0.399750
v -1.950000 1.068420 0.452250
v -1.950000 1.370420 0.452250
v -1.950000 1.370420 -0.399750
v -2.000000 1.019420 2.001883
v -2.000000 -0.250580 -0.973117
v -2.000000 -0.250580 -1.923133
v -2.000000 1.749420 -0.973117
v -2.000000 1.749420 -1.923133
v -2.000000 1.019420 1.051872
v -2.000000 1.419420 2.001878
v -2.000000 1.419420 1.051872
v -2.000000 1.068420 1.100872
v -2.000000 1.370420 1.100872
v -2.000000 1.068420 1.952878
v -2.000000 1.370420 1.952878
v -1.950000 1.068420 1.100872
v -1.950000 1.068420 1.952878
v -1.950000 1.370420 1.952878
v -1.950000 1.370420 1.100872
v -2.000000 1.419420 -0.973117
v -2.000000 1.019420 -0.973122
v -2.000000 1.019420 -1.923128
v -2.000000 1.419420 -1.923128
v -2.000000 1.068420 -1.874128
v -2.000000 1.370420 -1.874128
v -2.000000 1.068420 -1.022122
v -2.000000 1.370420 -1.022122
v -1.950000 1.068420 -1.874128
v -1.950000 1.068420 -1.022122
v -1.950000 1.370420 -1.022122
v -1.950000 1.370420 -1.874128
v 1.050000 2.225520 2.600000
v 1.050000 2.325520 2.600000
v 1.000000 2.250245 2.500000
v 1.050000 2.225520 -2.600000
v 1.050000 2.325520 -2.600000
v 1.000000 2.250245 -2.500000
v -1.050000 2.225520 2.600000
v -1.050000 2.325520 2.600000
v -1.000000 2.250245 2.500000
v 0.668069 1.749970 -2.500000
v -0.978104 2.361468 -2.600000
v -0.937592 2.281724 -2.600000
v -0.938870 2.280827 -2.500000
v -0.669179 1.749970 -2.500000
v -2.000000 1.419420 -2.500000
v -2.000000 1.019420 -2.500000
v 2.000000 1.419420 -2.500000
v 2.000000 1.019420 -2.500000
v 2.000000 1.450421 2.500000
v -2.000000 1.451828 2.500000
v -2.000000 1.030276 2.500000
v -0.500000 1.079072 2.500000
v -0.400000 1.029072 2.500000
v 0.400000 1.029072 2.500000
v 0.400000 1.029072 2.450000
v -0.400000 1.029072 2.450000
v 0.000000 1.029072 2.450000
v 0.500000 1.079072 2.500000
v 2.000000 1.029573 2.500000
v -2.097520 -0.454676 2.563891
v -2.097520 -0.255220 2.563891
v -2.097520 -0.454676 -2.637120
v -2.097520 -0.255220 -2.637120
v 2.098753 -0.454676 2.563891
v 2.098753 -0.255220 2.563891
v 2.098753 -0.454676 -2.637120
v 2.098753 -0.255220 -2.637120
vn -0.0000 -0.0000 1.0000
vn -1.0000 -0.0000 -0.0000
vn 1.0000 -0.0000 -0.0000
vn -0.0000 -0.0000 -1.0000
vn -0.4451 -0.8955 -0.0018
vn -0.4451 -0.8955 0.0018
vn -0.4453 -0.8954 0.0019
vn -0.4453 -0.8954 -0.0019
vn -0.8507 0.5257 -0.0000
vn 0.8507 0.5257 -0.0000
vn 0.4473 -0.8944 -0.0024
vn -0.0000 -1.0000 -0.0013
vn -0.4473 -0.8944 -0.0029
vn -0.4473 -0.8944 -0.0021
vn -0.4473 -0.8944 0.0029
vn -0.0000 -1.0000 0.0014
vn -0.4473 -0.8944 0.0021
vn 0.4473 -0.8944 0.0029
vn 0.4433 -0.8964 0.0018
vn 0.4436 -0.8962 0.0019
vn 0.4473 -0.8944 0.0021
vn 0.4472 0.8944 -0.0000
vn -0.0000 1.0000 -0.0000
vn -0.4472 0.8944 -0.0000
vn -0.0000 -1.0000 -0.0000
vn 0.4398 -0.8981 -0.0000
vn 0.4433 -0.8964 -0.0017
vn 0.4436 -0.8962 -0.0019
vt 0.789484 0.738163
vt 0.800726 0.908508
vt 0.766709 0.908508
vt 0.766771 0.738163
vt 0.201191 0.061086
vt 0.204973 0.002956
vt 0.239766 0.002956
vt 0.239702 0.061086
vt 0.201036 0.044156
vt 0.201036 0.000781
vt 0.239754 0.000781
vt 0.239690 0.044156
vt 0.766771 0.624600
vt 0.709896 0.567818
vt 0.766709 0.454255
vt 0.274444 0.452232
vt 0.273099 0.399565
vt 0.272450 0.319002
vt 0.272605 0.256617
vt 0.272343 0.176056
vt 0.272379 0.140198
vt 0.273470 0.059640
vt 0.274444 0.028250
vt 0.108256 0.828607
vt 0.108256 0.940104
vt 0.063780 0.851202
vt 0.283903 0.019770
vt 0.283903 0.460712
vt 0.388137 0.012185
vt 0.487682 0.012185
vt 0.491474 0.019770
vt 0.391929 0.019770
vt 0.274434 0.461477
vt 0.274434 0.019148
vt 0.282941 0.019148
vt 0.282941 0.461477
vt 0.378996 0.011539
vt 0.478855 0.011539
vt 0.482659 0.019148
vt 0.382800 0.019148
vt 0.292383 0.019770
vt 0.292383 0.460712
vt 0.389686 0.469085
vt 0.279137 0.469085
vt 0.389637 0.461477
vt 0.388137 0.468296
vt 0.288591 0.468296
vt 0.391929 0.460712
vt 0.478855 0.469085
vt 0.478855 0.477592
vt 0.389555 0.477592
vt 0.288591 0.012185
vt 0.298050 0.003706
vt 0.392866 0.003706
vt 0.487682 0.468296
vt 0.487682 0.476776
vt 0.392866 0.476776
vt 0.279137 0.011539
vt 0.288626 0.003033
vt 0.383740 0.003033
vt 0.491474 0.460712
vt 0.482659 0.461477
vt 0.800567 0.454255
vt 0.789484 0.624600
vt 0.458045 0.743180
vt 0.477166 0.752686
vt 0.477368 0.842519
vt 0.458226 0.823463
vt 0.286174 0.753118
vt 0.305252 0.743525
vt 0.305433 0.823808
vt 0.286377 0.842950
vt 0.661230 0.085652
vt 0.586186 0.085652
vt 0.586186 0.006791
vt 0.661230 0.006791
vt 0.511142 0.085652
vt 0.511142 0.006791
vt 0.968795 0.232091
vt 0.968795 0.301739
vt 0.964442 0.301739
vt 0.964442 0.266915
vt 0.964442 0.232091
vt 0.968795 0.338335
vt 0.968795 0.449741
vt 0.964442 0.449741
vt 0.964442 0.338335
vt 0.968795 0.195496
vt 0.964442 0.195496
vt 0.204667 0.586447
vt 0.199865 0.513678
vt 0.239690 0.513678
vt 0.239754 0.586447
vt 0.199865 0.402401
vt 0.239690 0.402401
vt 0.005423 0.513678
vt 0.005423 0.402401
vt 0.153011 0.402401
vt 0.153011 0.513678
vt 0.716348 0.005021
vt 0.887796 0.005021
vt 0.866794 0.026023
vt 0.737350 0.026023
vt 0.716348 0.412210
vt 0.737350 0.391207
vt 0.866794 0.391207
vt 0.887796 0.412210
vt 0.716348 0.005022
vt 0.737350 0.026024
vt 0.515254 0.704403
vt 0.515254 0.339218
vt 0.644697 0.339218
vt 0.644697 0.704403
vt 0.927535 0.201769
vt 0.927535 0.280765
vt 0.922899 0.280765
vt 0.922899 0.201769
vt 0.927535 0.173768
vt 0.922899 0.173768
vt 0.927535 0.308767
vt 0.922899 0.308767
vt 0.927535 0.387763
vt 0.922899 0.387763
vt 0.201036 0.316235
vt 0.239690 0.316234
vt 0.201036 0.204959
vt 0.239690 0.204960
vt 0.005423 0.316234
vt 0.005423 0.204960
vt 0.154183 0.204959
vt 0.154183 0.316235
vt 0.716632 0.005021
vt 0.888080 0.005022
vt 0.867077 0.026023
vt 0.737634 0.026023
vt 0.716632 0.412208
vt 0.737634 0.391206
vt 0.867077 0.391205
vt 0.888080 0.412208
vt 0.716631 0.005022
vt 0.737634 0.026024
vt 0.643169 0.339218
vt 0.643169 0.704400
vt 0.513726 0.704400
vt 0.513726 0.339218
vt 0.927840 0.201829
vt 0.927840 0.280825
vt 0.923204 0.280825
vt 0.923204 0.201829
vt 0.927840 0.173828
vt 0.923204 0.173828
vt 0.927840 0.308826
vt 0.923204 0.308826
vt 0.927840 0.387823
vt 0.923204 0.387823
vt 0.201036 0.155434
vt 0.239690 0.155434
vt 0.005423 0.155434
vt 0.005423 0.044157
vt 0.154183 0.044157
vt 0.154183 0.155434
vt 0.886511 0.411830
vt 0.715063 0.411830
vt 0.736066 0.390826
vt 0.865509 0.390826
vt 0.886511 0.004636
vt 0.865509 0.025640
vt 0.736066 0.025640
vt 0.715063 0.004636
vt 0.886512 0.411830
vt 0.865509 0.390826
vt 0.515246 0.704405
vt 0.515246 0.339219
vt 0.644689 0.339219
vt 0.644689 0.704405
vt 0.927125 0.309096
vt 0.927125 0.388093
vt 0.922489 0.388093
vt 0.922489 0.309096
vt 0.927125 0.202098
vt 0.927125 0.281095
vt 0.922489 0.281095
vt 0.922489 0.202098
vt 0.927125 0.174097
vt 0.922489 0.174097
vt 0.169462 0.814538
vt 0.275864 0.814538
vt 0.275864 0.940104
vt 0.169462 0.940104
vt 0.275864 0.734946
vt 0.169462 0.734946
vt 0.716647 0.005021
vt 0.888095 0.005021
vt 0.867093 0.026023
vt 0.737650 0.026023
vt 0.716648 0.412210
vt 0.737650 0.391207
vt 0.867093 0.391207
vt 0.888096 0.412210
vt 0.716647 0.005022
vt 0.201191 0.408264
vt 0.201191 0.347072
vt 0.239702 0.347072
vt 0.239702 0.408264
vt 0.513718 0.704402
vt 0.513718 0.339218
vt 0.643161 0.339218
vt 0.643161 0.704402
vt 0.927527 0.173213
vt 0.927527 0.201214
vt 0.922891 0.201214
vt 0.922891 0.173213
vt 0.927527 0.280210
vt 0.927527 0.308212
vt 0.922891 0.308212
vt 0.922891 0.280210
vt 0.927527 0.387208
vt 0.922891 0.387208
vt 0.201191 0.236208
vt 0.239702 0.236208
vt 0.006304 0.347072
vt 0.006304 0.236208
vt 0.154512 0.236208
vt 0.154512 0.347072
vt 0.715361 0.005021
vt 0.886809 0.005021
vt 0.865807 0.026023
vt 0.736363 0.026023
vt 0.715361 0.412210
vt 0.736363 0.391207
vt 0.865807 0.391207
vt 0.886809 0.412210
vt 0.201191 0.171951
vt 0.239702 0.171952
vt 0.515887 0.704402
vt 0.515887 0.339218
vt 0.645330 0.339218
vt 0.645330 0.704402
vt 0.927071 0.308336
vt 0.927071 0.387333
vt 0.922436 0.387333
vt 0.922435 0.308336
vt 0.927071 0.201339
vt 0.927071 0.280335
vt 0.922435 0.280335
vt 0.922435 0.201338
vt 0.927071 0.173337
vt 0.922435 0.173337
vt 0.006304 0.171952
vt 0.006304 0.061086
vt 0.154512 0.061086
vt 0.154512 0.171951
vt 0.715377 0.005021
vt 0.886825 0.005024
vt 0.865823 0.026025
vt 0.736380 0.026025
vt 0.715377 0.412214
vt 0.736380 0.391213
vt 0.865823 0.391213
vt 0.886825 0.412214
vt 0.715378 0.005021
vt 0.201191 0.586450
vt 0.201191 0.519130
vt 0.239702 0.519130
vt 0.239766 0.586450
vt 0.645322 0.339218
vt 0.645322 0.704405
vt 0.515879 0.704405
vt 0.515879 0.339219
vt 0.927702 0.201790
vt 0.927702 0.280787
vt 0.923066 0.280787
vt 0.923066 0.201790
vt 0.927702 0.173789
vt 0.923066 0.173789
vt 0.927702 0.308789
vt 0.923066 0.308789
vt 0.927702 0.387786
vt 0.923066 0.387786
vt 0.006304 0.519130
vt 0.006304 0.408264
vt 0.154511 0.408265
vt 0.154512 0.519130
vt 0.886683 0.412212
vt 0.715235 0.412214
vt 0.736238 0.391209
vt 0.865681 0.391211
vt 0.886683 0.005021
vt 0.865681 0.026023
vt 0.736238 0.026023
vt 0.715235 0.005021
vt 0.886683 0.412212
vt 0.865681 0.391209
vt 0.644818 0.339657
vt 0.644818 0.704843
vt 0.515375 0.704843
vt 0.515375 0.339657
vt 0.927440 0.201343
vt 0.927440 0.280340
vt 0.922804 0.280340
vt 0.922804 0.201343
vt 0.927440 0.173341
vt 0.922804 0.173341
vt 0.927440 0.308341
vt 0.922804 0.308341
vt 0.927440 0.387338
vt 0.922804 0.387338
vt 0.264966 0.070026
vt 0.264945 0.027654
vt 0.264945 0.452971
vt 0.264966 0.403901
vt 0.264966 0.323089
vt 0.264966 0.278485
vt 0.264966 0.197675
vt 0.264966 0.150837
vt 0.298051 0.476776
vt 0.487682 0.003706
vt 0.478855 0.003033
vt 0.108256 0.604981
vt 0.108256 0.716571
vt 0.066342 0.688762
vt 0.135950 0.604981
vt 0.135950 0.734946
vt 0.024429 0.772543
vt 0.288626 0.477592
vt 0.135950 0.814538
vt 0.709896 0.794944
vt 0.653083 0.681381
vt 0.154512 0.586450
vt 0.135950 0.940104
vt 0.006304 0.586450
vt 0.169462 0.604981
vt 0.154183 0.000781
vt 0.275864 0.604981
vt 0.005423 0.000781
vt 0.155372 0.586447
vt 0.842898 0.738163
vt 0.848519 0.908508
vt 0.155779 0.002956
vt 0.848439 0.454255
vt 0.842898 0.624600
vt 0.993897 0.454255
vt 0.993897 0.624600
vt 0.993897 0.738163
vt 0.993897 0.908508
vt 0.968795 0.084089
vt 0.964442 0.084089
vt 0.586186 0.325728
vt 0.511142 0.325728
vt 0.661230 0.325728
vt 0.285601 0.499166
vt 0.304700 0.499123
vt 0.457493 0.498777
vt 0.476592 0.498734
vt 0.006304 0.002956
vt 0.005423 0.586447
vt 0.953740 0.004944
vt 0.967839 0.004944
vt 0.967839 0.019042
vt 0.953740 0.019042
vt 0.967839 0.033140
vt 0.953740 0.033140
vt 0.967839 0.047239
vt 0.953740 0.047239
vt 0.967839 0.061337
vt 0.953740 0.061337
vt 0.939642 0.033140
vt 0.939642 0.047239
vt 0.981937 0.033140
vt 0.981937 0.047239
s 1
f 30/1/1 167/2/1 2/3/1 26/4/1
f 127/5/2 168/6/2 1/7/2 105/8/2
f 78/9/3 165/10/3 3/11/3 74/12/3
f 25/13/1 157/14/1 1/15/1
f 2/16/3 41/17/3 42/18/3 57/19/3 58/20/3 73/21/3 74/22/3 3/23/3
f 162/24/4 4/25/4 161/26/4
f 11/27/5 10/28/6 2/16/7 3/23/8
f 152/29/4 13/30/4 16/31/4 153/32/4
f 12/33/2 9/34/2 20/35/9 19/36/9
f 155/37/1 14/38/1 17/39/1 156/40/1
f 10/28/3 11/27/3 15/41/10 18/42/10
f 160/43/4 12/44/4 19/36/4 159/45/4
f 149/46/1 10/47/1 18/42/1 150/48/1
f 160/43/11 13/49/12 21/50/12 161/51/11
f 152/29/13 11/52/5 3/53/8 154/54/14
f 149/46/15 14/55/16 22/56/16 151/57/17
f 155/37/18 9/58/19 1/59/20 157/60/21
f 153/32/22 16/31/23 17/61/23 150/48/22
f 159/45/24 156/40/24 17/39/23 16/62/23
f 168/63/1 27/64/1 25/13/1 1/15/1
f 27/64/1 30/1/1 26/4/1 25/13/1
f 172/65/1 176/66/1 30/67/1 32/68/1
f 170/69/1 171/70/1 31/71/1 27/72/1
f 31/71/1 32/68/1 30/67/1 27/72/1
f 174/73/1 175/74/1 38/75/1 36/76/1
f 175/74/1 173/77/1 35/78/1 38/75/1
f 32/79/25 31/80/25 36/81/25 38/82/25 35/83/25
f 171/84/3 28/85/3 33/86/3 174/87/3
f 172/88/2 32/79/2 35/83/2 173/89/2
f 167/90/3 46/91/3 41/92/3 2/93/3
f 46/91/3 45/94/3 42/95/3 41/92/3
f 39/96/3 40/97/3 44/98/3 43/99/3
f 44/100/3 45/101/3 50/102/3 49/103/3
f 43/104/3 47/105/3 48/106/3 46/107/3
f 48/106/3 50/102/3 45/101/3 46/107/3
f 43/104/3 44/108/3 49/109/3 47/105/3
f 51/110/3 52/111/3 53/112/3 54/113/3
f 50/114/25 48/115/25 54/116/25 53/117/25
f 49/118/1 50/114/1 53/117/1 52/119/1
f 48/115/4 47/120/4 51/121/4 54/116/4
f 47/120/23 49/122/23 52/123/23 51/121/23
f 45/94/3 62/124/3 57/125/3 42/95/3
f 62/124/3 61/126/3 58/127/3 57/125/3
f 55/128/3 56/129/3 59/130/3 60/131/3
f 59/132/3 61/133/3 66/134/3 65/135/3
f 60/136/3 63/137/3 64/138/3 62/139/3
f 64/138/3 66/134/3 61/133/3 62/139/3
f 60/136/3 59/140/3 65/141/3 63/137/3
f 67/142/3 68/143/3 69/144/3 70/145/3
f 66/146/25 64/147/25 70/148/25 69/149/25
f 65/150/1 66/146/1 69/149/1 68/151/1
f 64/147/4 63/152/4 67/153/4 70/148/4
f 63/152/23 65/154/23 68/155/23 67/153/23
f 61/126/3 76/156/3 73/157/3 58/127/3
f 76/156/3 78/9/3 74/12/3 73/157/3
f 71/158/3 72/159/3 77/160/3 75/161/3
f 77/162/3 78/163/3 82/164/3 81/165/3
f 75/166/3 79/167/3 80/168/3 76/169/3
f 80/168/3 82/164/3 78/163/3 76/169/3
f 75/166/3 77/170/3 81/171/3 79/167/3
f 83/172/3 84/173/3 85/174/3 86/175/3
f 79/176/23 81/177/23 84/178/23 83/179/23
f 82/180/25 80/181/25 86/182/25 85/183/25
f 81/184/1 82/180/1 85/183/1 84/185/1
f 80/181/4 79/176/4 83/179/4 86/182/4
f 93/186/4 88/187/4 8/188/4 164/189/4
f 87/190/4 88/187/4 93/186/4 89/191/4
f 93/192/4 92/193/4 100/194/4 99/195/4
f 89/196/4 97/197/4 98/198/4 90/199/4
f 98/198/4 100/194/4 92/193/4 90/199/4
f 89/196/4 93/200/4 99/195/4 97/197/4
f 137/201/2 112/202/2 94/203/2 124/204/2
f 101/205/4 102/206/4 103/207/4 104/208/4
f 99/209/3 100/210/3 103/211/3 102/212/3
f 98/213/2 97/214/2 101/215/2 104/216/2
f 97/214/23 99/217/23 102/218/23 101/215/23
f 100/210/25 98/213/25 104/216/25 103/211/25
f 112/202/2 106/219/2 91/220/2 94/203/2
f 96/221/2 95/222/2 109/223/2 110/224/2
f 109/225/2 106/226/2 116/227/2 115/228/2
f 110/229/2 113/230/2 114/231/2 112/232/2
f 114/231/2 116/227/2 106/226/2 112/232/2
f 110/229/2 109/225/2 115/228/2 113/230/2
f 106/219/2 128/233/2 107/234/2 91/220/2
f 117/235/2 118/236/2 119/237/2 120/238/2
f 113/239/23 115/240/23 118/241/23 117/242/23
f 116/243/25 114/244/25 120/245/25 119/246/25
f 115/247/4 116/243/4 119/246/4 118/248/4
f 114/244/1 113/239/1 117/242/1 120/245/1
f 128/233/2 127/5/2 105/8/2 107/234/2
f 111/249/2 108/250/2 121/251/2 126/252/2
f 121/253/2 127/254/2 132/255/2 131/256/2
f 126/257/2 129/258/2 130/259/2 128/260/2
f 130/259/2 132/255/2 127/254/2 128/260/2
f 126/257/2 121/261/2 131/256/2 129/258/2
f 163/262/2 140/263/2 125/264/2 4/265/2
f 133/266/2 134/267/2 135/268/2 136/269/2
f 132/270/25 130/271/25 136/272/25 135/273/25
f 131/274/4 132/270/4 135/273/4 134/275/4
f 130/271/1 129/276/1 133/277/1 136/272/1
f 129/276/23 131/278/23 134/279/23 133/277/23
f 140/263/2 137/201/2 124/204/2 125/264/2
f 123/280/2 122/281/2 138/282/2 139/283/2
f 138/284/2 137/285/2 144/286/2 143/287/2
f 139/288/2 141/289/2 142/290/2 140/291/2
f 142/290/2 144/286/2 137/285/2 140/291/2
f 139/288/2 138/292/2 143/293/2 141/289/2
f 145/294/2 146/295/2 147/296/2 148/297/2
f 144/298/25 142/299/25 148/300/25 147/301/25
f 143/302/4 144/298/4 147/301/4 146/303/4
f 142/299/1 141/304/1 145/305/1 148/300/1
f 141/304/23 143/306/23 146/307/23 145/305/23
f 105/308/26 1/309/20 9/34/19 12/33/27 4/310/28 125/311/26 124/312/26 94/313/26 91/314/26 107/315/26
f 10/47/6 149/46/15 151/57/17 2/316/7
f 14/55/1 149/46/1 150/48/1 17/61/1
f 13/30/12 152/29/13 154/54/14 21/317/12
f 11/52/4 152/29/4 153/32/4 15/41/4
f 14/38/16 155/37/18 157/60/21 22/318/16
f 9/58/1 155/37/1 156/40/1 20/35/1
f 15/41/10 153/32/22 150/48/22 18/42/10
f 3/319/4 158/320/4 154/321/4
f 165/322/4 90/323/4 158/320/4 3/319/4
f 154/321/4 161/26/4 21/324/4
f 12/44/27 160/43/11 161/51/11 4/325/28
f 13/49/4 160/43/4 159/45/4 16/62/4
f 19/36/9 20/35/9 156/40/24 159/45/24
f 158/320/4 90/323/4 92/326/4 162/24/4
f 158/320/4 162/24/4 161/26/4 154/321/4
f 26/4/1 2/3/1 151/327/1
f 157/14/1 151/327/1 22/328/1
f 25/13/1 26/4/1 151/327/1 157/14/1
f 59/130/3 75/161/3 76/156/3 61/126/3
f 56/129/3 71/158/3 75/161/3 59/130/3
f 44/98/3 60/131/3 62/124/3 45/94/3
f 40/97/3 55/128/3 60/131/3 44/98/3
f 164/329/2 139/283/2 140/263/2 163/262/2
f 162/24/4 92/326/4 163/330/4 4/25/4
f 8/331/2 123/280/2 139/283/2 164/329/2
f 92/326/4 93/186/4 164/189/4 163/330/4
f 166/332/4 89/191/4 90/323/4 165/322/4
f 77/160/3 166/333/3 165/10/3 78/9/3
f 7/334/4 87/190/4 89/191/4 166/332/4
f 72/159/3 7/335/3 166/333/3 77/160/3
f 138/282/2 110/224/2 112/202/2 137/201/2
f 122/281/2 96/221/2 110/224/2 138/282/2
f 109/223/2 126/252/2 128/233/2 106/219/2
f 95/222/2 111/249/2 126/252/2 109/223/2
f 177/336/3 43/99/3 46/91/3 167/90/3
f 176/337/1 177/338/1 167/2/1 30/1/1
f 121/251/2 169/339/2 168/6/2 127/5/2
f 169/340/1 170/341/1 27/64/1 168/63/1
f 5/342/1 23/343/1 170/341/1 169/340/1
f 24/344/1 6/345/1 177/338/1 176/337/1
f 29/346/2 172/88/2 173/89/2 34/347/2
f 31/80/3 171/84/3 174/87/3 36/81/3
f 37/348/1 34/349/1 173/77/1 175/74/1
f 33/350/1 37/348/1 175/74/1 174/73/1
f 23/351/1 28/352/1 171/70/1 170/69/1
f 29/353/1 24/354/1 176/66/1 172/65/1
f 108/250/2 5/355/2 169/339/2 121/251/2
f 6/356/3 39/96/3 43/99/3 177/336/3
s 0
f 178/357/2 179/358/2 181/359/2 180/360/2
f 180/360/4 181/359/4 185/361/4 184/362/4
f 184/362/3 185/361/3 183/363/3 182/364/3
f 182/364/1 183/363/1 179/365/1 178/366/1
f 180/367/25 184/362/25 182/364/25 178/368/25
f 185/361/23 181/369/23 179/370/23 183/363/23
