# Blender 4.0.2
# www.blender.org
o contenedor_rojo
v 0.250009 0.384768 -0.233552
v 1.212776 2.382123 0.221977
v 1.212776 2.083318 0.221977
v 1.212776 2.382123 0.652673
v 1.266056 0.384768 -0.233552
v 1.212776 2.382123 -0.076828
v 1.212776 2.083318 0.652673
v 1.212776 2.083318 -0.076828
v 0.250009 2.556296 0.274471
v 1.212776 2.382123 0.353868
v 1.266056 2.556296 0.274471
v 1.212776 2.083318 0.353868
v 0.250009 1.960394 -0.233552
v 1.266056 1.960394 -0.233552
v 0.250009 2.409770 -0.182663
v 1.266056 2.409770 -0.182663
v 0.250009 2.556296 0.099410
v 0.250009 2.543051 0.032826
v 1.266056 2.543051 0.032826
v 1.266056 2.556296 0.099410
v 0.250009 2.501409 -0.067708
v 0.250009 2.454459 -0.137973
v 1.266056 2.454459 -0.137973
v 1.266056 2.501409 -0.067708
v 0.250009 2.324028 -0.218178
v 0.250009 2.246735 -0.233552
v 1.266056 2.246735 -0.233552
v 1.266056 2.324028 -0.218178
v 0.250009 0.384768 0.782495
v 1.266056 0.384768 0.782495
v 0.250009 1.960394 0.782495
v 1.266056 1.960394 0.782495
v 0.250009 2.409770 0.731605
v 1.266056 2.409770 0.731605
v 0.250009 2.556296 0.449532
v 0.250009 2.543051 0.516117
v 1.266056 2.543051 0.516117
v 1.266056 2.556296 0.449532
v 0.250009 2.501409 0.616650
v 0.250009 2.454459 0.686915
v 1.266056 2.454459 0.686915
v 1.266056 2.501409 0.616650
v 0.250009 2.324028 0.767120
v 0.250009 2.246735 0.782495
v 1.266056 2.246735 0.782495
v 1.266056 2.324028 0.767120
v 1.266056 1.978803 -0.210243
v 1.266056 1.978803 0.274471
v 1.266056 2.547363 0.107443
v 1.266056 2.534726 0.043913
v 1.266056 2.547363 0.274471
v 1.266056 2.494995 -0.052007
v 1.266056 2.450199 -0.119048
v 1.266056 2.407560 -0.161688
v 1.266056 2.325752 -0.195574
v 1.266056 2.252006 -0.210243
v 1.266056 1.978803 0.759185
v 1.266056 2.547363 0.441500
v 1.266056 2.534726 0.505029
v 1.266056 2.494995 0.600950
v 1.266056 2.450199 0.667991
v 1.266056 2.407560 0.710630
v 1.266056 2.325752 0.744516
v 1.266056 2.252006 0.759185
v 1.242434 1.978803 -0.210243
v 1.242434 1.978803 0.274471
v 1.242434 2.547363 0.107443
v 1.242434 2.534726 0.043913
v 1.242434 2.547363 0.274471
v 1.242434 2.494995 -0.052007
v 1.242434 2.450199 -0.119048
v 1.242434 2.407560 -0.161688
v 1.242434 2.325752 -0.195574
v 1.242434 2.252006 -0.210243
v 1.242434 1.978803 0.759185
v 1.242434 2.547363 0.441500
v 1.242434 2.534726 0.505029
v 1.242434 2.494995 0.600950
v 1.242434 2.450199 0.667991
v 1.242434 2.407560 0.710630
v 1.242434 2.325752 0.744516
v 1.242434 2.252006 0.759185
v 1.242434 2.009042 -0.171954
v 1.242434 2.009042 0.274471
v 1.242434 2.532690 0.120637
v 1.242434 2.521051 0.062126
v 1.242434 2.532690 0.274471
v 1.242434 2.484458 -0.026218
v 1.242434 2.443201 -0.087964
v 1.242434 2.403930 -0.127235
v 1.242434 2.328585 -0.158444
v 1.242434 2.260664 -0.171954
v 1.242434 2.009042 0.720897
v 1.242434 2.532690 0.428306
v 1.242434 2.521051 0.486817
v 1.242434 2.484458 0.575161
v 1.242434 2.443201 0.636906
v 1.242434 2.403930 0.676177
v 1.242434 2.328585 0.707387
v 1.242434 2.260664 0.720897
v 1.224630 2.009042 -0.171954
v 1.224630 2.009042 0.274471
v 1.224630 2.532690 0.120637
v 1.224630 2.521051 0.062126
v 1.224630 2.532690 0.274471
v 1.224630 2.484458 -0.026218
v 1.224630 2.443201 -0.087964
v 1.224630 2.403930 -0.127235
v 1.224630 2.328585 -0.158444
v 1.224630 2.260664 -0.171954
v 1.224630 2.009042 0.720897
v 1.224630 2.532690 0.428306
v 1.224630 2.521051 0.486817
v 1.224630 2.484458 0.575161
v 1.224630 2.443201 0.636906
v 1.224630 2.403930 0.676177
v 1.224630 2.328585 0.707387
v 1.224630 2.260664 0.720897
v 1.266056 0.411954 -0.216021
v 1.266056 0.411954 0.764964
v 1.266056 1.933208 -0.216021
v 1.266056 1.933208 0.764964
v 1.280489 0.411954 -0.216021
v 1.280489 0.411954 0.764964
v 1.350918 1.933208 -0.216021
v 1.350918 1.933208 0.764964
v 1.224630 2.521051 0.274471
v 1.224630 2.484458 0.274471
v 1.224630 2.443201 0.274471
v 1.224630 2.403930 0.274471
v 1.224630 2.328585 0.274471
v 1.224630 2.260664 0.274471
v 1.224630 2.260664 0.652673
v 1.224630 2.083318 0.353868
v 1.224630 2.260664 0.353868
v 1.224630 2.083318 0.652673
v 1.224630 2.328585 0.652673
v 1.224630 2.328585 0.353868
v 1.224630 2.382123 0.353868
v 1.224630 2.382123 0.652673
v 1.224630 2.328585 0.221977
v 1.224630 2.328585 -0.076828
v 1.224630 2.260664 -0.076828
v 1.224630 2.260664 0.221977
v 1.224630 2.382123 -0.076828
v 1.224630 2.382123 0.221977
v 1.224630 2.083318 -0.076828
v 1.224630 2.083318 0.221977
v 1.224630 2.382123 0.274471
v 1.224630 2.083318 0.274471
vn -0.0000 -0.0000 -1.0000
vn -0.0000 1.0000 -0.0000
vn 1.0000 -0.0000 -0.0000
vn -0.0000 0.9808 -0.1951
vn -0.0000 0.7071 -0.7071
vn -0.0000 0.8315 -0.5556
vn -0.0000 0.9239 -0.3827
vn -0.0000 0.1951 -0.9808
vn -0.0000 0.3827 -0.9239
vn -0.0000 -0.0000 1.0000
vn -0.0000 -0.9808 -0.1951
vn -1.0000 -0.0000 -0.0000
vn -0.0000 0.9808 0.1951
vn -0.0000 0.7071 0.7071
vn -0.0000 0.8315 0.5556
vn -0.0000 0.9239 0.3827
vn -0.0000 0.1951 0.9808
vn -0.0000 0.3827 0.9239
vn -0.0000 -0.8315 0.5556
vn -0.0000 -1.0000 -0.0000
vn -0.0000 -0.9239 0.3827
vn -0.0000 -0.8315 -0.5556
vn -0.0000 -0.7071 0.7071
vn -0.0000 -0.9239 -0.3827
vn -0.0000 -0.1951 0.9808
vn -0.0000 -0.7071 -0.7071
vn -0.0000 -0.3827 0.9239
vn -0.0000 -0.1951 -0.9808
vn -0.0000 -0.9808 0.1951
vn -0.0000 -0.3827 -0.9239
vn 0.9989 -0.0462 -0.0000
vt 0.000163 0.999837
vt 0.000163 0.688926
vt 0.200655 0.688926
vt 0.200655 0.999837
vt 0.200655 0.534544
vt 0.000163 0.534544
vt 0.000163 0.500000
vt 0.200655 0.500000
vt 0.715938 0.044612
vt 0.742407 0.044794
vt 0.743999 0.050754
vt 0.718758 0.050129
vt 0.639804 0.207838
vt 0.640766 0.330530
vt 0.635413 0.337352
vt 0.635413 0.076006
vt 0.640273 0.080439
vt 0.000163 0.632423
vt 0.200655 0.632423
vt 0.200655 0.547940
vt 0.000163 0.547940
vt 0.000163 0.586088
vt 0.200655 0.586088
vt 0.200655 0.598559
vt 0.000163 0.598559
vt 0.000163 0.569413
vt 0.200655 0.569413
vt 0.000163 0.616872
vt 0.200655 0.616872
vt 0.000163 0.000163
vt 0.200655 0.000163
vt 0.200655 0.311074
vt 0.000163 0.311074
vt 0.230134 0.337352
vt 0.237126 0.332842
vt 0.628420 0.332843
vt 0.200655 0.465456
vt 0.000163 0.465456
vt 0.830415 0.223879
vt 0.828922 0.245998
vt 0.821094 0.244673
vt 0.822789 0.224044
vt 0.728881 0.364662
vt 0.749000 0.368663
vt 0.771317 0.377908
vt 0.782950 0.389540
vt 0.795170 0.407829
vt 0.806009 0.433997
vt 0.809457 0.451328
vt 0.809457 0.496895
vt 0.809457 0.542461
vt 0.806009 0.559792
vt 0.795170 0.585960
vt 0.782950 0.604249
vt 0.771317 0.615882
vt 0.749000 0.625126
vt 0.728881 0.629128
vt 0.654350 0.629128
vt 0.244231 0.629128
vt 0.244231 0.364662
vt 0.654350 0.364662
vt 0.200655 0.367577
vt 0.000163 0.367577
vt 0.000163 0.452060
vt 0.200655 0.452060
vt 0.000163 0.413912
vt 0.000163 0.401441
vt 0.200655 0.401441
vt 0.200655 0.413912
vt 0.200655 0.430587
vt 0.000163 0.430587
vt 0.200655 0.383128
vt 0.000163 0.383128
vt 0.833701 0.226132
vt 0.832203 0.249425
vt 0.781220 0.068754
vt 0.802711 0.095559
vt 0.801102 0.099646
vt 0.780755 0.074017
vt 0.812532 0.115481
vt 0.825378 0.169995
vt 0.822637 0.170518
vt 0.810380 0.118700
vt 0.790822 0.330430
vt 0.759969 0.345248
vt 0.760413 0.337150
vt 0.789577 0.322729
vt 0.821624 0.286014
vt 0.818860 0.280728
vt 0.760270 0.052605
vt 0.760983 0.058485
vt 0.695959 0.049570
vt 0.698999 0.053781
vt 0.806751 0.312702
vt 0.804786 0.305970
vt 0.732575 0.349484
vt 0.734632 0.342348
vt 0.883854 0.631521
vt 0.904734 0.636629
vt 0.898606 0.640711
vt 0.879438 0.636203
vt 0.775677 0.079181
vt 0.757319 0.064608
vt 0.815254 0.171944
vt 0.794804 0.103514
vt 0.798113 0.301118
vt 0.811344 0.277569
vt 0.742358 0.057313
vt 0.719331 0.056390
vt 0.700803 0.059996
vt 0.784340 0.316008
vt 0.733938 0.334982
vt 0.757684 0.329347
vt 0.646586 0.083816
vt 0.803248 0.121350
vt 0.645577 0.207797
vt 0.647285 0.323571
vt 0.830329 0.636088
vt 0.878722 0.641770
vt 0.830376 0.641774
vt 0.707366 0.673192
vt 0.726179 0.655086
vt 0.734912 0.657291
vt 0.717395 0.673481
vt 0.830294 0.631521
vt 0.755790 0.638344
vt 0.762136 0.642228
vt 0.934667 0.652009
vt 0.953897 0.668984
vt 0.944048 0.669705
vt 0.926172 0.654540
vt 0.697438 0.689284
vt 0.707738 0.688104
vt 0.696451 0.734124
vt 0.693882 0.714729
vt 0.703542 0.711338
vt 0.704075 0.730139
vt 0.964293 0.684259
vt 0.954253 0.683573
vt 0.842213 0.800637
vt 0.712027 0.794862
vt 0.720180 0.787220
vt 0.842068 0.794579
vt 0.968599 0.708530
vt 0.966844 0.726810
vt 0.959179 0.723162
vt 0.959441 0.705723
vt 0.776744 0.632341
vt 0.781311 0.636940
vt 0.955501 0.788204
vt 0.947196 0.781706
vt 0.764268 0.647562
vt 0.738249 0.661860
vt 0.940164 0.673368
vt 0.923135 0.659204
vt 0.721658 0.677059
vt 0.712568 0.690133
vt 0.896752 0.646081
vt 0.708349 0.711650
vt 0.709033 0.729467
vt 0.949731 0.685884
vt 0.723260 0.782829
vt 0.841825 0.789796
vt 0.955229 0.722924
vt 0.954888 0.706306
vt 0.782240 0.642645
vt 0.943599 0.777890
vt 0.835140 0.821687
vt 0.835037 0.817939
vt 0.884922 0.815821
vt 0.904154 0.818810
vt 0.263341 0.970279
vt 0.263341 0.752964
vt 0.266538 0.752964
vt 0.266538 0.970279
vt 0.230134 0.076006
vt 0.628420 0.080516
vt 0.237126 0.080516
vt 0.603898 0.752964
vt 0.603898 0.970279
vt 0.603029 0.989059
vt 0.266390 0.973473
vt 0.622698 0.752964
vt 0.622698 0.970279
vt 0.266390 0.749771
vt 0.603029 0.734185
vt 0.970348 0.967978
vt 0.966116 0.904581
vt 0.988266 0.902050
vt 0.994335 0.990736
vt 0.981244 0.879425
vt 0.963401 0.881092
vt 0.838253 0.906569
vt 0.836832 0.883819
vt 0.862906 0.882855
vt 0.863686 0.905937
vt 0.863306 0.865752
vt 0.836018 0.866251
vt 0.835905 0.859679
vt 0.968137 0.854712
vt 0.960646 0.861574
vt 0.835698 0.846915
vt 0.954606 0.842305
vt 0.835428 0.833530
vt 0.933667 0.829582
vt 0.693951 0.903001
vt 0.698437 0.881843
vt 0.722693 0.882002
vt 0.722563 0.903883
vt 0.821974 0.907879
vt 0.819854 0.885223
vt 0.817618 0.866660
vt 0.708437 0.859725
vt 0.720644 0.847368
vt 0.739863 0.834297
vt 0.767504 0.822504
vt 0.786014 0.818580
vt 0.725681 0.962045
vt 0.693406 0.985817
vt 0.869337 0.965945
vt 0.872642 0.962713
vt 0.965925 0.963005
vt 0.957511 0.866257
vt 0.866268 0.868544
vt 0.842177 0.990736
vt 0.729024 0.959014
vt 0.820556 0.963011
vt 0.824657 0.968035
vt 0.814539 0.870973
vt 0.726392 0.868637
vt 0.723661 0.865818
vt 0.841824 0.967435
s 0
f 1/1/1 13/2/1 14/3/1 5/4/1
f 20/5/2 17/6/2 9/7/2 11/8/2
f 28/9/3 16/10/3 54/11/3 55/12/3
f 48/13/3 57/14/3 32/15/3 14/16/3 47/17/3
f 13/2/1 26/18/1 27/19/1 14/3/1
f 17/6/4 20/5/4 19/20/4 18/21/4
f 22/22/5 23/23/5 16/24/5 15/25/5
f 23/23/6 22/22/6 21/26/6 24/27/6
f 18/21/7 19/20/7 24/27/7 21/26/7
f 27/19/8 26/18/8 25/28/8 28/29/8
f 28/29/9 25/28/9 15/25/9 16/24/9
f 29/30/10 30/31/10 32/32/10 31/33/10
f 32/15/3 30/34/3 120/35/3 122/36/3
f 38/37/2 11/8/2 9/7/2 35/38/2
f 58/39/11 59/40/11 77/41/11 76/42/11
f 44/43/12 43/44/12 33/45/12 40/46/12 39/47/12 36/48/12 35/49/12 9/50/12 17/51/12 18/52/12 21/53/12 22/54/12 15/55/12 25/56/12 26/57/12 13/58/12 1/59/12 29/60/12 31/61/12
f 31/33/10 32/32/10 45/62/10 44/63/10
f 35/38/13 36/64/13 37/65/13 38/37/13
f 40/66/14 33/67/14 34/68/14 41/69/14
f 41/69/15 42/70/15 39/71/15 40/66/15
f 36/64/16 39/71/16 42/70/16 37/65/16
f 45/62/17 46/72/17 43/73/17 44/63/17
f 46/72/18 34/68/18 33/67/18 43/73/18
f 38/74/3 37/75/3 59/40/3 58/39/3
f 24/76/3 19/77/3 50/78/3 52/79/3
f 20/80/3 11/81/3 51/82/3 49/83/3
f 34/84/3 46/85/3 63/86/3 62/87/3
f 37/75/3 42/88/3 60/89/3 59/40/3
f 11/81/3 38/74/3 58/39/3 51/82/3
f 16/10/3 23/90/3 53/91/3 54/11/3
f 23/90/3 24/76/3 52/79/3 53/91/3
f 14/16/3 27/92/3 56/93/3 47/17/3
f 27/92/3 28/9/3 55/12/3 56/93/3
f 41/94/3 34/84/3 62/87/3 61/95/3
f 42/88/3 41/94/3 61/95/3 60/89/3
f 45/96/3 32/15/3 57/14/3 64/97/3
f 46/85/3 45/96/3 64/97/3 63/86/3
f 19/77/3 20/80/3 49/83/3 50/78/3
f 76/98/3 77/99/3 95/100/3 94/101/3
f 53/91/19 52/79/19 70/102/19 71/103/19
f 51/82/20 58/39/20 76/42/20 69/104/20
f 52/79/21 50/78/21 68/105/21 70/102/21
f 60/89/22 61/95/22 79/106/22 78/107/22
f 54/11/23 53/91/23 71/103/23 72/108/23
f 59/40/24 60/89/24 78/107/24 77/41/24
f 56/93/25 55/12/25 73/109/25 74/110/25
f 61/95/26 62/87/26 80/111/26 79/106/26
f 55/12/27 54/11/27 72/108/27 73/109/27
f 63/86/28 64/97/28 82/112/28 81/113/28
f 47/17/10 56/93/10 74/110/10 65/114/10
f 50/78/29 49/83/29 67/115/29 68/105/29
f 62/87/30 63/86/30 81/113/30 80/111/30
f 48/13/2 47/17/2 65/114/2 66/116/2
f 57/14/2 48/13/2 66/116/2 75/117/2
f 49/83/20 51/82/20 69/104/20 67/115/20
f 64/97/1 57/14/1 75/117/1 82/112/1
f 87/118/20 94/101/20 112/119/20 105/120/20
f 71/121/3 70/122/3 88/123/3 89/124/3
f 69/125/3 76/98/3 94/101/3 87/118/3
f 70/122/3 68/126/3 86/127/3 88/123/3
f 78/128/3 79/129/3 97/130/3 96/131/3
f 72/132/3 71/121/3 89/124/3 90/133/3
f 77/99/3 78/128/3 96/131/3 95/100/3
f 74/134/3 73/135/3 91/136/3 92/137/3
f 79/129/3 80/138/3 98/139/3 97/130/3
f 73/135/3 72/132/3 90/133/3 91/136/3
f 66/140/3 65/141/3 83/142/3 84/143/3
f 81/144/3 82/145/3 100/146/3 99/147/3
f 65/141/3 74/134/3 92/137/3 83/142/3
f 68/126/3 67/148/3 85/149/3 86/127/3
f 80/138/3 81/144/3 99/147/3 98/139/3
f 75/150/3 66/140/3 84/143/3 93/151/3
f 67/148/3 69/125/3 87/118/3 85/149/3
f 82/145/3 75/150/3 93/151/3 100/146/3
f 88/123/21 86/127/21 104/152/21 106/153/21
f 96/131/22 97/130/22 115/154/22 114/155/22
f 90/133/23 89/124/23 107/156/23 108/157/23
f 95/100/24 96/131/24 114/155/24 113/158/24
f 92/137/25 91/136/25 109/159/25 110/160/25
f 97/130/26 98/139/26 116/161/26 115/154/26
f 91/136/27 90/133/27 108/157/27 109/159/27
f 84/143/2 83/142/2 101/162/2 102/163/2
f 99/147/28 100/146/28 118/164/28 117/165/28
f 83/142/10 92/137/10 110/160/10 101/162/10
f 86/127/29 85/149/29 103/166/29 104/152/29
f 98/139/30 99/147/30 117/165/30 116/161/30
f 93/151/2 84/143/2 102/163/2 111/167/2
f 85/149/20 87/118/20 105/120/20 103/166/20
f 100/146/1 93/151/1 111/167/1 118/164/1
f 94/101/11 95/100/11 113/158/11 112/119/11
f 89/124/19 88/123/19 106/153/19 107/156/19
f 127/168/3 105/169/3 112/170/3 113/171/3
f 120/172/20 119/173/20 123/174/20 124/175/20
f 5/176/3 14/16/3 121/177/3 119/178/3
f 30/34/3 5/176/3 119/178/3 120/35/3
f 14/16/3 32/15/3 122/36/3 121/177/3
f 123/174/31 125/179/31 126/180/31 124/175/31
f 122/181/10 120/182/10 124/175/10 126/180/10
f 121/183/2 122/184/2 126/180/2 125/179/2
f 119/185/1 121/186/1 125/179/1 123/174/1
f 136/187/3 133/188/3 118/189/3 111/190/3
f 117/191/3 118/189/3 133/188/3 137/192/3
f 132/193/3 131/194/3 138/195/3 135/196/3
f 139/197/3 149/198/3 130/199/3 116/200/3 117/191/3 137/192/3 140/201/3
f 130/199/3 129/202/3 115/203/3 116/200/3
f 129/202/3 128/204/3 114/205/3 115/203/3
f 128/204/3 127/168/3 113/171/3 114/205/3
f 110/206/3 109/207/3 142/208/3 143/209/3
f 131/194/3 132/193/3 144/210/3 141/211/3
f 146/212/3 149/198/3 131/194/3 141/211/3
f 108/213/3 107/214/3 129/202/3 130/199/3
f 107/214/3 106/215/3 128/204/3 129/202/3
f 106/215/3 104/216/3 127/168/3 128/204/3
f 104/216/3 103/217/3 105/169/3 127/168/3
f 147/218/3 101/219/3 110/206/3 143/209/3
f 134/220/2 12/221/2 7/222/2 136/187/2
f 4/223/20 10/224/20 139/197/20 140/201/20
f 138/195/10 139/197/10 10/224/10 12/221/10 134/220/10 135/196/10
f 136/187/1 7/222/1 4/223/1 140/201/1 137/192/1 133/188/1
f 134/220/3 136/187/3 111/190/3 102/225/3
f 147/218/2 8/226/2 3/227/2 148/228/2
f 2/229/20 6/230/20 145/231/20 146/212/20
f 145/231/10 6/230/10 8/226/10 147/218/10 143/209/10 142/208/10
f 3/227/1 2/229/1 146/212/1 141/211/1 144/210/1 148/228/1
f 148/228/3 150/232/3 102/225/3
f 109/207/3 108/213/3 130/199/3 149/198/3 146/212/3 145/231/3 142/208/3
f 138/195/3 131/194/3 149/198/3 139/197/3
f 144/210/3 132/193/3 150/232/3 148/228/3
f 135/196/3 134/220/3 150/232/3 132/193/3
f 150/232/3 134/220/3 102/225/3
f 147/218/3 148/228/3 102/225/3 101/219/3
