# Blender 4.1.1
# www.blender.org
o Cube.001
v -0.104409 -0.131601 0.051296
v -0.035967 0.123141 -0.055069
v -0.104409 -0.131601 -0.055069
v -0.075613 0.123141 -0.055069
v -0.035967 -0.131601 0.051296
v -0.035967 0.131601 0.051296
v -0.035967 -0.131601 -0.055069
v -0.035967 0.131601 -0.055069
v -0.104409 -0.156657 -0.016662
v -0.104409 -0.156657 0.018793
v -0.035967 0.114682 -0.055069
v -0.075613 0.114682 -0.055069
v -0.035967 0.131601 0.018793
v -0.035967 0.131601 -0.016662
v -0.035967 -0.156657 -0.016662
v -0.035967 -0.156657 0.018793
v -0.075613 0.131601 0.051296
v -0.075613 -0.131601 -0.055069
v -0.075613 -0.131601 0.051296
v -0.075613 0.131601 -0.055069
v -0.075613 -0.156657 0.018793
v -0.075613 -0.156657 -0.016662
v -0.075613 0.131601 -0.016662
v -0.075613 0.131601 0.018793
v -0.091210 0.131601 0.051296
v -0.104409 0.114682 0.051296
v -0.097809 0.129334 0.051296
v -0.102640 0.123141 0.051296
v -0.104409 0.114682 -0.055069
v -0.091210 0.131601 -0.055069
v -0.102640 0.123141 -0.055069
v -0.097809 0.129334 -0.055069
v -0.091210 0.131601 0.018793
v -0.104409 0.114682 0.018793
v -0.097809 0.129334 0.018793
v -0.102640 0.123141 0.018793
v -0.104409 0.114682 -0.016662
v -0.091210 0.131601 -0.016662
v -0.102640 0.123141 -0.016662
v -0.097809 0.129334 -0.016662
v -0.075613 0.129334 -0.055069
v -0.035967 0.129334 -0.055069
v -0.075613 0.114682 0.051296
v -0.035967 0.114682 0.051296
v -0.075613 0.123141 0.051296
v -0.035967 0.123141 0.051296
v -0.075613 0.129334 0.051296
v -0.035967 0.129334 0.051296
v -0.035967 -0.200937 -0.016662
v -0.035967 -0.200937 0.018793
v -0.075613 -0.200937 -0.016662
v -0.075613 -0.200937 0.018793
v -0.035967 -0.223078 0.018793
v -0.075613 -0.223078 0.018793
v -0.035967 -0.223078 -0.016662
v -0.075613 -0.223078 -0.016662
v -0.035660 -0.257250 -0.016821
v -0.033298 -0.246039 -0.018045
v -0.033298 -0.246039 0.020175
v -0.035660 -0.257250 0.018952
v -0.041955 -0.265675 -0.013560
v -0.041955 -0.265675 0.015691
v -0.050117 -0.268701 -0.009332
v -0.050117 -0.268701 0.011462
v -0.069625 -0.265675 0.015691
v -0.061463 -0.268701 0.011462
v -0.075921 -0.257250 0.018952
v -0.078283 -0.246039 0.020175
v -0.075921 -0.257250 -0.016821
v -0.078283 -0.246039 -0.018045
v -0.069625 -0.265675 -0.013560
v -0.061463 -0.268701 -0.009332
v -0.033259 -0.223078 0.020195
v -0.078321 -0.223078 0.020195
v -0.033259 -0.223078 -0.018065
v -0.078321 -0.223078 -0.018065
v -0.035967 0.124295 0.018793
v -0.035967 0.124295 -0.016662
v 0.104409 -0.131601 0.051296
v 0.035967 0.123141 -0.055069
v 0.104409 -0.131601 -0.055069
v 0.075613 0.123141 -0.055069
v 0.035967 -0.131601 0.051296
v 0.035967 0.131601 0.051296
v 0.035967 -0.131601 -0.055069
v 0.035967 0.131601 -0.055069
v 0.104409 -0.156657 -0.016662
v 0.104409 -0.156657 0.018793
v 0.035967 0.114682 -0.055069
v 0.075613 0.114682 -0.055069
v 0.035967 0.131601 0.018793
v 0.035967 0.131601 -0.016662
v 0.035967 -0.156657 -0.016662
v 0.035967 -0.156657 0.018793
v 0.075613 0.131601 0.051296
v 0.075613 -0.131601 -0.055069
v 0.075613 -0.131601 0.051296
v 0.075613 0.131601 -0.055069
v 0.075613 -0.156657 0.018793
v 0.075613 -0.156657 -0.016662
v 0.075613 0.131601 -0.016662
v 0.075613 0.131601 0.018793
v 0.091210 0.131601 0.051296
v 0.104409 0.114682 0.051296
v 0.097809 0.129334 0.051296
v 0.102640 0.123141 0.051296
v 0.104409 0.114682 -0.055069
v 0.091210 0.131601 -0.055069
v 0.102640 0.123141 -0.055069
v 0.097809 0.129334 -0.055069
v 0.091210 0.131601 0.018793
v 0.104409 0.114682 0.018793
v 0.097809 0.129334 0.018793
v 0.102640 0.123141 0.018793
v 0.104409 0.114682 -0.016662
v 0.091210 0.131601 -0.016662
v 0.102640 0.123141 -0.016662
v 0.097809 0.129334 -0.016662
v 0.075613 0.129334 -0.055069
v 0.035967 0.129334 -0.055069
v 0.075613 0.114682 0.051296
v 0.035967 0.114682 0.051296
v 0.075613 0.123141 0.051296
v 0.035967 0.123141 0.051296
v 0.075613 0.129334 0.051296
v 0.035967 0.129334 0.051296
v 0.035967 -0.200937 -0.016662
v 0.035967 -0.200937 0.018793
v 0.075613 -0.200937 -0.016662
v 0.075613 -0.200937 0.018793
v 0.035967 -0.223078 0.018793
v 0.075613 -0.223078 0.018793
v 0.035967 -0.223078 -0.016662
v 0.075613 -0.223078 -0.016662
v 0.035660 -0.257250 -0.016821
v 0.033298 -0.246039 -0.018045
v 0.033298 -0.246039 0.020175
v 0.035660 -0.257250 0.018952
v 0.041955 -0.265675 -0.013560
v 0.041955 -0.265675 0.015691
v 0.050117 -0.268701 -0.009332
v 0.050117 -0.268701 0.011462
v 0.069625 -0.265675 0.015691
v 0.061463 -0.268701 0.011462
v 0.075921 -0.257250 0.018952
v 0.078283 -0.246039 0.020175
v 0.075921 -0.257250 -0.016821
v 0.078283 -0.246039 -0.018045
v 0.069625 -0.265675 -0.013560
v 0.061463 -0.268701 -0.009332
v 0.033259 -0.223078 0.020195
v 0.078321 -0.223078 0.020195
v 0.033259 -0.223078 -0.018065
v 0.078321 -0.223078 -0.018065
v 0.035967 0.124295 0.018793
v 0.035967 0.124295 -0.016662
vn -1.0000 -0.0000 -0.0000
vn -0.0000 -0.0000 -1.0000
vn -0.0000 1.0000 -0.0000
vn -0.0000 -0.8375 -0.5464
vn -0.0000 -0.7920 0.6105
vn -0.0000 -1.0000 -0.0000
vn -0.0000 -0.0000 1.0000
vn -0.3248 0.9458 -0.0000
vn -0.7885 0.6151 -0.0000
vn -0.9788 0.2046 -0.0000
vn -0.3249 0.9458 -0.0000
vn 1.0000 -0.0000 -0.0000
vn -0.0000 -0.0009 1.0000
vn -0.0000 -0.0009 -1.0000
vn 0.9785 -0.2062 -0.0000
vn 0.8011 -0.5986 -0.0000
vn 0.3476 -0.9376 -0.0000
vn -0.0000 -0.8132 0.5820
vn -0.0000 -0.3610 0.9326
vn -0.0000 -0.1085 0.9941
vn -0.0000 -0.1085 -0.9941
vn -0.0000 -0.3610 -0.9326
vn -0.0000 -0.8132 -0.5820
vn -0.3476 -0.9376 -0.0000
vn -0.8011 -0.5986 -0.0000
vn -0.9785 -0.2062 -0.0000
vn -1.0000 -0.0017 -0.0000
vn 1.0000 -0.0017 -0.0000
vn 0.3248 0.9458 -0.0000
vn 0.7885 0.6151 -0.0000
vn 0.9788 0.2046 -0.0000
vn 0.3249 0.9458 -0.0000
vt 0.042348 0.034977
vt 0.397976 0.034977
vt 0.397976 0.083315
vt 0.004368 0.083315
vt 0.449037 0.973042
vt 0.449037 0.967296
vt 0.478684 0.967296
vt 0.478684 0.973042
vt 0.760996 0.902168
vt 0.815388 0.902168
vt 0.815388 0.928269
vt 0.760996 0.928269
vt 0.815388 0.994615
vt 0.760996 0.994615
vt 0.498391 0.160346
vt 0.498391 0.040891
vt 0.601668 0.040891
vt 0.601668 0.160346
vt 0.525441 0.967296
vt 0.525441 0.973042
vt 0.498391 0.359610
vt 0.498391 0.252704
vt 0.601668 0.252704
vt 0.601668 0.359611
vt 0.637392 0.928269
vt 0.701663 0.928269
vt 0.701663 0.994615
vt 0.637392 0.994615
vt 0.042348 0.190349
vt 0.397976 0.190349
vt 0.397976 0.231781
vt 0.042348 0.231781
vt 0.637392 0.902168
vt 0.701663 0.902168
vt 0.397976 0.135105
vt 0.004368 0.135105
vt 0.423380 0.252704
vt 0.423380 0.160346
vt 0.423380 0.359610
vt 0.423380 0.040891
vt 0.281977 0.973042
vt 0.281977 0.967296
vt 0.311624 0.967296
vt 0.311624 0.973042
vt 0.235220 0.973042
vt 0.235220 0.967296
vt 0.433129 0.774109
vt 0.433129 0.880400
vt 0.425320 0.880400
vt 0.425320 0.774109
vt 0.433129 0.657332
vt 0.425320 0.657332
vt 0.433129 0.551041
vt 0.425320 0.551041
vt 0.433129 0.434265
vt 0.425320 0.434265
vt 0.398163 0.967296
vt 0.398163 0.973042
vt 0.449037 0.981772
vt 0.398163 0.981772
vt 0.449037 0.992401
vt 0.398163 0.992401
vt 0.355604 0.967296
vt 0.355604 0.973042
vt 0.355604 0.981772
vt 0.311624 0.981772
vt 0.355604 0.992401
vt 0.311624 0.992401
vt 0.397976 0.287024
vt 0.042348 0.287024
vt 0.478684 0.981772
vt 0.478684 0.992401
vt 0.525441 0.981772
vt 0.525441 0.992401
vt 0.042348 0.846362
vt 0.397976 0.846362
vt 0.397976 0.901605
vt 0.042348 0.901605
vt 0.397976 0.946490
vt 0.042348 0.946490
vt 0.042348 0.742781
vt 0.397976 0.742781
vt 0.235220 0.992401
vt 0.235220 0.981772
vt 0.281977 0.981772
vt 0.281977 0.992401
vt 0.603216 0.774109
vt 0.603220 0.880400
vt 0.489826 0.880400
vt 0.489824 0.774109
vt 0.603207 0.551041
vt 0.603211 0.657332
vt 0.489823 0.657332
vt 0.489821 0.551041
vt 0.603202 0.434265
vt 0.489820 0.434265
vt 0.930733 0.421230
vt 0.794731 0.518676
vt 0.855473 0.567712
vt 0.980273 0.490614
vt 0.659131 0.433759
vt 0.659131 0.493727
vt 0.626413 0.493727
vt 0.626413 0.433759
vt 0.736950 0.659730
vt 0.796431 0.833326
vt 0.865521 0.782276
vt 0.819194 0.664685
vt 0.980022 0.846472
vt 0.994359 0.802655
vt 0.891272 0.758960
vt 0.994482 0.759785
vt 0.908585 0.735770
vt 0.986674 0.726551
vt 0.915112 0.710442
vt 0.930106 0.614710
vt 0.967405 0.602372
vt 0.988871 0.572719
vt 0.902969 0.605543
vt 0.994482 0.530944
vt 0.880068 0.588902
vt 0.851616 0.666675
vt 0.878840 0.669905
vt 0.901854 0.678037
vt 0.927651 0.929628
vt 0.852945 0.939683
vt 0.912277 0.939683
vt 0.912277 0.951909
vt 0.852945 0.951909
vt 0.852945 0.994105
vt 0.912277 0.994105
vt 0.840719 0.994105
vt 0.840719 0.951909
vt 0.042348 0.390605
vt 0.397976 0.390605
vt 0.789054 0.252704
vt 0.789054 0.160346
vt 0.789054 0.359611
vt 0.789054 0.040891
vt 0.042348 0.642653
vt 0.004368 0.597767
vt 0.397976 0.597767
vt 0.397976 0.642653
vt 0.892330 0.160346
vt 0.892330 0.040891
vt 0.892330 0.359611
vt 0.892330 0.252704
vt 0.042348 0.490734
vt 0.042348 0.449301
vt 0.397976 0.449301
vt 0.397976 0.490734
vt 0.004368 0.545977
vt 0.397976 0.545977
vt 0.967342 0.252704
vt 0.967342 0.160346
vt 0.967342 0.359611
vt 0.967342 0.040891
vt 0.042348 0.684085
vt 0.397976 0.684085
vt 0.930734 0.421230
vt 0.980273 0.490614
vt 0.855473 0.567712
vt 0.736950 0.659730
vt 0.819194 0.664684
vt 0.865521 0.782275
vt 0.891272 0.758960
vt 0.994359 0.802655
vt 0.980022 0.846472
vt 0.908585 0.735770
vt 0.994482 0.759785
vt 0.915112 0.710442
vt 0.986674 0.726550
vt 0.930106 0.614710
vt 0.902969 0.605543
vt 0.988871 0.572719
vt 0.967405 0.602371
vt 0.880069 0.588902
vt 0.994482 0.530944
vt 0.878840 0.669904
vt 0.901854 0.678037
vt 0.927651 0.929628
vt 0.924502 0.994105
vt 0.924502 0.951909
s 0
f 1/1/1 26/2/1 34/3/1 10/4/1
f 32/5/2 30/6/2 20/7/2 41/8/2
f 33/9/3 25/10/3 17/11/3 24/12/3
f 24/12/3 17/11/3 6/13/3 13/14/3
f 22/15/4 18/16/4 7/17/4 15/18/4
f 41/8/2 20/7/2 8/19/2 42/20/2
f 120/20/2 42/20/2 8/19/2 86/19/2
f 19/21/5 21/22/5 16/23/5 5/24/5
f 20/25/3 23/26/3 14/27/3 8/28/3
f 23/26/3 24/12/3 13/14/3 14/27/3
f 3/29/2 29/30/2 12/31/2 18/32/2
f 30/33/3 38/34/3 23/26/3 20/25/3
f 10/4/1 34/3/1 37/35/1 9/36/1
f 9/36/1 37/35/1 29/30/1 3/29/1
f 10/37/6 9/38/6 22/15/6 21/22/6
f 1/39/5 10/37/5 21/22/5 19/21/5
f 38/34/3 33/9/3 24/12/3 23/26/3
f 9/38/4 3/40/4 18/16/4 22/15/4
f 47/41/7 17/42/7 25/43/7 27/44/7
f 48/45/7 6/46/7 17/42/7 47/41/7
f 55/47/3 53/48/3 73/49/3 75/50/3
f 56/51/3 55/47/3 75/50/3 76/52/3
f 54/53/3 56/51/3 76/52/3 74/54/3
f 53/55/3 54/53/3 74/54/3 73/56/3
f 38/57/8 30/6/8 32/5/8 40/58/8
f 40/58/9 32/5/9 31/59/9 39/60/9
f 39/60/10 31/59/10 29/61/10 37/62/10
f 25/43/11 33/63/11 35/64/11 27/44/11
f 27/44/9 35/64/9 36/65/9 28/66/9
f 28/66/10 36/65/10 34/67/10 26/68/10
f 33/63/8 38/57/8 40/58/8 35/64/8
f 35/64/9 40/58/9 39/60/9 36/65/9
f 36/65/10 39/60/10 37/62/10 34/67/10
f 18/32/2 12/31/2 11/69/2 7/70/2
f 29/61/2 31/59/2 4/71/2 12/72/2
f 12/72/2 4/71/2 2/73/2 11/74/2
f 4/71/2 41/8/2 42/20/2 2/73/2
f 31/59/2 32/5/2 41/8/2 4/71/2
f 80/73/2 2/73/2 42/20/2 120/20/2
f 5/75/7 44/76/7 43/77/7 19/78/7
f 19/78/7 43/77/7 26/79/7 1/80/7
f 5/75/7 83/81/7 122/82/7 44/76/7
f 44/83/7 46/84/7 45/85/7 43/86/7
f 43/86/7 45/85/7 28/66/7 26/68/7
f 44/83/7 122/83/7 124/84/7 46/84/7
f 46/84/7 48/45/7 47/41/7 45/85/7
f 45/85/7 47/41/7 27/44/7 28/66/7
f 15/87/12 16/88/12 50/89/12 49/90/12
f 21/91/1 22/92/1 51/93/1 52/94/1
f 22/92/2 15/87/2 49/90/2 51/93/2
f 16/95/7 21/91/7 52/94/7 50/96/7
f 49/90/12 50/89/12 53/48/12 55/47/12
f 52/94/1 51/93/1 56/51/1 54/53/1
f 51/93/2 49/90/2 55/47/2 56/51/2
f 50/96/7 52/94/7 54/53/7 53/55/7
f 73/97/13 74/98/13 68/99/13 59/100/13
f 66/101/6 72/102/6 63/103/6 64/104/6
f 76/105/14 75/106/14 58/107/14 70/108/14
f 58/107/15 59/109/15 60/110/15 57/111/15
f 57/111/16 60/110/16 62/112/16 61/113/16
f 61/113/17 62/112/17 64/114/17 63/115/17
f 66/116/18 64/117/18 62/118/18 65/119/18
f 65/119/19 62/118/19 60/120/19 67/121/19
f 67/121/20 60/120/20 59/100/20 68/99/20
f 70/108/21 58/107/21 57/111/21 69/122/21
f 69/122/22 57/111/22 61/113/22 71/123/22
f 71/123/23 61/113/23 63/115/23 72/124/23
f 72/124/24 66/116/24 65/119/24 71/123/24
f 71/123/25 65/119/25 67/121/25 69/122/25
f 69/122/26 67/121/26 68/99/26 70/108/26
f 74/98/27 76/105/27 70/108/27 68/99/27
f 75/106/28 73/125/28 59/109/28 58/107/28
f 14/126/12 13/127/12 77/128/12 78/129/12
f 156/130/3 78/129/3 77/128/3 155/131/3
f 78/129/7 156/130/7 92/132/7 14/133/7
f 46/84/7 124/84/7 126/45/7 48/45/7
f 89/74/2 11/74/2 2/73/2 80/73/2
f 85/134/2 7/70/2 11/69/2 89/135/2
f 86/28/3 8/28/3 14/27/3 92/27/3
f 94/136/6 16/23/6 15/18/6 93/137/6
f 83/138/5 5/24/5 16/23/5 94/136/5
f 48/45/7 126/45/7 84/46/7 6/46/7
f 93/137/4 15/18/4 7/17/4 85/139/4
f 91/14/3 13/14/3 6/13/3 84/13/3
f 79/140/12 88/141/12 112/142/12 104/143/12
f 110/5/2 119/8/2 98/7/2 108/6/2
f 111/9/3 102/12/3 95/11/3 103/10/3
f 102/12/3 91/14/3 84/13/3 95/11/3
f 100/144/4 93/137/4 85/139/4 96/145/4
f 119/8/2 120/20/2 86/19/2 98/7/2
f 97/146/5 83/138/5 94/136/5 99/147/5
f 98/25/3 86/28/3 92/27/3 101/26/3
f 101/26/3 92/27/3 91/14/3 102/12/3
f 81/148/2 96/149/2 90/150/2 107/151/2
f 108/33/3 98/25/3 101/26/3 116/34/3
f 88/141/12 87/152/12 115/153/12 112/142/12
f 87/152/12 81/148/12 107/151/12 115/153/12
f 88/154/6 99/147/6 100/144/6 87/155/6
f 79/156/5 97/146/5 99/147/5 88/154/5
f 116/34/3 101/26/3 102/12/3 111/9/3
f 87/155/4 100/144/4 96/145/4 81/157/4
f 125/41/7 105/44/7 103/43/7 95/42/7
f 126/45/7 125/41/7 95/42/7 84/46/7
f 133/47/3 153/50/3 151/49/3 131/48/3
f 134/51/3 154/52/3 153/50/3 133/47/3
f 132/53/3 152/54/3 154/52/3 134/51/3
f 131/55/3 151/56/3 152/54/3 132/53/3
f 116/57/29 118/58/29 110/5/29 108/6/29
f 118/58/30 117/60/30 109/59/30 110/5/30
f 117/60/31 115/62/31 107/61/31 109/59/31
f 103/43/32 105/44/32 113/64/32 111/63/32
f 105/44/30 106/66/30 114/65/30 113/64/30
f 106/66/31 104/68/31 112/67/31 114/65/31
f 111/63/29 113/64/29 118/58/29 116/57/29
f 113/64/30 114/65/30 117/60/30 118/58/30
f 114/65/31 112/67/31 115/62/31 117/60/31
f 96/149/2 85/134/2 89/135/2 90/150/2
f 107/61/2 90/72/2 82/71/2 109/59/2
f 90/72/2 89/74/2 80/73/2 82/71/2
f 82/71/2 80/73/2 120/20/2 119/8/2
f 109/59/2 82/71/2 119/8/2 110/5/2
f 83/81/7 97/158/7 121/159/7 122/82/7
f 97/158/7 79/140/7 104/143/7 121/159/7
f 122/83/7 121/86/7 123/85/7 124/84/7
f 121/86/7 104/68/7 106/66/7 123/85/7
f 124/84/7 123/85/7 125/41/7 126/45/7
f 123/85/7 106/66/7 105/44/7 125/41/7
f 93/87/1 127/90/1 128/89/1 94/88/1
f 99/91/12 130/94/12 129/93/12 100/92/12
f 100/92/2 129/93/2 127/90/2 93/87/2
f 94/95/7 128/96/7 130/94/7 99/91/7
f 127/90/1 133/47/1 131/48/1 128/89/1
f 130/94/12 132/53/12 134/51/12 129/93/12
f 129/93/2 134/51/2 133/47/2 127/90/2
f 128/96/7 131/55/7 132/53/7 130/94/7
f 151/160/13 137/161/13 146/162/13 152/98/13
f 144/101/6 142/104/6 141/103/6 150/102/6
f 154/163/14 148/164/14 136/165/14 153/106/14
f 136/165/26 135/166/26 138/167/26 137/168/26
f 135/166/25 139/169/25 140/170/25 138/167/25
f 139/169/24 141/171/24 142/172/24 140/170/24
f 144/173/18 143/174/18 140/175/18 142/176/18
f 143/174/19 145/177/19 138/178/19 140/175/19
f 145/177/20 146/162/20 137/161/20 138/178/20
f 148/164/21 147/122/21 135/166/21 136/165/21
f 147/122/22 149/179/22 139/169/22 135/166/22
f 149/179/23 150/180/23 141/171/23 139/169/23
f 150/180/17 149/179/17 143/174/17 144/173/17
f 149/179/16 147/122/16 145/177/16 143/174/16
f 147/122/15 148/164/15 146/162/15 145/177/15
f 152/98/28 146/162/28 148/164/28 154/163/28
f 153/106/27 136/165/27 137/168/27 151/181/27
f 92/126/1 156/130/1 155/131/1 91/127/1
f 91/182/2 155/131/2 77/128/2 13/183/2
